<svg id="4DIhdO-GTg" viewBox="0 0 350 41.41946017711391" height="41.41946017711391" width="350" style="width: 350px; height: 41.4195px; position: absolute; top: 50%; left: 50%; z-index: 0; cursor: pointer; transform: translate(-50%, -50%) scale(0.648143);">
	<defs id="SvgjsDefs1342">
	</defs>
	<g id="SvgjsG1343" featurekey="K5GtsI-0" transform="matrix(2.7910687163902037,0,0,2.7910687163902037,-0.4465705687391446,-15.406700592123789)" fill="#f6f6f6">
		<path d="M4.6 20 l0 -11.6 l-4.44 0 l0 -2.4 l11.52 0 l0 2.4 l-4.44 0 l0 11.6 l-2.64 0 z M24.4 20 l-1.18 -2.64 l-7.32 0 l-1.2 2.64 l-2.86 0 l6.28 -14 l2.88 0 l6.28 14 l-2.88 0 z M22.16 14.9 l-2.6 -5.96 l-2.6 5.96 l5.2 0 z M39 8.3 l-2.1 1.08 c-0.48 -0.8 -1.8 -1.56 -3.32 -1.56 c-1.96 0 -2.9 0.82 -2.9 1.86 c0 1.22 1.44 1.56 3.12 1.76 c2.92 0.36 5.64 1.12 5.64 4.46 c0 3.12 -2.76 4.46 -5.88 4.46 c-2.86 0 -5.06 -0.88 -6.1 -3.44 l2.2 -1.14 c0.62 1.54 2.24 2.22 3.94 2.22 c1.66 0 3.22 -0.58 3.22 -2.1 c0 -1.32 -1.38 -1.86 -3.24 -2.06 c-2.86 -0.34 -5.5 -1.1 -5.5 -4.24 c0 -2.88 2.84 -4.06 5.42 -4.08 c2.18 0 4.44 0.62 5.5 2.78 z M45.1 20 l0 -11.6 l-4.44 0 l0 -2.4 l11.52 0 l0 2.4 l-4.44 0 l0 11.6 l-2.64 0 z M56.96 6 l3.56 5.78 l3.72 -5.78 l3.18 0 l0 0.12 l-5.58 8.1 l0 5.78 l-2.64 0 l0 -5.78 l-5.38 -8.1 l0 -0.12 l3.14 0 z M79.11999999999999 16.42 l1.8 1.82 c-1.44 1.42 -3.3 2.08 -5.32 2.08 c-5.2 0 -7.4 -3.58 -7.42 -7.22 c-0.02 -3.66 2.36 -7.38 7.42 -7.38 c1.9 0 3.7 0.72 5.14 2.14 l-1.76 1.7 c-0.92 -0.9 -2.16 -1.32 -3.38 -1.32 c-3.38 0 -4.84 2.52 -4.82 4.86 c0.02 2.32 1.36 4.74 4.82 4.74 c1.22 0 2.6 -0.5 3.52 -1.42 z M88.98 5.720000000000001 c4.82 0 7.22 3.7 7.18 7.36 c-0.04 3.62 -2.26 7.24 -7.18 7.24 s-7.2 -3.54 -7.2 -7.22 s2.36 -7.38 7.2 -7.38 z M88.98 8.12 c-3.3 0 -4.66 2.66 -4.6 5.02 c0.06 2.3 1.3 4.76 4.6 4.76 s4.54 -2.48 4.58 -4.78 c0.04 -2.36 -1.28 -5 -4.58 -5 z M104.68 5.720000000000001 c4.82 0 7.22 3.7 7.18 7.36 c-0.04 3.62 -2.26 7.24 -7.18 7.24 s-7.2 -3.54 -7.2 -7.22 s2.36 -7.38 7.2 -7.38 z M104.68 8.12 c-3.3 0 -4.66 2.66 -4.6 5.02 c0.06 2.3 1.3 4.76 4.6 4.76 s4.54 -2.48 4.58 -4.78 c0.04 -2.36 -1.28 -5 -4.58 -5 z M125.04 6 l0 0.08 l-6.22 6.7 l6.74 7.06 l0 0.16 l-3.26 0 l-5.86 -6.2 l0 6.2 l-2.64 0 l0 -14 l2.64 0 l0 5.92 l5.32 -5.92 l3.28 0 z">
		</path>
	</g>
</svg>
