<svg xmlns="http://www.w3.org/2000/svg" id="qg2VcQoPG" viewBox="0 0 369.9130434782609 155.1375480489209" height="155.1375480489209" width="369.9130434782609" style="width: 369.913px; height: 155.138px; position: absolute; top: 50%; left: 50%; z-index: 0; cursor: pointer;">
	<defs id="SvgjsDefs1451">
		<linearGradient id="SvgjsLinearGradient1456">
			<stop id="SvgjsStop1457" stop-color="#8f5e25" offset="0">
			</stop>
			<stop id="SvgjsStop1458" stop-color="#fbf4a1" offset="0.5">
			</stop>
			<stop id="SvgjsStop1459" stop-color="#8f5e25" offset="1">
			</stop>
		</linearGradient>
		<linearGradient id="SvgjsLinearGradient1460">
			<stop id="SvgjsStop1461" stop-color="#8f5e25" offset="0">
			</stop>
			<stop id="SvgjsStop1462" stop-color="#fbf4a1" offset="0.5">
			</stop>
			<stop id="SvgjsStop1463" stop-color="#8f5e25" offset="1">
			</stop>
		</linearGradient>
	</defs>
	<g id="SvgjsG1452" featurekey="symbolFeature-0" transform="matrix(0.8454001648621726,0,0,0.8454001648621726,-4.22651627621985,35.61286112011291)" fill="url(#SvgjsLinearGradient1456)">
		<path xmlns="http://www.w3.org/2000/svg" d="M61.363,45.455c0.015-0.013,0.028-0.026,0.043-0.038c2.877-2.342,7.266-4.52,9.053-7.984  c-1.218-1.584-2.896-3.092-3.718-4.691c-1.739-3.377-6.874,0.4-9.437-1.459c-1.357-0.985-1.713-0.974-2.382-0.646  c0.484,3.592,1.743,6.878,4.47,9.605c0.979,0.979,1.61,1.123,1.288,2.443C60.335,44.095,60.669,44.517,61.363,45.455z   M59.951,34.993l0.078-0.069c0.265,0.226,0.501,0.495,0.723,0.775c-0.012-0.219,0.002-0.439,0.046-0.665  c0.087-0.491,0.48-0.938,0.919-1.238c0.443-0.307,0.95-0.422,1.416-0.446c0.472-0.009,0.925,0.069,1.354,0.166l-0.006,0.103  c-0.863,0.083-1.768,0.284-2.23,0.81c-0.239,0.264-0.28,0.615-0.476,0.946c-0.16,0.284-0.327,0.61-0.591,0.927  c0.28,0.475,0.519,0.973,0.721,1.486c0.093,0.244,0.194,0.489,0.281,0.738c0.074-0.145,0.155-0.285,0.248-0.419  c0.32-0.479,0.856-0.776,1.375-1.026c0.523-0.249,1.099-0.389,1.663-0.395c0.562,0.011,1.115,0.148,1.597,0.346l-0.021,0.101  c-1.051-0.136-2.067,0.09-2.821,0.661c-0.389,0.282-0.646,0.689-1.019,0.997c-0.252,0.216-0.522,0.439-0.819,0.659  c0.026,0.575-0.015,1.161-0.269,1.738l-0.103,0.004c-0.314-0.534-0.491-1.054-0.648-1.575c-0.165-0.516-0.149-1.066-0.258-1.598  C60.891,36.967,60.583,35.913,59.951,34.993z M27.366,30.454c2.247,0.364,2.469,4.309,3.661,5.815  c3.001,3.794,7.31,3.615,11.075,6.081c6.624,4.334,1.881,13.314,9.688,16.502c1.611,0.658,3.305,1.214,4.799,1.93  c-0.693-2.767-0.638-5.649,0.229-8.407c0.631-2.007,1.592-3.815,2.94-5.36c-0.489-0.903-0.996-1.808-1.513-2.71  c-0.093-0.16-0.144-0.342-0.03-0.515c1.115-1.695-1.848-4.539-2.825-5.838c-1.479-1.966-2.387-3.69-2.642-6.187  c-0.238-2.325,0.905-3.463-2.43-4.312c-0.707-0.18-1.884-0.414-2.484-0.919c-1.827-1.535-5.76-8.038-8.902-2.942  c-1.136,1.843-3.008,3.559-5.472,2.995c-0.697-0.16-1.115-1.055-1.422-1.473c-0.131-0.025-0.263-0.047-0.404-0.047  c-1.147,0-2.065,0.688-3.212,0.688c-2.524,0.229-5.964-0.688-7.8,1.835c-0.461,0.808-0.456,2.134-0.311,3.488  C21.276,30.383,23.429,29.816,27.366,30.454z M36.166,32.337c0.776-0.3,1.576-0.552,2.396-0.718c1.35-0.273,2.757-0.397,4.178-0.193  c-0.727-1.009-1.534-1.978-2.587-2.654l0.052-0.089c0.875,0.453,1.616,1.104,2.296,1.816c-0.134-0.58-0.213-1.176-0.202-1.792  c0.008-0.613,0.105-1.249,0.377-1.824c0.256-0.579,0.71-1.067,1.247-1.327l0.062,0.081c-0.774,0.885-0.862,1.968-0.738,3.027  c0.135,1.063,0.415,2.138,0.708,3.228l0.148,0.553c0.638,0.878,1.227,1.79,1.752,2.742c0.011-0.025,0.017-0.056,0.03-0.08  c0.327-0.614,0.775-1.081,1.258-1.472c0.973-0.769,2.062-1.308,3.218-1.637l0.044,0.093c-0.929,0.736-1.842,1.458-2.617,2.254  c-0.747,0.787-1.396,1.684-1.08,2.471c0.446,0.922,0.839,1.874,1.089,2.873c0.033,0.13,0.056,0.262,0.086,0.394  c0.098-0.219,0.212-0.432,0.351-0.63c0.35-0.515,0.922-0.836,1.481-1.101c0.564-0.263,1.202-0.407,1.825-0.342  c0.622,0.075,1.187,0.379,1.591,0.786l-0.061,0.083c-0.984-0.605-2.135-0.404-2.948,0.193c-0.425,0.294-0.718,0.727-1.112,1.063  c-0.297,0.258-0.607,0.533-0.952,0.806c0.186,1.083,0.26,2.186,0.158,3.279l-0.103,0.01c-0.421-1.456-0.814-2.863-1.306-4.246  c-0.307-0.878-0.599-1.765-0.922-2.642c-0.523-0.382-1.205-0.635-1.9-0.789c-0.752-0.167-1.537-0.233-2.317-0.213  c-0.779,0.026-1.566,0.114-2.307,0.365c-0.73,0.245-1.454,0.663-1.795,1.39l-0.093-0.044c0.276-0.792,1.018-1.334,1.762-1.665  c0.758-0.337,1.574-0.531,2.396-0.611c0.823-0.083,1.656-0.075,2.486,0.044c0.427,0.068,0.856,0.157,1.28,0.294  c-0.037-0.086-0.069-0.173-0.107-0.258c-0.514-1.141-1.122-2.241-1.799-3.298l-0.146-0.053c-1.433-0.535-3.099-0.526-4.689-0.323  c-0.801,0.11-1.6,0.263-2.383,0.483c-0.776,0.229-1.565,0.485-2.236,0.943l-0.062-0.083C34.622,32.988,35.397,32.648,36.166,32.337z   M37.48,22.709c1.048-1.667,2.75-2.048,4.579-2.224c2.262-0.218,3.847,0.802,5.101,2.54c1.755,2.432,3.52,2.211,5.775,3.602  c0.791,0.488,1.72,0.907,1.788,2.036c0.016,0.261,0.046,0.518,0.069,0.777c0.96-0.419,2.018-0.876,2.801-0.657  c0.957,0.27,1.405,2.293,2.389,1.958c1.07-0.366,1.531-0.427,2.679-0.282c1.646,0.21,4.571-1.179,5.601,0.822  c0.806,1.564,1.809,3.036,2.979,4.349c0.958-2.046,2.493-4,4.433-4.573c0.003-0.086-0.004-0.167,0.007-0.256  c0.229-1.605,1.836-1.835,2.295-3.44c1.146-5.048-2.295-4.588-5.048-6.194c-2.981-1.606-3.67-3.9-7.799-4.13  c-2.982-0.229-3.862,2.052-6.387-0.243c-2.064-2.293-2.128-6.641-7.321-5.504c-3.479,0.761-3.874,4.61-8.172,4.185  c-4.21-0.416-5.42,1.792-7.025,5.692c-0.275,0.825-0.543,1.751-0.68,2.676C36.452,23.578,37.156,23.225,37.48,22.709z   M72.654,24.885c0.739,0.128,1.432,0.415,2.055,0.76l-0.038,0.095c-1.347-0.442-2.821-0.502-3.971,0.097  c-0.582,0.297-0.986,0.791-1.415,1.231c-0.428,0.464-0.795,0.977-1.095,1.66h-0.103c-0.279-0.751-0.054-1.615,0.372-2.283  c0.431-0.695,1.185-1.113,1.918-1.37C71.123,24.814,71.914,24.772,72.654,24.885z M63.543,24.087  c0.273-0.837,0.872-1.555,1.555-2.127c0.687-0.579,1.546-0.94,2.408-1.031c0.867-0.082,1.711,0.068,2.497,0.318l-0.022,0.101  c-0.81-0.115-1.632-0.114-2.385,0.09c-0.757,0.181-1.428,0.577-1.935,1.126c-0.52,0.549-0.8,1.26-1.168,1.927  c-0.368,0.681-0.663,1.41-1.097,2.17l-0.102-0.024C63.167,25.79,63.261,24.914,63.543,24.087z M51.209,15.894  c1.294,0.082,2.608,0.332,3.838,0.845c1.226,0.522,2.351,1.324,3.247,2.348c0.898,1.012,1.631,2.234,1.915,3.574  c0.283,1.329,0.276,2.731-0.167,3.997l-0.104-0.014c-0.122-1.31-0.343-2.539-0.728-3.714c-0.38-1.165-0.821-2.321-1.558-3.321  c-0.738-0.99-1.711-1.816-2.83-2.402c-1.112-0.609-2.348-0.99-3.628-1.208L51.209,15.894z M48.169,18.451  c1.004-0.067,2.023,0.259,2.915,0.747c0.892,0.505,1.679,1.17,2.385,1.909c0.695,0.742,1.395,1.527,1.798,2.488  c0.396,0.94,0.683,2.022,0.419,3.055h-0.103c-0.311-0.955-0.758-1.769-1.238-2.586c-0.491-0.8-0.913-1.661-1.503-2.417  c-0.585-0.756-1.256-1.456-2.035-2.012c-0.766-0.566-1.656-1.006-2.642-1.08L48.169,18.451z M37.428,72.284  c-0.792-3.619,3.133-6.312,6.386-6.416c2.828-0.09,12.706,2.011,13.055-3.012c-3.872-3.107-11.537-2.802-12.186-8.881  c-0.29-2.715,0.255-6.204-1.637-8.476c-1.817-2.182-4.024-3.196-6.63-4.129c-5.302-1.9-6.498-3.726-9.182-8.288  c-0.996-1.694-4.773-1.57-6.771-0.842c0.002,0.011,0.003,0.023,0.005,0.034c-2.068,1.455-3.438,3.77-4.435,6.097  c-1.835,4.13-2.295,3.67-6.424,4.359C1.123,44.108,7.087,49.384,6.398,54.2c-0.687,3.901-2.064,2.753,0.918,5.966  c0.23,0,2.294,1.605,2.294,1.835c1.606,0.918,1.835,2.294,4.129,1.835c0.459,2.294,0.918,8.488,4.588,5.965  c1.148,1.605,0.917,5.047,3.441,3.9c1.147,1.836,3.67,1.836,5.506,3.211c2.293,1.836,0.917,2.754,4.817,2.754  c3.9-0.229,5.965-0.689,9.865,0.458c1.625,0.487,2.73,0.656,3.655,0.582C43.995,77.62,38.222,75.911,37.428,72.284z M36.807,62.085  l-0.228-0.089c-1.005-0.392-2.095-0.506-3.11-0.224c-1.019,0.272-1.943,0.941-2.635,1.835c-1.399,1.798-1.934,4.322-1.527,6.721  l-0.202,0.047c-0.394-1.181-0.536-2.465-0.417-3.739c0.12-1.271,0.486-2.557,1.203-3.685c0.702-1.127,1.766-2.111,3.093-2.617  c0.277-0.108,0.564-0.182,0.853-0.246c-1.581-1.147-3.045-2.451-4.484-3.78c-0.865-0.274-1.803-0.319-2.724-0.118  c-0.993,0.213-1.953,0.689-2.802,1.332c-0.849,0.645-1.614,1.437-2.212,2.353c-0.594,0.917-1.046,1.942-1.208,3.054L20.2,62.909  c-0.012-1.153,0.316-2.314,0.83-3.365c0.519-1.053,1.217-2.034,2.097-2.853c0.878-0.815,1.93-1.488,3.124-1.875  c0.392-0.129,0.801-0.209,1.216-0.267c-1.039-0.983-2.057-1.989-3.043-3.027l-1.081-0.68c-0.812-0.509-1.888-0.712-2.977-0.683  c-1.093,0.029-2.212,0.269-3.281,0.65c-1.064,0.393-2.11,0.897-3.029,1.586c-0.908,0.688-1.742,1.542-2.088,2.663l-0.2-0.051  c0.172-1.229,0.956-2.298,1.832-3.146c0.89-0.856,1.921-1.567,3.044-2.098c1.123-0.534,2.326-0.931,3.604-1.097  c0.521-0.063,1.062-0.077,1.608-0.045c-1.561-1.931-3.019-3.976-3.979-6.267l0.186-0.093c1.185,2.083,2.728,3.909,4.392,5.611  c-0.045-1.061,0.08-2.115,0.345-3.12c0.22-0.877,0.541-1.726,0.952-2.528c0.421-0.793,0.932-1.562,1.62-2.155l0.171,0.115  c-0.486,1.661-0.711,3.278-0.857,4.891c-0.068,0.806-0.083,1.604-0.096,2.389c-0.005,0.784,0,1.563,0.113,2.316l0.044,0.294  c0.932,0.862,1.883,1.705,2.86,2.519c-0.131-0.942-0.044-1.933,0.31-2.837c0.398-1.056,1.141-2.026,2.159-2.56  c0.997-0.563,2.275-0.573,3.141-0.022l-0.057,0.198c-0.969,0.013-1.747,0.384-2.291,0.949c-0.547,0.563-0.89,1.28-1.058,2.033  c-0.155,0.757-0.161,1.537-0.044,2.326c0.11,0.747,0.338,1.514,0.719,2.232c1.562,1.179,3.165,2.306,4.68,3.55  c0.037-0.967,0.356-1.894,0.84-2.679c0.521-0.836,1.238-1.523,2.075-1.986c0.83-0.451,1.844-0.684,2.726-0.409l-0.008,0.206  c-0.813,0.228-1.44,0.687-1.951,1.236c-0.514,0.544-0.905,1.179-1.166,1.833c-0.269,0.654-0.375,1.332-0.381,1.985  c0.004,0.655,0.134,1.308,0.407,1.953l0.021,0.05c0.356,0.316,0.713,0.629,1.063,0.955c1.004,0.935,2.008,1.891,2.89,2.989  l-0.131,0.159C39.918,63.938,38.343,63.044,36.807,62.085z M92.886,57.642c-0.229-2.753,2.523-3.899,0.918-7.34  c-1.377-2.522-2.983-2.522-5.506-3.67c-4.588-1.835-3.899-5.964-6.194-10.323c-0.756-1.513-1.523-2.718-2.741-3.5  c-4.515-0.706-5.52,1.155-6.161,2.865c-0.356,0.953-0.672,1.834-1.276,2.673c-3.301,4.579-9.899,6.676-12.261,11.863  c-1.797,3.95-1.65,7.63-0.676,11.738c0.376,1.583-0.278,2.772-1.261,3.918c-2.211,2.576-6.725,1.971-9.659,1.723  c-2.569-0.217-11.934,0.681-8.097,5.119c1.214,1.405,2.764,2.366,4.264,3.431c1.431,1.014,4.891,2.912,3.197,5.958l0.031,0.095  c2.753,9.177,10.323,6.424,17.893,5.964c1.376-0.229,3.212-0.229,4.589-0.458c3.441-0.688,2.753-2.065,5.506-3.671  c3.441-2.065,8.717-2.294,9.176-7.341c5.047,0.688,5.047-4.817,4.589-8.03c1.604,0,4.817-2.753,5.506-4.129  C95.868,61.312,93.115,60.395,92.886,57.642z M90.798,52.996c-1.024-0.18-2.071-0.246-3.104-0.252  c-1.035,0.002-2.064,0.084-3.069,0.266c-2.01,0.334-3.931,1.061-5.526,2.209l-0.396,0.285c-0.073,0.142-0.14,0.285-0.215,0.427  c-0.508,0.951-1.035,1.893-1.584,2.824c1.652-0.761,3.43-1.217,5.222-1.34c1.421-0.089,2.854,0.042,4.219,0.412  c1.361,0.365,2.664,0.995,3.721,1.897l-0.121,0.168c-2.293-1.494-5.109-1.832-7.707-1.421c-2.612,0.39-5.09,1.537-7.001,3.259  l-0.495,0.446c-1.034,1.547-2.125,3.057-3.294,4.512c1.649-0.479,3.361-0.701,5.054-0.624c1.53,0.056,3.037,0.359,4.467,0.845  c1.425,0.494,2.8,1.175,3.943,2.143l-0.121,0.167c-1.231-0.796-2.612-1.301-4.015-1.635c-1.408-0.327-2.854-0.434-4.275-0.385  c-2.833,0.115-5.588,1.048-7.805,2.703c-2.065,2.263-4.311,4.372-6.847,6.114c-0.194,0.134-0.394,0.261-0.591,0.394  c0.172-0.017,0.344-0.03,0.515-0.047c1.573-0.136,3.155-0.24,4.747-0.246c1.59-0.005,3.2,0.09,4.772,0.47  c1.54,0.365,3.176,1.093,4.033,2.487l-0.161,0.127c-0.999-1.2-2.524-1.67-4.012-1.861c-1.508-0.178-3.047-0.115-4.576,0.012  c-1.531,0.142-3.06,0.376-4.587,0.646c-1.528,0.265-3.044,0.636-4.581,0.927l-0.637,0.12c-2.161,1.097-4.41,2.006-6.73,2.664  l-0.081-0.19c0.947-0.566,1.887-1.138,2.814-1.717l-0.679,0.128l4.623-2.983c0.488-0.316,0.829-0.671,1.054-1.197  c0.243-0.52,0.313-1.201,0.327-1.919c-0.002-0.721-0.075-1.482-0.168-2.261c-0.095-0.777-0.217-1.578-0.242-2.406l0.2-0.054  c0.811,1.391,1.585,2.829,1.922,4.549c0.076,0.387,0.119,0.793,0.123,1.213c0.227-0.175,0.461-0.339,0.686-0.517  c2.295-1.824,4.56-3.702,6.685-5.738c0.528-1.792,0.555-3.58-0.072-5.251c-0.661-1.725-2.051-3.23-3.915-4.275l0.057-0.2  c2.212,0.127,4.419,1.521,5.586,3.648c0.58,1.045,0.905,2.261,0.894,3.467c0.063-0.07,0.132-0.135,0.194-0.205  c1.338-1.499,2.593-3.074,3.782-4.701l-0.001-0.034c-0.048-1.203-0.218-2.391-0.523-3.498c-0.301-1.107-0.695-2.146-1.276-3.05  c-0.582-0.903-1.389-1.644-2.39-2.202c-1.004-0.553-2.177-0.902-3.418-1.188V50.92c1.259-0.28,2.612-0.291,3.942,0.081  c1.329,0.362,2.593,1.193,3.494,2.312c0.907,1.117,1.439,2.465,1.687,3.795c0.097,0.521,0.148,1.04,0.183,1.558  c0.711-1.064,1.403-2.142,2.061-3.243c0.114-0.187,0.219-0.378,0.331-0.566l-0.038-0.15c-0.273-1.065-0.586-2.12-0.981-3.127  c-0.394-1.009-0.798-1.987-1.221-2.944c-0.422-0.959-0.912-1.875-1.504-2.756c-0.591-0.882-1.3-1.721-2.035-2.619l0.119-0.169  c1.096,0.398,2.128,0.997,3.029,1.792c0.909,0.79,1.665,1.763,2.255,2.805c0.595,1.044,0.989,2.17,1.256,3.305  c0.137,0.581,0.257,1.159,0.366,1.737c0.548-0.969,1.083-1.947,1.61-2.931c1.048-1.888,1.95-3.871,3.257-5.632l0.168,0.121  c-1.166,1.796-1.944,3.833-2.869,5.786c-0.455,0.998-0.92,1.993-1.398,2.983c1.476-0.597,3.031-0.938,4.578-1.038  c2.163-0.105,4.314,0.128,6.341,0.778L90.798,52.996z">
		</path>
	</g>
	<g id="SvgjsG1453" featurekey="nameFeature-0" transform="matrix(2.4148267487579993,0,0,2.4148267487579993,101.4809174240236,-17.00039749132485)" fill="url(#SvgjsLinearGradient1460)">
		<path d="M8.92 12.120000000000001 c-0.2 0.68 -0.16 1.56 -0.64 1.96 c-0.16 2.16 -1.2 4.24 -1.6 6.16 c0.92 0.12 2.16 0.08 3.16 0.04 c2.4 0.36 5.32 -0.16 7.68 1.16 c-0.2 0.08 -0.36 -0.04 -0.52 0.08 c-3 -1.08 -7.2 -0.56 -10.16 -1 c-0.2 0.04 -0.36 0.2 -0.4 0.44 c0 0.2 0.4 0.04 0.48 0.24 c0.04 -0.16 0.08 -0.36 0.16 -0.32 c0 0.2 0.48 0.36 0.64 0.08 c0.44 0.2 0.76 0.04 1.12 0.04 c0.12 0.04 0.08 0.2 0.16 0.28 c0.12 0 0.16 -0.04 0.16 -0.08 c0.08 0 0.04 0.08 0.08 0.08 c0.12 0 0.04 -0.16 -0.04 -0.16 c0 -0.12 0.16 0 0.16 0.08 c0.12 -0.04 -0.04 -0.16 0 -0.24 c0.48 0.6 1.32 0.12 1.88 0.4 c0.04 0 0.04 -0.04 0.04 -0.12 c0.24 0.16 0.28 -0.08 0.56 0.08 c0.12 -0.12 -0.24 -0.12 -0.24 -0.28 c0.16 0.08 0.4 0.04 0.44 0.04 c0.12 0.2 -0.08 0 -0.08 0.12 c0.52 0.36 1.24 0 1.8 0.24 c0.12 -0.04 0.2 -0.12 0.24 -0.24 c0.12 0.04 0 0.32 0.2 0.28 c0.12 -0.04 -0.08 -0.12 -0.04 -0.24 c0.12 0.16 0.36 0.28 0.28 0.48 c0.24 0 0.16 -0.08 0.16 -0.24 c0.16 0.16 0.36 -0.12 0.4 0.04 c0.12 0 0.04 -0.16 0.08 -0.24 c0.32 0.24 1 -0.08 1.6 0.24 c-0.4 0.12 -0.84 0.16 -1.32 0 c-0.16 0.08 -0.12 0.36 -0.36 0.32 c-0.16 0.04 -0.12 -0.16 -0.16 -0.24 c-0.12 0.28 -0.68 0.04 -0.64 0.36 c-0.2 0.04 -0.08 -0.24 -0.24 -0.24 c0 0.24 -0.12 0.12 -0.4 0.2 c0 -0.12 0.08 -0.12 0.16 -0.12 c0 -0.12 -0.28 -0.16 -0.2 0.04 c-0.12 -0.04 -0.08 -0.2 -0.28 -0.16 c-0.16 0 -0.16 0.12 -0.24 0.24 c-2.24 -0.28 -5.08 -0.2 -6.72 -0.12 c-0.2 0.08 -0.08 0.48 -0.32 0.48 c0 1.16 -0.72 2.2 -0.88 3.32 c-0.56 1.6 -1.36 3.68 -1.96 5.36 c-0.8 2.32 -2.4 3.84 -2.68 6.24 c0 0.56 0 1.04 -0.16 1.6 c0.04 0.68 0.08 1.44 -0.08 2.12 c0.04 1.92 0.2 4.12 1.52 5.24 c-1.96 -0.24 -2.4 -2.12 -2.72 -3.8 c-0.08 -0.88 -0.24 -2.16 -0.12 -3.16 c0.12 0 0.04 0.16 0.16 0.12 c0 -0.32 -0.08 -0.76 0.08 -0.96 c-0.24 0.12 -0.12 0.36 -0.2 0.52 c0 -0.72 -0.08 -1.4 0.24 -1.96 c-0.04 -0.56 0.04 -1.24 -0.32 -1.72 c0.2 -0.24 0.32 -0.56 0.56 -0.76 c0.6 -4.56 1.52 -7.92 2.64 -12.16 c-1.36 -0.24 -3.04 0.96 -4.24 0.16 c-0.2 -0.88 0 -1.88 1 -1.64 c1.08 -0.28 2.4 -0.28 3.8 -0.48 c0.64 -2 1.36 -4.64 2.08 -6.92 c0.76 -2.36 1.2 -5 2.96 -6.36 c1.56 0.12 1.8 1.88 1.36 3.4 c0.16 0.16 0.16 0.2 0.12 0.48 c0.08 0 0.04 -0.16 0.08 -0.2 c0.2 0.48 -0.36 0.88 -0.24 1.28 c-0.04 0 -0.04 -0.04 -0.12 -0.04 c-0.04 0.08 0 0.32 0.04 0.16 l0.04 0 z M6.92 11.120000000000001 c-0.08 -0.28 -0.2 0.16 0 0 c-0.04 0.08 -0.04 0.16 -0.12 0.16 c0 -0.12 -0.04 -0.08 -0.04 0 l-0.04 0 c-0.08 0.08 -0.08 0.2 -0.04 0.32 c-0.08 0 -0.04 0.04 -0.08 0.08 l-0.04 0 c0.04 0.24 -0.24 0.44 -0.08 0.64 c0.04 -0.24 0.16 -0.36 0.12 -0.64 c0.08 0 0.04 -0.04 0.08 -0.08 l0.04 0 c0 -0.08 0 -0.12 0.04 -0.12 c-0.76 2.72 -1.8 5.92 -2.6 8.8 c0.44 0.08 0.56 -0.04 0.96 0 c1.08 -4 2.6 -7.64 2.84 -11.56 c-0.44 0.68 -0.76 1.52 -1.04 2.4 z M8.64 9.120000000000001 c-0.16 0.16 0.16 0.16 0 0 l0 0 z M6.08 20.16 c-0.12 0.04 0.04 0.2 0 0 c0.2 -0.16 0 -0.24 -0.04 -0.4 c0.08 -0.24 0.28 -0.4 0.24 -0.72 c0.12 -0.08 0.16 0 0.28 -0.12 l0 -0.28 c-0.04 0 -0.12 0 -0.12 -0.04 c0.12 -0.24 0.08 -0.64 0.28 -0.76 c0 0.04 0 0.08 0.04 0.08 c0.04 -0.2 0.32 -0.4 0.16 -0.64 c-0.12 0.12 -0.04 0.36 -0.16 0.4 c-0.08 -0.24 0.12 -0.52 0.2 -0.72 c0.08 0 0 0.16 0.08 0.16 c0.2 -0.56 0.36 -0.92 0.48 -1.64 c-0.28 0.32 -0.28 1.2 -0.56 1.32 c0.56 -2.16 1.4 -4.4 1.68 -6.72 c0.04 0 0.04 -0.08 0 -0.08 c-0.08 -0.2 0.08 -0.24 0.12 -0.32 c-0.08 -0.04 -0.16 -0.12 -0.08 -0.2 c-0.28 0.68 -0.36 1.52 -0.44 2.2 c-0.08 0.04 -0.12 -0.04 -0.2 -0.04 c0 0.12 0.08 0.16 0.08 0.28 c-0.24 0.2 -0.56 1.04 -0.32 1.44 c-0.12 0.08 -0.16 -0.04 -0.28 0.04 c-0.44 2.32 -1.56 4.84 -1.96 6.92 c0.28 0.04 0.36 -0.16 0.48 -0.28 c0 0.08 0.04 0.08 0.04 0.12 z M7.08 10.399999999999999 c-0.04 0 0.04 0.04 0 0 c0.2 -0.08 -0.12 -0.16 0 0 z M6.2 10.719999999999999 c0.2 0.04 0 -0.16 0 0 l0 0 z M6.92 10.760000000000002 c0 0.04 -0.04 0 0 0 l0 0 z M6.12 10.8 c0.04 0.04 0 0 0 0 l0 0 z M8.2 10.920000000000002 c0.2 0.04 0 -0.16 0 0 l0 0 z M8.16 11.239999999999998 c0.04 0.2 0.04 -0.2 0 0 l0 0 z M8.88 11.36 c0.04 0 -0.04 -0.04 0 0 l0 0 z M8.84 11.399999999999999 c-0.08 0.28 0.2 0 0 0 l0 0 z M5.88 11.52 c0.04 0.04 0 0 0 0 l0 0 z M8.76 11.96 c0.08 -0.04 0.12 -0.28 0 -0.32 c0 0.16 -0.16 0.24 0 0.32 z M6.28 12.64 c0.16 0.08 0.12 -0.24 0.04 -0.24 c0.04 0.12 -0.04 0.12 -0.04 0.24 z M5.56 12.68 c-0.04 0 -0.04 0.08 -0.04 0.12 c-0.16 0.04 0.04 0.24 0 0 c0.04 0 0.04 -0.08 0.04 -0.12 c0.16 0 -0.04 -0.2 0 0 z M8.2 12.719999999999999 l0.08 0 l0 -0.08 l-0.08 0 l0 0.08 z M6.24 13.04 c0 -0.08 0.2 -0.32 0 -0.32 c0.04 0.16 -0.16 0.24 0 0.32 z M5.08 12.96 l0 0.12 c0.12 0.08 0.16 -0.16 0.04 -0.16 c0 0.04 0 0.08 -0.04 0.04 z M5.4 13.079999999999998 c0.08 0.2 0.08 -0.2 0 0 l0 0 z M8.6 13.280000000000001 c0 -0.04 0.08 -0.24 0 -0.24 c-0.04 0 -0.12 0.2 0 0.24 z M5 13.440000000000001 c-0.08 0.04 0 0.08 0 0 c0.08 -0.04 0.08 -0.2 0.12 -0.28 c-0.12 0 -0.12 0.16 -0.12 0.28 z M6.08 13.52 c0.04 -0.08 0.16 -0.32 0.04 -0.36 c0 0.08 -0.12 0.32 -0.04 0.36 z M8.12 13.2 c0.04 0.2 0.04 -0.16 0 0 l0 0 z M5.32 13.399999999999999 c0 0 0 -0.04 0.04 -0.04 c0 -0.04 0 -0.12 -0.08 -0.08 c0 0.04 0 0.12 0.04 0.12 z M5.24 13.84 c-0.08 -0.16 0.16 -0.32 -0.08 -0.32 c0.04 0.08 -0.04 0.32 0.08 0.32 z M7.96 13.559999999999999 l0 0.08 c0.12 0.08 0.16 -0.16 0.04 -0.12 c0 0 0 0.04 -0.04 0.04 z M4.88 13.8 c-0.04 0.04 0 0.04 0 0 l0.04 0 c-0.04 -0.16 0.08 -0.12 0.08 -0.24 c-0.16 -0.04 -0.08 0.16 -0.12 0.24 z M6 13.84 c0 -0.04 0.12 -0.2 0 -0.2 c0 0.04 -0.12 0.2 0 0.2 z M7.96 13.920000000000002 c0 0 0.12 -0.16 0 -0.16 c0 0 -0.12 0.16 0 0.16 z M4.84 14.079999999999998 c-0.04 -0.08 0.16 -0.16 0 -0.2 c0 0.04 -0.12 0.2 0 0.2 z M5.84 14.04 c0.2 0.04 0 -0.16 0 0 l0 0 z M7.72 14.48 c0.2 0.04 0.04 -0.24 0.24 -0.2 c-0.12 -0.12 0.12 -0.28 -0.08 -0.28 c-0.04 0.16 -0.12 0.28 -0.16 0.48 z M5.04 14.36 c0 -0.08 0.16 -0.36 0 -0.32 c0.04 0.12 -0.16 0.24 0 0.32 z M8.16 14.239999999999998 c0 -0.04 0 -0.08 0.04 -0.08 c0 -0.04 0 -0.08 -0.08 -0.08 c0 0.04 -0.04 0.12 0.04 0.16 z M4.6 14.719999999999999 c-0.16 0.08 0.16 0.12 0 0 l0.04 0 c0.04 -0.16 0.2 -0.4 0.12 -0.56 c-0.08 0.2 -0.12 0.36 -0.16 0.56 z M5.76 14.280000000000001 c0.16 0.16 0.08 -0.16 0 0 l0 0 z M5.76 14.600000000000001 c-0.04 -0.08 0.12 -0.16 0 -0.2 c0 0.04 -0.12 0.2 0 0.2 z M4.88 14.719999999999999 c-0.16 0.08 0.16 0.12 0 0 c0.16 -0.08 -0.04 -0.28 0 0 z M7.72 14.600000000000001 c0.04 0.2 0.04 -0.2 0 0 l0 0 z M4.76 15.079999999999998 c0.12 0.04 0.12 -0.08 0.12 -0.2 c-0.16 -0.04 -0.04 0.16 -0.12 0.2 z M5.6 15 c0.04 0.04 0 -0.04 0 0 l0 0 z M4.36 15.440000000000001 c0.16 -0.12 0.24 -0.28 0.16 -0.44 c-0.04 0.16 -0.12 0.24 -0.16 0.44 z M7.96 15.120000000000001 l0.08 0 l0 -0.08 l-0.08 0 l0 0.08 z M5.56 15.2 c-0.08 0 0 0.04 0 0 c0.08 -0.04 0 -0.08 0 0 z M4.68 15.32 c0.08 0.2 0.08 -0.2 0 0 l0 0 z M7.48 15.440000000000001 c0.04 0 0 -0.04 0 0 l0 0 z M4.6 15.48 l0 0.08 c0.12 0.08 0.16 -0.16 0.04 -0.12 c0 0 0 0.04 -0.04 0.04 z M4.28 16 c-0.04 -0.16 0.32 -0.44 0.04 -0.52 c0.08 0.24 -0.2 0.4 -0.04 0.52 z M5.36 15.68 c0.04 0 0 -0.04 0 0 l0 0 z M7.76 15.719999999999999 c-0.04 0.28 0.04 -0.2 0 0 l0 0 z M4.56 15.760000000000002 l0 0 c0.08 -0.24 -0.12 0.24 0 0 z M4.52 16.08 c0 0 0 -0.04 0.04 -0.04 c0 -0.04 -0.04 -0.12 -0.12 -0.08 c0.04 0.04 0 0.12 0.08 0.12 z M4.08 16.4 c0.12 0 0.2 -0.24 0.08 -0.32 c-0.04 0.08 0 0.24 -0.08 0.32 z M5.24 16.16 c-0.04 0.28 0 -0.2 0 0 l0 0 z M4.32 16.8 c0.04 -0.12 0.16 -0.36 0.04 -0.48 c0.04 0.2 -0.16 0.4 -0.04 0.48 z M3.72 17.52 c-0.24 0.8 -0.64 2.04 -0.76 2.8 c0.28 -0.76 0.76 -2.12 0.76 -2.8 c0.16 -0.28 0.4 -0.72 0.36 -1.08 c-0.2 0.2 -0.28 0.76 -0.36 1.08 z M5.12 16.56 c-0.12 0.16 0.16 -0.08 0 0 l0 0 z M4.2 16.96 l-0.04 0 c-0.08 0.48 -0.24 0.68 -0.28 1.16 c0.16 -0.2 0.32 -0.76 0.32 -1.16 c0.08 -0.04 0 -0.04 0 0 z M4.4 16.96 c-0.04 0.28 0.04 -0.2 0 0 l0 0 z M5 16.96 c0 0.04 -0.04 0 0 0 l0 0 z M5 17.28 c-0.04 -0.04 0 -0.16 -0.08 -0.16 c-0.04 0.04 -0.04 0.16 0.08 0.16 z M4.8 17.68 c0.04 0.04 -0.04 0 0 0 l0 0 z M4.76 17.88 c0 0.04 -0.04 -0.04 0 0 l0 0 z M6.72 18.08 c0.04 0.04 0.04 0 0 0 c-0.04 -0.08 -0.08 0 0 0 z M3.24 20.32 c0.32 -0.68 0.44 -1.36 0.68 -2.12 l-0.12 0 c-0.16 0.84 -0.48 1.44 -0.56 2.12 z M4.56 18.44 c0.16 0.04 0.08 -0.16 0.12 -0.2 c-0.12 -0.04 -0.04 0.16 -0.12 0.2 z M6.56 18.56 c0.04 0 0 -0.04 0 0 l0 0 z M4.4 19.08 c-0.04 0.04 0 0.04 0 0 c0.08 -0.04 0.08 -0.12 0.12 -0.2 c-0.16 -0.04 -0.08 0.12 -0.12 0.2 z M4.28 19.64 c0 0 0.08 -0.2 0 -0.24 c0.04 0.12 -0.16 0.2 0 0.24 z M6.32 19.44 c0.04 0.04 0 0 0 0 l0 0 z M6.24 19.76 c-0.12 0.16 0.16 -0.12 0 0 l0 0 z M4.16 19.84 c-0.04 0.28 0.04 -0.2 0 0 l0 0 z M5.72 20.88 c0 0.08 0.04 0 0 0 c0 -0.08 0.16 -0.08 0.12 -0.24 c-0.12 0 -0.36 -0.08 -0.48 0.08 c0.24 0.08 -0.2 0 -0.04 0.36 c0.12 0 0.12 -0.16 0.32 -0.08 c0 -0.08 0.04 -0.08 0.08 -0.12 z M4.6 20.88 c0 -0.08 -0.08 -0.12 -0.16 -0.16 c-0.2 0.08 -0.32 0 -0.4 0.12 c0.2 -0.04 0.12 0.24 0.4 0.2 c0.08 -0.12 -0.12 -0.2 0 -0.24 c0.04 0.08 0.08 0.08 0.08 0.2 c0.16 0.08 0.52 -0.08 0.36 -0.28 c0 0.24 -0.12 0.04 -0.28 -0.08 c-0.08 0.12 0.16 0.2 0 0.24 z M5.88 20.72 c0.04 0 0 -0.04 0 0 l0 0 z M8.64 21.24 c0.16 0.16 0.08 -0.16 0 0 l0 0 z M5.48 21.32 c0.04 0 0.04 0.04 0.08 0.04 c0 -0.04 0 -0.16 -0.08 -0.12 l0 0.08 z M13.96 21.6 c0 -0.08 -0.04 -0.12 -0.08 -0.12 c0 0.08 -0.04 0.16 0.08 0.12 z M13.68 21.6 l0.08 0 l0 -0.08 l-0.08 0 l0 0.08 z M10.92 21.72 c0.04 -0.12 -0.08 -0.08 -0.12 -0.16 c0 0.12 0.04 0.16 0.12 0.16 z M11.28 21.68 c0.04 0.16 0.04 -0.2 0 0 l0 0 z M4.52 25.2 c0.12 -0.04 0 -0.12 0.12 -0.24 c-0.04 0.04 -0.12 0.04 -0.12 -0.04 c0.16 -0.28 0.44 -0.52 0.28 -0.96 c0.12 -0.04 0.12 0 0.24 -0.08 c0.04 -0.36 0.12 -0.8 0.28 -1 c-0.12 -0.04 -0.16 -0.44 0.04 -0.48 l0 0.08 c-0.12 0 0.04 0.2 0 0 c0.12 -0.12 0.12 -0.48 0 -0.56 c-0.08 0.04 -0.2 0 -0.36 0.04 c-0.2 1.12 -0.76 1.92 -0.88 2.84 c-0.28 0.52 -0.56 1.2 -0.68 1.92 l-0.12 -0.12 c-0.08 0.2 0.08 0.48 0 0.52 c-0.12 0.04 0 -0.2 -0.16 -0.12 c-0.16 0.96 -0.6 1.6 -0.88 2.52 c0.2 -0.12 0.12 -0.12 0.32 0 c0.32 -1 0.88 -1.96 1.2 -2.88 c0.12 0 -0.04 0.24 0.08 0.2 c0 -0.08 0.04 -0.12 0.08 -0.12 c0.04 -0.2 -0.16 -0.12 -0.12 -0.32 c0.12 0.04 0.16 0.12 0.24 0 c-0.12 -0.16 -0.12 -0.52 0.12 -0.32 c0.16 -0.24 -0.16 -0.16 -0.12 -0.44 c0.12 0 0.08 0.12 0.12 0.12 c0.16 -0.16 -0.12 -0.2 0 -0.32 c0.08 0.04 0.12 0.08 0.2 0.12 c0 -0.16 0.08 -0.2 0.12 -0.36 z M3.64 22.04 c-0.68 2.24 -0.96 4.4 -1.72 6.52 c0.16 0.36 -0.28 0.72 -0.04 0.92 c0.96 -2.48 1.96 -5.08 2.68 -7.48 c-0.44 -0.08 -0.64 0.08 -0.92 0.04 z M1.72 24.8 c-0.28 0.44 -0.52 1.08 -0.32 1.48 c0.4 -1.28 0.68 -2.92 1.04 -4.08 l-0.16 0 c-0.2 1.08 -0.52 1.56 -0.56 2.6 z M2.48 22.76 c0.16 -0.04 0.32 -0.48 0.16 -0.52 c-0.08 0.2 -0.12 0.4 -0.16 0.52 z M2.28 23.88 c0.04 -0.4 0.4 -0.88 0.16 -1.08 c0.04 0.4 -0.36 0.76 -0.16 1.08 z M2.12 24.08 c0.2 0.04 0 -0.16 0 0 l0 0 z M2.12 24.32 c0.12 0.04 0.12 -0.24 0 -0.16 l0 0.16 z M2.12 24.48 c0.04 0.2 0.04 -0.16 0 0 l0 0 z M1.88 25.52 c-0.08 0 0 0.04 0 0 l0.04 0 c0.08 -0.2 0.08 -0.48 0.12 -0.68 c-0.16 0.08 -0.2 0.48 -0.16 0.68 z M1.72 26.28 c-0.04 -0.24 0.2 -0.44 0.04 -0.64 c-0.04 0.16 -0.2 0.56 -0.04 0.64 z M1.88 26 c0 0 -0.04 -0.04 0 0 l0 0 z M1.56 26.72 c0 -0.16 0.2 -0.36 0 -0.4 c0 0.12 -0.08 0.24 0 0.4 z M0.56 29.6 c-0.04 0.04 0 0.12 -0.08 0.12 c-0.08 -0.24 -0.16 0.16 0 0 c0.08 0.32 -0.16 0.12 -0.2 0.2 c0.04 0.04 0.12 0.04 0.16 0.08 c-0.24 0.64 -0.48 1.2 -0.4 1.8 c-0.16 0.08 -0.12 0.24 -0.16 0.56 c-0.08 0.08 -0.16 0.4 -0.04 0.6 c-0.08 -0.08 -0.16 -0.04 -0.12 0.08 c0.04 0 0.12 0 0.12 0.04 c0 0.16 -0.2 0.2 -0.24 0.36 c0.04 0.04 0.16 0 0.16 0.08 c-0.16 0 -0.24 0.2 -0.04 0.24 c-0.12 0.08 -0.32 0.32 -0.12 0.44 c-0.08 -0.24 0.28 -0.28 0.12 -0.44 c0 -0.12 0.04 -0.04 0.08 -0.04 c0.28 -1.8 0.56 -2.8 0.76 -4.12 c0.24 -1.2 0.72 -2.08 0.68 -3.24 c-0.16 0.28 -0.16 0.88 -0.32 1.16 c0.2 0.2 -0.28 0.4 -0.08 0.68 c-0.08 0.04 -0.12 -0.16 -0.12 0.04 c0.2 0.28 -0.36 1.04 -0.28 1.36 l0.12 0 z M1.44 26.880000000000003 c0.04 0.04 -0.04 0 0 0 l0 0 z M1.32 27.52 c0.08 -0.24 0.2 -0.32 0.08 -0.52 c0.04 0.2 -0.2 0.36 -0.08 0.52 z M3.72 27.119999999999997 c0.04 -0.04 0.12 -0.08 0 -0.12 c0 0.04 -0.08 0.12 0 0.12 z M3.6 27.48 c-0.12 0.16 0.16 -0.12 0 0 l0 0 z M1.2 27.96 c0.12 0 0.08 -0.16 0.12 -0.24 c-0.12 -0.04 -0.12 0.08 -0.12 0.24 z M1.16 28.08 c0.2 0.08 0 -0.12 0 0 l0 0 z M0.96 29 l-0.04 0 c0 0.28 -0.2 0.36 -0.08 0.6 c-0.2 0.16 -0.12 0.6 -0.24 0.84 c0.28 -0.2 0.12 -0.56 0.24 -0.84 c0.16 -0.08 0.08 -0.32 0.12 -0.6 c0.16 -0.08 0.16 -0.52 0.12 -0.72 c-0.04 0.24 -0.12 0.6 -0.12 0.72 z M2.2 29.759999999999998 c0 -0.04 0.08 -0.08 0 -0.12 c0 0.04 -0.08 0.12 0 0.12 z M2.44 29.68 c0.04 0.04 0 0 0 0 l0 0 z M2.16 30.119999999999997 c0.04 0.2 0.04 -0.2 0 0 l0 0 z M0.6 30.6 c0.04 0.04 0 -0.04 0 0 l0 0 z M0.56 30.8 c0.08 0.16 0.08 -0.2 0 0 l0 0 z M0.36 31.92 c0 -0.2 0.28 -0.56 0.16 -0.84 c-0.04 0.24 -0.24 0.6 -0.16 0.84 z M0.2 32.88 c0.04 -0.28 0.28 -0.56 0.08 -0.8 c-0.04 0.32 -0.16 0.52 -0.08 0.8 z M-0.92 37.04 l0 0 c0.2 0 -0.04 0.28 0 0 z M-0.88 37.6 c0.04 -0.12 0.12 -0.2 -0.04 -0.24 c0.04 0.08 -0.04 0.24 0.04 0.24 z M-0.52 37.6 c0.2 0.04 0 -0.16 0 0 l0 0 z M-0.92 37.8 c0 -0.08 0.08 -0.12 0 -0.16 c0 0.08 -0.08 0.12 0 0.16 z M-0.52 37.8 c0.12 0.2 0.04 -0.16 0 0 l0 0 z M-0.6 38.12 c0.16 0.08 0.16 -0.2 0.08 -0.2 c0 0.12 -0.08 0.12 -0.08 0.2 z M-0.96 38.28 c0.12 0 0.2 -0.08 0.2 -0.2 c-0.12 0 -0.2 0.08 -0.2 0.2 z M-0.6 39.04 c-0.04 0.28 0.04 -0.2 0 0 l0 0 z M-0.64 39.24 c0.08 0.16 0.12 -0.2 0 0 l0 0 z M-0.96 39.6 c-0.04 -0.04 0.04 -0.24 -0.04 -0.24 c-0.04 0.12 -0.12 0.24 0.04 0.24 z M-0.6 39.84 c0 -0.08 0.08 -0.32 -0.08 -0.28 c0.04 0.08 0 0.24 0.08 0.28 z M-0.88 39.92 c-0.04 -0.2 0.12 -0.28 -0.04 -0.32 c0.04 0.16 -0.12 0.28 0.04 0.32 z M-0.64 40.4 c0.04 -0.12 0.08 -0.32 0 -0.44 c-0.04 0.04 -0.08 0.36 0 0.44 z M-0.92 40.04 c0.04 0.2 0.04 -0.2 0 0 l0 0 z M-0.92 40.4 c-0.04 0.2 0.16 0 0 0 c-0.04 -0.12 0.16 -0.16 0 -0.2 c0 0.04 -0.08 0.04 -0.08 0.08 c0.04 0.04 0 0.12 0.08 0.12 z M-0.64 41.2 c-0.04 -0.24 0.08 -0.56 -0.04 -0.72 c0.04 0.32 -0.12 0.52 0.04 0.72 z M-0.88 40.8 c0 -0.04 0.08 -0.24 -0.04 -0.24 c-0.08 0.08 -0.08 0.24 0.04 0.24 z M-0.96 41.04 c-0.04 0.32 0.04 -0.16 0 0 l0 0 z M-0.68 41.28 c-0.08 0.48 0.16 0.52 0 0 l0 0 z M9.32 8.879999999999999 l0 0 c-0.04 0.32 0 -0.16 0 0 z M9.24 9.239999999999998 c0.08 -0.16 0.16 0.16 0 0 l0 0 z M8.64 10 c-0.08 0 -0.04 0.08 0 0.08 l0 -0.08 z M9.16 10.280000000000001 c-0.04 -0.36 0.16 -0.16 0 0 l0 0 z M9.16 10.280000000000001 c0 0.08 -0.08 0.04 0 0 l0 0 z M6.76 11.280000000000001 l0.04 0 c0 0.08 0.04 0.2 -0.04 0.2 l0 -0.2 z M8.92 12.120000000000001 c0 -0.08 0.08 -0.04 0 0 l0 0 z M7.96 12.36 c0.08 -0.16 0.16 0.16 0 0 l0 0 z M7.92 12.48 c0.16 0.2 -0.12 0.28 0 0 l0 0 z M7.8 12.8 c0.08 0 0.12 0.04 0.12 0.12 c-0.12 0.04 -0.08 -0.04 -0.12 -0.12 z M7.64 13.64 c0 -0.12 0.2 0.04 0 0 l0 0 z M7.52 14.079999999999998 c-0.04 -0.2 0.16 0 0 0 l0 0 z M7.52 14.079999999999998 c0.04 0.2 -0.12 0 0 0 l0 0 z M7.08 15.559999999999999 c0.08 -0.2 0.08 0.2 0 0 l0 0 z M6.84 16.08 l0.12 0 l0 0.2 l-0.12 0 l0 -0.2 z M6.72 16.68 l0 0 c0.04 0.04 -0.04 -0.04 0 0 z M6.48 17.64 l0 0 c0.04 0.04 -0.04 -0.04 0 0 z M6.32 18.8 l0.12 0 l0 0.08 c-0.04 0 -0.04 0.04 -0.08 0.04 l-0.08 0 l0 -0.08 c0.04 0 0.04 -0.04 0.04 -0.04 z M8.24 20.8 c-0.32 0.16 -0.24 -0.12 0 0 l0 0 z M9.16 21.2 c-0.12 -0.08 -0.16 -0.2 -0.2 -0.36 c0.12 0.08 0.16 0.2 0.2 0.36 z M10.44 20.88 c0.08 -0.16 0.16 0.16 0 0 l0 0 z M10.76 20.88 c0.2 0.04 0.32 0.08 0.36 0.24 c-0.2 0 -0.24 -0.24 -0.32 0 c-0.16 0.08 -0.08 -0.2 -0.04 -0.24 z M12.32 20.96 c0.16 -0.04 0.04 0.16 0.16 0.16 c-0.08 0.16 -0.12 -0.12 -0.16 -0.16 z M9.72 21.04 l0 0 c0.04 0.04 0 0 0 0 z M9.88 21 c0.08 0 0.12 0.04 0.2 0.04 c0 0.08 -0.28 0.08 -0.2 -0.04 z M12.92 21.04 c0 -0.04 0.08 -0.04 0.12 -0.04 l0 0.12 c-0.04 0 -0.08 -0.08 -0.12 -0.08 z M13.2 21 c0.12 0 0.12 0.16 0.04 0.24 c-0.12 0 0 -0.16 -0.04 -0.24 z M10.32 21.08 c0.08 -0.16 0.16 0.16 0 0 l0 0 z M10.52 21.08 c0.04 -0.2 0.04 0.2 0 0 l0 0 z M11.28 21.08 c0.04 -0.2 0.04 0.2 0 0 l0 0 z M12.6 21.04 c0.04 0.04 0.08 0.04 0.16 0.04 c0 0.08 -0.16 0.04 -0.16 0.16 c-0.12 -0.04 0.08 -0.12 0 -0.2 z M12.24 21.12 l0 0 c-0.04 -0.04 -0.08 0.04 0 0 z M12.24 21.12 l0 0 c0.04 0.08 0.04 0 0 0 z M13.72 21.2 c0.08 -0.16 0.12 0.16 0 0 l0 0 z M14.44 21.2 c0.08 0 0.12 0.08 0.08 0.16 c-0.08 0 -0.08 -0.08 -0.08 -0.16 z M14.64 21.2 c0.04 0 0.08 0.08 0.08 0.16 c-0.08 0 -0.08 -0.08 -0.08 -0.16 z M16.76 21.52 c0.04 -0.2 0.04 0.2 0 0 l0 0 z M15.6 21.72 c0.04 -0.2 0.04 0.2 0 0 l0 0 z M15.36 21.8 c0 -0.12 0.2 0.04 0 0 l0 0 z M4.84 23.68 c0.12 -0.12 0 0.44 0 0 l0 0 z M4.36 24.32 c0 -0.16 0.2 0.04 0 0 l0 0 z M4.52 25.2 c-0.08 0 -0.12 -0.08 -0.08 -0.08 s0.08 0.04 0.08 0.08 z M3.44 26.8 l0 0 c0.04 0.04 0 0 0 0 z M2.52 29.240000000000002 l0 0 c0.04 0.04 0 0 0 0 z M0.04 31.560000000000002 c0.04 -0.2 0.04 0.2 0 0 l0 0 z M0 32.04 l0 0 c0.04 0.04 -0.04 -0.04 0 0 z M-0.12 32.36 c0.08 0 0.04 0.08 0 0 l0 0 z M-0.96 36.84 l0 0 c0.04 0.04 -0.04 -0.04 0 0 z M-1 42.36 l0 0.12 c-0.08 0 -0.12 -0.04 -0.12 -0.12 l0.12 0 z M13.240000000000002 36.24 c0.04 0 0.04 -0.04 0.04 -0.04 c-0.04 -0.08 -0.04 0 -0.04 0.04 c-0.16 0.12 -0.48 0.2 -0.44 0.36 c-0.16 0.2 -0.4 0.2 -0.64 0.36 c-1.64 1.04 -3.72 4.48 -6.04 3.56 c-0.08 -0.28 -0.24 -0.48 -0.32 -0.72 c0 -0.2 -0.16 0.08 -0.16 -0.08 c-0.12 -0.2 -0.2 -0.4 -0.32 -0.6 c0.56 -2.8 2.08 -4.64 3.56 -6.6 c0.56 -0.44 1.24 -0.96 2.16 -0.96 c0.88 0.2 1.92 0.48 2.08 1.56 c0.08 0.6 -0.16 1 -0.4 1.4 c0.32 0 0.68 -0.32 1.2 -0.24 c0.72 0.28 0.84 1.76 0.32 2.28 c0.36 0.6 -0.36 1.48 -0.08 2.16 c4 -0.64 6.24 -3.48 8.68 -5.84 c-0.28 2.12 -2.44 3.2 -3.84 4.64 c-0.92 0.52 -1.6 1 -2.6 1.44 c0.08 0.12 0.24 -0.12 0.4 -0.08 c-0.04 0.12 -0.2 0.08 -0.2 0.2 c1.64 -0.56 2.68 -1.92 4.08 -2.56 c-0.04 -0.12 -0.16 0.04 -0.24 0 c0.08 -0.12 0.2 -0.36 0.28 -0.08 c0.12 -0.28 0.56 -0.76 1.12 -0.88 c-1.72 2.08 -3.92 3.48 -6.56 4.72 c-0.36 0.04 -0.64 -0.08 -1 -0.08 c-0.6 -0.2 -0.8 -0.52 -1.08 -1.04 c-0.04 -0.8 -0.08 -2.04 0.04 -2.92 z M6.880000000000001 39 c2.04 -1 3.32 -2.68 4.96 -4.08 c-0.32 -0.28 -0.12 -1.24 -0.2 -1.6 c-2.64 0.84 -3.6 3.36 -4.76 5.68 z M22.36 33.8 c0.04 0.16 0.12 -0.2 0 0 l0 0 z M22.12 34.08 c0.08 0.08 0.16 -0.04 0.2 -0.16 c-0.12 0.04 -0.24 0.04 -0.2 0.16 z M17.28 37.88 c-0.04 -0.08 -0.12 -0.08 -0.12 0 c-0.12 -0.04 -0.16 0.04 -0.2 0.12 c0.12 0 0.16 -0.08 0.2 -0.12 l0.12 0 c-0.08 0.16 -0.28 0.2 -0.44 0.28 c0 -0.08 0.2 -0.16 0 -0.16 c-0.08 0.16 -0.16 0.4 -0.4 0.2 c-0.04 0.12 -0.16 0.32 0 0.32 c2.16 -1.12 4.24 -2.6 5.64 -4.4 c-1.56 1.32 -3 2.72 -4.8 3.76 z M12.560000000000002 35.16 c-0.16 0.24 0.28 0.08 0 0 l0 0 z M12.240000000000002 35.480000000000004 c0.04 0.08 0.32 -0.08 0.16 -0.16 c0 0.12 -0.2 0 -0.16 0.16 z M12 35.72 c-0.12 -0.04 -0.2 0.16 -0.12 0.16 c0 -0.08 0.12 -0.04 0.12 -0.16 c0.04 0 0.04 0.04 0.08 0.04 c0.04 -0.04 0.04 -0.08 0.04 -0.16 c-0.08 0 -0.12 0.04 -0.12 0.12 z M12.240000000000002 35.84 c0 0.04 -0.04 0 0 0 l0 0 z M11.080000000000002 36.48 c-0.12 0.16 0.16 -0.12 0 0 l0 0 z M10.920000000000002 36.6 c0.04 0.04 0 0 0 0 l0 0 z M12.560000000000002 36.6 c0.24 0.08 0.04 -0.12 0 0 l0 0 z M12.360000000000001 36.76 c0.2 0.04 0 -0.16 0 0 l0 0 z M16.64 38.2 c0.04 0.04 -0.04 0 0 0 l0 0 z M6.600000000000001 38.28 c0.2 0.08 0 -0.12 0 0 l0 0 z M6.5600000000000005 38.52 c-0.08 0.12 -0.28 0.36 -0.2 0.44 c0.08 -0.12 0.2 -0.2 0.2 -0.44 c0.08 0 0 -0.04 0 0 z M16.080000000000002 39.16 c0.08 -0.04 0.24 -0.04 0.28 -0.16 c-0.16 0 -0.32 0 -0.28 0.16 z M6.320000000000001 39.12 c-0.12 0.16 0.16 -0.12 0 0 l0 0 z M16.16 39.32 c0.16 -0.08 0.36 -0.08 0.4 -0.24 c-0.16 0.04 -0.32 0.08 -0.4 0.24 z M6.320000000000001 39.32 c0.08 -0.16 -0.2 -0.16 -0.2 -0.08 c0.08 0 0.12 0.08 0.2 0.08 z M22.16 34.92 c0.12 0.08 -0.04 0.24 -0.16 0.2 c0.04 -0.08 0.16 -0.08 0.16 -0.2 z M22.080000000000002 35.28 c0.04 0.16 -0.28 0.24 -0.24 0.04 c0.08 0.04 0.08 -0.08 0.24 -0.04 z M21.6 35.36 c0.04 -0.16 0.04 0.2 0 0 l0 0 z M17.12 38.72 c0 0.12 -0.16 0.08 -0.16 0.16 c-0.12 -0.04 0.08 -0.16 0.16 -0.16 z M31.28 35.16 c0 0.04 0 0.12 0.08 0.12 c0.04 0 0.04 -0.04 0.08 -0.04 c0.04 -0.12 -0.08 -0.08 -0.16 -0.08 c1.08 -1 2.24 -1.8 3.32 -2.76 c0.04 0.08 0.08 0.16 0.2 0.16 c-0.2 0.68 -0.44 1.2 -1.04 1.48 c-0.08 0.16 0.08 0.08 0.16 0.08 c-0.16 0.24 -0.4 0.56 -0.6 0.48 c-0.12 0.04 0.04 0.08 0 0.2 c-0.44 0.16 -0.68 0.28 -0.88 0.72 c-0.56 0.04 -1 0.6 -1.48 0.88 c0.36 0.2 0.48 -0.44 0.96 -0.44 c0.04 0.12 -0.08 0.08 -0.08 0.2 c0.12 0 0.12 -0.16 0.32 -0.12 c0 -0.16 -0.12 -0.16 -0.04 -0.32 c0.36 0.16 0.48 -0.32 0.84 -0.32 l0 0.28 c-0.24 0 -0.4 0.32 -0.6 0.2 c0 0.08 0.04 0.16 0.08 0.16 c-0.92 0.96 -2.32 1.68 -3.32 2.48 c-0.04 0 -0.04 -0.08 -0.08 -0.12 c-1.56 1.44 -3.56 2.44 -5.04 3.96 c0.12 1.8 0.84 3.76 0.56 5.8 c-0.16 0.68 -0.56 1.52 -1 2.2 c-0.84 0.72 -2.2 1.68 -3.68 1.16 c-1.08 -0.64 -1.6 -1.84 -1.96 -3.16 c-0.08 -0.56 -0.16 -0.96 0 -1.44 c0.92 -2.4 2.72 -4.08 4.48 -5.84 c0.04 -0.44 -0.08 -0.84 -0.04 -1.32 l0.16 0 c-0.2 -1.4 0.08 -2.84 0.12 -4.72 c0.64 -1.36 0.92 -2.76 2.12 -3.56 c0.76 0.32 1.64 0.72 1.36 1.64 c-0.52 -0.04 -0.76 0.2 -1 0.4 c-1.16 2.36 -1.48 4.12 -1.2 6.76 c1.6 -1.04 3.24 -2.4 4.84 -3.28 c0 -0.08 -0.08 -0.08 -0.04 -0.16 c0.48 -0.16 0.6 -0.64 1.24 -0.68 c0 -0.08 -0.08 -0.12 0 -0.16 c0.16 0 0 0.04 0.04 0.16 c0.48 -0.36 0.64 -0.8 1.28 -1 z M34.16 33 c0.04 0 0 -0.04 0 0 l0 0 z M34.04 33.28 c-0.04 -0.16 0.08 -0.16 0.08 -0.24 c-0.16 -0.04 -0.24 0.2 -0.08 0.24 z M33.760000000000005 33.36 c-0.12 0.16 0.16 -0.12 0 0 l0 0 z M33.56 33.519999999999996 c-0.08 0.04 0 0.04 0 0 c0.04 -0.04 0 -0.08 0 0 z M33.88 33.64 c0.12 0.04 0.24 -0.12 0.12 -0.12 c-0.04 0.08 -0.16 0.04 -0.12 0.12 z M33.56 33.84 c0 0.08 0 0.12 0.04 0.16 c-0.28 0.08 -0.36 0.2 -0.52 0.44 c0.4 -0.08 0.6 -0.52 0.72 -0.64 c-0.04 -0.12 -0.16 0.04 -0.24 0.04 z M32.88 34.04 c-0.2 0.12 -0.4 0.24 -0.52 0.44 c0.2 -0.12 0.4 -0.24 0.52 -0.44 c0.08 0.04 0.2 -0.12 0.08 -0.16 c0 0.08 -0.08 0.08 -0.08 0.16 z M32.96 34.519999999999996 c0.08 0.2 0.08 -0.2 0 0 l0 0 z M32.480000000000004 34.96 c0.08 -0.12 0.2 0.04 0.36 0 c-0.16 -0.2 0 -0.2 0.04 -0.4 c-0.16 0.08 -0.52 0.2 -0.4 0.4 z M31.64 35 c-0.08 0.04 0 0.04 0 0 c0.16 -0.04 0.24 -0.16 0.36 -0.24 c-0.08 -0.08 -0.32 0.12 -0.36 0.24 z M32.120000000000005 35.08 c0.12 0.04 0.08 0.2 0.24 0.16 c0 -0.16 -0.12 -0.16 -0.2 -0.24 c0 0.04 -0.04 0.04 -0.04 0.08 z M31.44 35.64 c0.32 0.04 0.44 -0.48 0.68 -0.2 c0.04 -0.68 -0.6 0 -0.68 0.2 z M30.96 35.480000000000004 c0.08 0 0.12 -0.04 0.16 -0.08 c-0.12 0 -0.16 0.04 -0.16 0.08 z M30.8 35.56 c-0.16 -0.12 -0.12 0.2 0 0 l0 0 z M31.04 35.96 c-0.2 0 -0.32 0.12 -0.36 0.28 c-0.52 0.04 -0.8 0.32 -1.08 0.6 c0.16 0.08 0.2 -0.04 0.32 0.08 c0.08 -0.32 0.36 -0.48 0.72 -0.56 c-0.4 0.88 -1.32 1 -1.88 1.76 c0.6 -0.36 1.24 -0.68 1.72 -1.2 c-0.12 -0.08 -0.16 0.2 -0.2 0.04 c0.16 -0.16 0.72 -0.16 0.64 -0.44 c-0.04 0.2 -0.2 0.04 -0.2 -0.08 c0.12 -0.12 0.44 -0.28 0.32 -0.48 c0.2 0 0.28 -0.24 0.4 -0.16 c-0.04 -0.28 -0.32 -0.04 -0.44 0 c0 0.08 0.04 0.08 0.04 0.16 z M31.200000000000003 36 c0.04 0.2 0.04 -0.2 0 0 l0 0 z M32.2 36 c0.08 0.2 0.08 -0.2 0 0 l0 0 z M31.44 36.44 c0.04 0.04 -0.04 0 0 0 l0 0 z M29.240000000000002 36.68 c0.16 0 0.2 -0.16 0.28 -0.24 c-0.16 0.04 -0.28 0.08 -0.28 0.24 z M30.200000000000003 36.72 l0.08 0 l0 -0.08 l-0.08 0 l0 0.08 z M29.12 36.76 c0.04 0.04 0 0 0 0 l0 0 z M28.880000000000003 36.88 c0.2 0.04 0.04 -0.16 0 0 l0 0 z M29.32 37.08 c0.16 0 0.28 -0.04 0.24 -0.2 c-0.12 0 -0.24 0.04 -0.24 0.2 z M29.72 37 c0.04 0.16 0.12 -0.16 0 0 l0 0 z M25.400000000000002 40.44 c0.24 -0.04 0.24 -0.36 0.44 -0.44 c0.04 0.08 -0.16 0.16 0 0.2 c0 -0.12 0.16 -0.04 0.12 -0.2 l-0.12 0 c0.08 -0.16 -0.2 -0.36 0.12 -0.4 c0.08 0.08 0 0.16 -0.04 0.24 c0.16 -0.08 0.24 -0.08 0.16 0.12 c0.4 -0.2 0.68 -0.56 1.08 -0.72 c0 -0.16 -0.24 -0.12 -0.28 -0.24 c0.08 -0.12 0.16 -0.24 0.32 -0.24 c0.04 0.08 -0.24 0.16 -0.08 0.28 c0.52 0.08 0.68 -0.48 1.16 -0.6 c-0.08 -0.16 0.12 -0.28 0.12 -0.52 c0.24 -0.04 0.8 -0.48 0.88 -0.68 c0 0.12 -0.12 0.12 -0.16 0 c0 -0.12 0.2 -0.04 0.16 -0.16 c-0.32 0.16 -0.68 0.24 -0.8 0.56 c0 0.08 0.12 0 0.12 0.08 c-0.08 0.04 -0.12 0.12 -0.28 0.12 c-0.24 -0.2 -1 0.36 -1.2 0.68 c0.08 0 0.24 -0.08 0.24 0.04 c-0.08 0 -0.08 0.08 -0.16 0.08 c-0.08 -0.04 -0.16 -0.12 -0.32 -0.08 c-0.12 0.08 -0.16 0.48 -0.28 0.36 c0 -0.08 0.12 -0.04 0.08 -0.16 c-0.36 0.2 -1.16 0.6 -0.96 0.96 c-0.64 -0.24 -0.96 0.4 -0.96 1 c0.2 0.04 0.08 -0.24 0.28 -0.2 c0 0.12 -0.08 0.16 0.08 0.2 c0.08 -0.08 0.12 -0.2 0.28 -0.2 l0 -0.08 z M29.44 37.16 c-0.12 0.16 0.16 -0.12 0 0 l0 0 z M29.76 37.2 c-0.12 0.16 0.16 -0.12 0 0 l0 0 z M28.48 38.08 c0 0.04 -0.04 -0.04 0 0 l0 0 z M28.52 38.2 c-0.12 0.16 0.16 -0.08 0 0 l0 0 z M22.560000000000002 41 c0.04 -0.24 0 -0.68 -0.08 -0.92 c0.04 0.36 -0.04 0.68 0.08 0.92 z M24.44 40.36 l0.08 0 l0 -0.08 l-0.08 0 l0 0.08 z M24 40.56 c-0.04 0.36 0.28 0.36 0.04 0.64 c0.12 -0.04 0.16 0 0.16 0.12 c0.28 -0.12 0.68 -0.4 0.72 -0.6 c-0.08 0.08 -0.12 0.16 -0.24 0.2 c0 -0.24 0 -0.32 -0.12 -0.44 c-0.08 0.12 0.08 0.2 -0.04 0.28 c-0.04 0 -0.08 -0.2 -0.12 -0.04 c0.08 0.04 -0.04 0.28 -0.12 0.28 c0 -0.12 -0.12 -0.16 -0.12 -0.28 c0.12 -0.04 0.16 -0.24 0.24 -0.36 c-0.2 0.04 -0.24 0.16 -0.4 0.2 z M24.28 40.72 c0.04 0.04 0 -0.04 0 0 l0 0 z M24.080000000000002 41.44 c0.04 0.04 0 -0.04 0 0 l0 0 z M22.080000000000002 41.88 c-0.12 -0.04 -0.16 0.04 -0.2 0.12 c0.12 0 0.16 -0.08 0.2 -0.12 c0.12 0 0.16 -0.08 0.2 -0.16 c-0.12 0 -0.16 0.08 -0.2 0.16 z M21.68 42.28 c0 -0.04 0.12 -0.04 0.12 -0.12 l-0.16 0 c0 0.04 0 0.12 0.04 0.12 z M20.92 42.84 l0 0.08 l0.16 0 l0 -0.16 l-0.12 0 c0 0.04 0 0.08 -0.04 0.08 z M20.400000000000002 43.6 l0.08 0 c0 0.04 0.04 0.04 0.08 0.04 c-0.04 -0.24 0.2 -0.28 0.24 -0.48 c-0.2 0.08 -0.36 0.2 -0.4 0.44 z M19.36 49.6 c0.72 0.56 1.84 -0.08 2.52 -0.4 c1.52 -1.12 1.72 -3.92 1.16 -5.96 c0 0 0 -0.04 -0.04 -0.04 c-1.56 1.6 -3.6 3.32 -3.64 6.4 z M20.36 43.68 c-0.12 0.16 0.16 -0.12 0 0 l0 0 z M19.72 44.4 c0.24 -0.12 0.56 -0.4 0.48 -0.68 c-0.12 0.28 -0.4 0.36 -0.48 0.68 z M19.64 44.56 c0.04 0.04 -0.04 -0.04 0 0 l0 0 z M19.48 44.68 c0.04 0.04 0 0 0 0 l0 0 z M19.200000000000003 45.16 c0.16 -0.04 0.24 -0.16 0.28 -0.36 c-0.2 0 -0.2 0.24 -0.28 0.36 z M19 45.32 c0.24 0.08 -0.04 0.08 -0.04 0.24 c0.2 0 0.2 -0.16 0.24 -0.32 c-0.12 -0.04 -0.2 0 -0.2 0.08 z M18.880000000000003 45.76 c0.08 0 0.12 -0.04 0.12 -0.12 c-0.08 0.04 -0.16 0 -0.12 0.12 z M18.64 46.2 c0.12 0.04 0.12 -0.28 0.04 -0.24 c0.04 0.12 -0.08 0.12 -0.04 0.24 z M22.8 49.16 c0.04 0.04 -0.04 0 0 0 l0 0 z M23.52 50.16 c0.04 0.04 -0.04 0 0 0 l0 0 z M34.04 34.519999999999996 c-0.04 0.16 -0.2 0.2 -0.28 0.28 c-0.08 -0.24 0.16 -0.2 0.28 -0.28 z M33.760000000000005 34.92 c-0.08 0.32 -0.36 0.44 -0.68 0.52 c-0.16 -0.36 0.36 -0.44 0.68 -0.52 z M32.32 35.64 l0 0 s-0.04 -0.04 0 0 z M31.92 35.92 l0 0 c0.04 0.04 -0.04 -0.04 0 0 z M28.8 37.48 c0.16 -0.08 -0.12 0.16 0 0 l0 0 z M28.32 38.08 c0 0.16 -0.44 0.16 -0.28 0.32 c0 0.12 -0.24 0 -0.16 0.16 c-0.24 -0.2 0.24 -0.4 0.44 -0.48 z M27.68 38.2 c0.12 -0.16 0.08 0.16 0 0 l0 0 z M26.880000000000003 38.64 l0.08 0 l0 0.12 l-0.08 0 l0 -0.12 z M26.400000000000002 39.08 c-0.08 0.24 -0.32 0.36 -0.52 0.48 c0.12 -0.2 0.32 -0.36 0.52 -0.48 z M26.72 39.12 l0 0 c0.04 0.04 0 0 0 0 z M26.560000000000002 39.48 c-0.04 0.04 -0.08 0.08 -0.16 0.08 c-0.04 -0.12 0.08 -0.08 0.16 -0.08 z M25.52 39.84 l0 0 c0.04 0.04 0 0 0 0 z M25.28 39.88 c0.24 -0.24 -0.16 0.2 0 0 l0 0 z M25.52 39.96 c0.04 -0.04 0.04 0 0.08 0.04 l0 0.08 c-0.12 -0.08 -0.12 0.04 -0.2 -0.04 c0 -0.08 0.12 0 0.12 -0.08 z M24.96 40.24 l0 -0.16 c0.08 0 0.12 0.08 0.08 0.2 c-0.04 0 -0.04 -0.04 -0.08 -0.04 z M25.400000000000002 40.44 c-0.12 -0.04 -0.32 -0.2 -0.16 -0.32 c0.12 0.04 0.16 0.16 0.16 0.32 z M24.96 40.24 c0 0.04 -0.04 0.08 -0.04 0.12 c-0.12 0.04 -0.08 -0.2 0.04 -0.12 z M44.68000000000001 12.120000000000001 c-0.2 0.68 -0.16 1.56 -0.64 1.96 c-0.16 2.16 -1.2 4.24 -1.6 6.16 c0.92 0.12 2.16 0.08 3.16 0.04 c2.4 0.36 5.32 -0.16 7.68 1.16 c-0.2 0.08 -0.36 -0.04 -0.52 0.08 c-3 -1.08 -7.2 -0.56 -10.16 -1 c-0.2 0.04 -0.36 0.2 -0.4 0.44 c0 0.2 0.4 0.04 0.48 0.24 c0.04 -0.16 0.08 -0.36 0.16 -0.32 c0 0.2 0.48 0.36 0.64 0.08 c0.44 0.2 0.76 0.04 1.12 0.04 c0.12 0.04 0.08 0.2 0.16 0.28 c0.12 0 0.16 -0.04 0.16 -0.08 c0.08 0 0.04 0.08 0.08 0.08 c0.12 0 0.04 -0.16 -0.04 -0.16 c0 -0.12 0.16 0 0.16 0.08 c0.12 -0.04 -0.04 -0.16 0 -0.24 c0.48 0.6 1.32 0.12 1.88 0.4 c0.04 0 0.04 -0.04 0.04 -0.12 c0.24 0.16 0.28 -0.08 0.56 0.08 c0.12 -0.12 -0.24 -0.12 -0.24 -0.28 c0.16 0.08 0.4 0.04 0.44 0.04 c0.12 0.2 -0.08 0 -0.08 0.12 c0.52 0.36 1.24 0 1.8 0.24 c0.12 -0.04 0.2 -0.12 0.24 -0.24 c0.12 0.04 0 0.32 0.2 0.28 c0.12 -0.04 -0.08 -0.12 -0.04 -0.24 c0.12 0.16 0.36 0.28 0.28 0.48 c0.24 0 0.16 -0.08 0.16 -0.24 c0.16 0.16 0.36 -0.12 0.4 0.04 c0.12 0 0.04 -0.16 0.08 -0.24 c0.32 0.24 1 -0.08 1.6 0.24 c-0.4 0.12 -0.84 0.16 -1.32 0 c-0.16 0.08 -0.12 0.36 -0.36 0.32 c-0.16 0.04 -0.12 -0.16 -0.16 -0.24 c-0.12 0.28 -0.68 0.04 -0.64 0.36 c-0.2 0.04 -0.08 -0.24 -0.24 -0.24 c0 0.24 -0.12 0.12 -0.4 0.2 c0 -0.12 0.08 -0.12 0.16 -0.12 c0 -0.12 -0.28 -0.16 -0.2 0.04 c-0.12 -0.04 -0.08 -0.2 -0.28 -0.16 c-0.16 0 -0.16 0.12 -0.24 0.24 c-2.24 -0.28 -5.08 -0.2 -6.72 -0.12 c-0.2 0.08 -0.08 0.48 -0.32 0.48 c0 1.16 -0.72 2.2 -0.88 3.32 c-0.56 1.6 -1.36 3.68 -1.96 5.36 c-0.8 2.32 -2.4 3.84 -2.68 6.24 c0 0.56 0 1.04 -0.16 1.6 c0.04 0.68 0.08 1.44 -0.08 2.12 c0.04 1.92 0.2 4.12 1.52 5.24 c-1.96 -0.24 -2.4 -2.12 -2.72 -3.8 c-0.08 -0.88 -0.24 -2.16 -0.12 -3.16 c0.12 0 0.04 0.16 0.16 0.12 c0 -0.32 -0.08 -0.76 0.08 -0.96 c-0.24 0.12 -0.12 0.36 -0.2 0.52 c0 -0.72 -0.08 -1.4 0.24 -1.96 c-0.04 -0.56 0.04 -1.24 -0.32 -1.72 c0.2 -0.24 0.32 -0.56 0.56 -0.76 c0.6 -4.56 1.52 -7.92 2.64 -12.16 c-1.36 -0.24 -3.04 0.96 -4.24 0.16 c-0.2 -0.88 0 -1.88 1 -1.64 c1.08 -0.28 2.4 -0.28 3.8 -0.48 c0.64 -2 1.36 -4.64 2.08 -6.92 c0.76 -2.36 1.2 -5 2.96 -6.36 c1.56 0.12 1.8 1.88 1.36 3.4 c0.16 0.16 0.16 0.2 0.12 0.48 c0.08 0 0.04 -0.16 0.08 -0.2 c0.2 0.48 -0.36 0.88 -0.24 1.28 c-0.04 0 -0.04 -0.04 -0.12 -0.04 c-0.04 0.08 0 0.32 0.04 0.16 l0.04 0 z M42.68000000000001 11.120000000000001 c-0.08 -0.28 -0.2 0.16 0 0 c-0.04 0.08 -0.04 0.16 -0.12 0.16 c0 -0.12 -0.04 -0.08 -0.04 0 l-0.04 0 c-0.08 0.08 -0.08 0.2 -0.04 0.32 c-0.08 0 -0.04 0.04 -0.08 0.08 l-0.04 0 c0.04 0.24 -0.24 0.44 -0.08 0.64 c0.04 -0.24 0.16 -0.36 0.12 -0.64 c0.08 0 0.04 -0.04 0.08 -0.08 l0.04 0 c0 -0.08 0 -0.12 0.04 -0.12 c-0.76 2.72 -1.8 5.92 -2.6 8.8 c0.44 0.08 0.56 -0.04 0.96 0 c1.08 -4 2.6 -7.64 2.84 -11.56 c-0.44 0.68 -0.76 1.52 -1.04 2.4 z M44.400000000000006 9.120000000000001 c-0.16 0.16 0.16 0.16 0 0 l0 0 z M41.84 20.16 c-0.12 0.04 0.04 0.2 0 0 c0.2 -0.16 0 -0.24 -0.04 -0.4 c0.08 -0.24 0.28 -0.4 0.24 -0.72 c0.12 -0.08 0.16 0 0.28 -0.12 l0 -0.28 c-0.04 0 -0.12 0 -0.12 -0.04 c0.12 -0.24 0.08 -0.64 0.28 -0.76 c0 0.04 0 0.08 0.04 0.08 c0.04 -0.2 0.32 -0.4 0.16 -0.64 c-0.12 0.12 -0.04 0.36 -0.16 0.4 c-0.08 -0.24 0.12 -0.52 0.2 -0.72 c0.08 0 0 0.16 0.08 0.16 c0.2 -0.56 0.36 -0.92 0.48 -1.64 c-0.28 0.32 -0.28 1.2 -0.56 1.32 c0.56 -2.16 1.4 -4.4 1.68 -6.72 c0.04 0 0.04 -0.08 0 -0.08 c-0.08 -0.2 0.08 -0.24 0.12 -0.32 c-0.08 -0.04 -0.16 -0.12 -0.08 -0.2 c-0.28 0.68 -0.36 1.52 -0.44 2.2 c-0.08 0.04 -0.12 -0.04 -0.2 -0.04 c0 0.12 0.08 0.16 0.08 0.28 c-0.24 0.2 -0.56 1.04 -0.32 1.44 c-0.12 0.08 -0.16 -0.04 -0.28 0.04 c-0.44 2.32 -1.56 4.84 -1.96 6.92 c0.28 0.04 0.36 -0.16 0.48 -0.28 c0 0.08 0.04 0.08 0.04 0.12 z M42.84 10.399999999999999 c-0.04 0 0.04 0.04 0 0 c0.2 -0.08 -0.12 -0.16 0 0 z M41.96000000000001 10.719999999999999 c0.2 0.04 0 -0.16 0 0 l0 0 z M42.68000000000001 10.760000000000002 c0 0.04 -0.04 0 0 0 l0 0 z M41.88 10.8 c0.04 0.04 0 0 0 0 l0 0 z M43.96000000000001 10.920000000000002 c0.2 0.04 0 -0.16 0 0 l0 0 z M43.92 11.239999999999998 c0.04 0.2 0.04 -0.2 0 0 l0 0 z M44.64000000000001 11.36 c0.04 0 -0.04 -0.04 0 0 l0 0 z M44.60000000000001 11.399999999999999 c-0.08 0.28 0.2 0 0 0 l0 0 z M41.64000000000001 11.52 c0.04 0.04 0 0 0 0 l0 0 z M44.52 11.96 c0.08 -0.04 0.12 -0.28 0 -0.32 c0 0.16 -0.16 0.24 0 0.32 z M42.040000000000006 12.64 c0.16 0.08 0.12 -0.24 0.04 -0.24 c0.04 0.12 -0.04 0.12 -0.04 0.24 z M41.32000000000001 12.68 c-0.04 0 -0.04 0.08 -0.04 0.12 c-0.16 0.04 0.04 0.24 0 0 c0.04 0 0.04 -0.08 0.04 -0.12 c0.16 0 -0.04 -0.2 0 0 z M43.96000000000001 12.719999999999999 l0.08 0 l0 -0.08 l-0.08 0 l0 0.08 z M42.00000000000001 13.04 c0 -0.08 0.2 -0.32 0 -0.32 c0.04 0.16 -0.16 0.24 0 0.32 z M40.84 12.96 l0 0.12 c0.12 0.08 0.16 -0.16 0.04 -0.16 c0 0.04 0 0.08 -0.04 0.04 z M41.160000000000004 13.079999999999998 c0.08 0.2 0.08 -0.2 0 0 l0 0 z M44.36000000000001 13.280000000000001 c0 -0.04 0.08 -0.24 0 -0.24 c-0.04 0 -0.12 0.2 0 0.24 z M40.760000000000005 13.440000000000001 c-0.08 0.04 0 0.08 0 0 c0.08 -0.04 0.08 -0.2 0.12 -0.28 c-0.12 0 -0.12 0.16 -0.12 0.28 z M41.84 13.52 c0.04 -0.08 0.16 -0.32 0.04 -0.36 c0 0.08 -0.12 0.32 -0.04 0.36 z M43.88 13.2 c0.04 0.2 0.04 -0.16 0 0 l0 0 z M41.080000000000005 13.399999999999999 c0 0 0 -0.04 0.04 -0.04 c0 -0.04 0 -0.12 -0.08 -0.08 c0 0.04 0 0.12 0.04 0.12 z M41.00000000000001 13.84 c-0.08 -0.16 0.16 -0.32 -0.08 -0.32 c0.04 0.08 -0.04 0.32 0.08 0.32 z M43.720000000000006 13.559999999999999 l0 0.08 c0.12 0.08 0.16 -0.16 0.04 -0.12 c0 0 0 0.04 -0.04 0.04 z M40.64000000000001 13.8 c-0.04 0.04 0 0.04 0 0 l0.04 0 c-0.04 -0.16 0.08 -0.12 0.08 -0.24 c-0.16 -0.04 -0.08 0.16 -0.12 0.24 z M41.760000000000005 13.84 c0 -0.04 0.12 -0.2 0 -0.2 c0 0.04 -0.12 0.2 0 0.2 z M43.720000000000006 13.920000000000002 c0 0 0.12 -0.16 0 -0.16 c0 0 -0.12 0.16 0 0.16 z M40.60000000000001 14.079999999999998 c-0.04 -0.08 0.16 -0.16 0 -0.2 c0 0.04 -0.12 0.2 0 0.2 z M41.60000000000001 14.04 c0.2 0.04 0 -0.16 0 0 l0 0 z M43.480000000000004 14.48 c0.2 0.04 0.04 -0.24 0.24 -0.2 c-0.12 -0.12 0.12 -0.28 -0.08 -0.28 c-0.04 0.16 -0.12 0.28 -0.16 0.48 z M40.800000000000004 14.36 c0 -0.08 0.16 -0.36 0 -0.32 c0.04 0.12 -0.16 0.24 0 0.32 z M43.92 14.239999999999998 c0 -0.04 0 -0.08 0.04 -0.08 c0 -0.04 0 -0.08 -0.08 -0.08 c0 0.04 -0.04 0.12 0.04 0.16 z M40.36000000000001 14.719999999999999 c-0.16 0.08 0.16 0.12 0 0 l0.04 0 c0.04 -0.16 0.2 -0.4 0.12 -0.56 c-0.08 0.2 -0.12 0.36 -0.16 0.56 z M41.52 14.280000000000001 c0.16 0.16 0.08 -0.16 0 0 l0 0 z M41.52 14.600000000000001 c-0.04 -0.08 0.12 -0.16 0 -0.2 c0 0.04 -0.12 0.2 0 0.2 z M40.64000000000001 14.719999999999999 c-0.16 0.08 0.16 0.12 0 0 c0.16 -0.08 -0.04 -0.28 0 0 z M43.480000000000004 14.600000000000001 c0.04 0.2 0.04 -0.2 0 0 l0 0 z M40.52 15.079999999999998 c0.12 0.04 0.12 -0.08 0.12 -0.2 c-0.16 -0.04 -0.04 0.16 -0.12 0.2 z M41.36000000000001 15 c0.04 0.04 0 -0.04 0 0 l0 0 z M40.120000000000005 15.440000000000001 c0.16 -0.12 0.24 -0.28 0.16 -0.44 c-0.04 0.16 -0.12 0.24 -0.16 0.44 z M43.720000000000006 15.120000000000001 l0.08 0 l0 -0.08 l-0.08 0 l0 0.08 z M41.32000000000001 15.2 c-0.08 0 0 0.04 0 0 c0.08 -0.04 0 -0.08 0 0 z M40.440000000000005 15.32 c0.08 0.2 0.08 -0.2 0 0 l0 0 z M43.24000000000001 15.440000000000001 c0.04 0 0 -0.04 0 0 l0 0 z M40.36000000000001 15.48 l0 0.08 c0.12 0.08 0.16 -0.16 0.04 -0.12 c0 0 0 0.04 -0.04 0.04 z M40.040000000000006 16 c-0.04 -0.16 0.32 -0.44 0.04 -0.52 c0.08 0.24 -0.2 0.4 -0.04 0.52 z M41.120000000000005 15.68 c0.04 0 0 -0.04 0 0 l0 0 z M43.52 15.719999999999999 c-0.04 0.28 0.04 -0.2 0 0 l0 0 z M40.32000000000001 15.760000000000002 l0 0 c0.08 -0.24 -0.12 0.24 0 0 z M40.28 16.08 c0 0 0 -0.04 0.04 -0.04 c0 -0.04 -0.04 -0.12 -0.12 -0.08 c0.04 0.04 0 0.12 0.08 0.12 z M39.84 16.4 c0.12 0 0.2 -0.24 0.08 -0.32 c-0.04 0.08 0 0.24 -0.08 0.32 z M41.00000000000001 16.16 c-0.04 0.28 0 -0.2 0 0 l0 0 z M40.080000000000005 16.8 c0.04 -0.12 0.16 -0.36 0.04 -0.48 c0.04 0.2 -0.16 0.4 -0.04 0.48 z M39.480000000000004 17.52 c-0.24 0.8 -0.64 2.04 -0.76 2.8 c0.28 -0.76 0.76 -2.12 0.76 -2.8 c0.16 -0.28 0.4 -0.72 0.36 -1.08 c-0.2 0.2 -0.28 0.76 -0.36 1.08 z M40.88 16.56 c-0.12 0.16 0.16 -0.08 0 0 l0 0 z M39.96000000000001 16.96 l-0.04 0 c-0.08 0.48 -0.24 0.68 -0.28 1.16 c0.16 -0.2 0.32 -0.76 0.32 -1.16 c0.08 -0.04 0 -0.04 0 0 z M40.160000000000004 16.96 c-0.04 0.28 0.04 -0.2 0 0 l0 0 z M40.760000000000005 16.96 c0 0.04 -0.04 0 0 0 l0 0 z M40.760000000000005 17.28 c-0.04 -0.04 0 -0.16 -0.08 -0.16 c-0.04 0.04 -0.04 0.16 0.08 0.16 z M40.56 17.68 c0.04 0.04 -0.04 0 0 0 l0 0 z M40.52 17.88 c0 0.04 -0.04 -0.04 0 0 l0 0 z M42.480000000000004 18.08 c0.04 0.04 0.04 0 0 0 c-0.04 -0.08 -0.08 0 0 0 z M39.00000000000001 20.32 c0.32 -0.68 0.44 -1.36 0.68 -2.12 l-0.12 0 c-0.16 0.84 -0.48 1.44 -0.56 2.12 z M40.32000000000001 18.44 c0.16 0.04 0.08 -0.16 0.12 -0.2 c-0.12 -0.04 -0.04 0.16 -0.12 0.2 z M42.32000000000001 18.56 c0.04 0 0 -0.04 0 0 l0 0 z M40.160000000000004 19.08 c-0.04 0.04 0 0.04 0 0 c0.08 -0.04 0.08 -0.12 0.12 -0.2 c-0.16 -0.04 -0.08 0.12 -0.12 0.2 z M40.040000000000006 19.64 c0 0 0.08 -0.2 0 -0.24 c0.04 0.12 -0.16 0.2 0 0.24 z M42.080000000000005 19.44 c0.04 0.04 0 0 0 0 l0 0 z M42.00000000000001 19.76 c-0.12 0.16 0.16 -0.12 0 0 l0 0 z M39.92 19.84 c-0.04 0.28 0.04 -0.2 0 0 l0 0 z M41.480000000000004 20.88 c0 0.08 0.04 0 0 0 c0 -0.08 0.16 -0.08 0.12 -0.24 c-0.12 0 -0.36 -0.08 -0.48 0.08 c0.24 0.08 -0.2 0 -0.04 0.36 c0.12 0 0.12 -0.16 0.32 -0.08 c0 -0.08 0.04 -0.08 0.08 -0.12 z M40.36000000000001 20.88 c0 -0.08 -0.08 -0.12 -0.16 -0.16 c-0.2 0.08 -0.32 0 -0.4 0.12 c0.2 -0.04 0.12 0.24 0.4 0.2 c0.08 -0.12 -0.12 -0.2 0 -0.24 c0.04 0.08 0.08 0.08 0.08 0.2 c0.16 0.08 0.52 -0.08 0.36 -0.28 c0 0.24 -0.12 0.04 -0.28 -0.08 c-0.08 0.12 0.16 0.2 0 0.24 z M41.64000000000001 20.72 c0.04 0 0 -0.04 0 0 l0 0 z M44.400000000000006 21.24 c0.16 0.16 0.08 -0.16 0 0 l0 0 z M41.24000000000001 21.32 c0.04 0 0.04 0.04 0.08 0.04 c0 -0.04 0 -0.16 -0.08 -0.12 l0 0.08 z M49.720000000000006 21.6 c0 -0.08 -0.04 -0.12 -0.08 -0.12 c0 0.08 -0.04 0.16 0.08 0.12 z M49.440000000000005 21.6 l0.08 0 l0 -0.08 l-0.08 0 l0 0.08 z M46.68000000000001 21.72 c0.04 -0.12 -0.08 -0.08 -0.12 -0.16 c0 0.12 0.04 0.16 0.12 0.16 z M47.040000000000006 21.68 c0.04 0.16 0.04 -0.2 0 0 l0 0 z M40.28 25.2 c0.12 -0.04 0 -0.12 0.12 -0.24 c-0.04 0.04 -0.12 0.04 -0.12 -0.04 c0.16 -0.28 0.44 -0.52 0.28 -0.96 c0.12 -0.04 0.12 0 0.24 -0.08 c0.04 -0.36 0.12 -0.8 0.28 -1 c-0.12 -0.04 -0.16 -0.44 0.04 -0.48 l0 0.08 c-0.12 0 0.04 0.2 0 0 c0.12 -0.12 0.12 -0.48 0 -0.56 c-0.08 0.04 -0.2 0 -0.36 0.04 c-0.2 1.12 -0.76 1.92 -0.88 2.84 c-0.28 0.52 -0.56 1.2 -0.68 1.92 l-0.12 -0.12 c-0.08 0.2 0.08 0.48 0 0.52 c-0.12 0.04 0 -0.2 -0.16 -0.12 c-0.16 0.96 -0.6 1.6 -0.88 2.52 c0.2 -0.12 0.12 -0.12 0.32 0 c0.32 -1 0.88 -1.96 1.2 -2.88 c0.12 0 -0.04 0.24 0.08 0.2 c0 -0.08 0.04 -0.12 0.08 -0.12 c0.04 -0.2 -0.16 -0.12 -0.12 -0.32 c0.12 0.04 0.16 0.12 0.24 0 c-0.12 -0.16 -0.12 -0.52 0.12 -0.32 c0.16 -0.24 -0.16 -0.16 -0.12 -0.44 c0.12 0 0.08 0.12 0.12 0.12 c0.16 -0.16 -0.12 -0.2 0 -0.32 c0.08 0.04 0.12 0.08 0.2 0.12 c0 -0.16 0.08 -0.2 0.12 -0.36 z M39.400000000000006 22.04 c-0.68 2.24 -0.96 4.4 -1.72 6.52 c0.16 0.36 -0.28 0.72 -0.04 0.92 c0.96 -2.48 1.96 -5.08 2.68 -7.48 c-0.44 -0.08 -0.64 0.08 -0.92 0.04 z M37.480000000000004 24.8 c-0.28 0.44 -0.52 1.08 -0.32 1.48 c0.4 -1.28 0.68 -2.92 1.04 -4.08 l-0.16 0 c-0.2 1.08 -0.52 1.56 -0.56 2.6 z M38.24 22.76 c0.16 -0.04 0.32 -0.48 0.16 -0.52 c-0.08 0.2 -0.12 0.4 -0.16 0.52 z M38.040000000000006 23.88 c0.04 -0.4 0.4 -0.88 0.16 -1.08 c0.04 0.4 -0.36 0.76 -0.16 1.08 z M37.88 24.08 c0.2 0.04 0 -0.16 0 0 l0 0 z M37.88 24.32 c0.12 0.04 0.12 -0.24 0 -0.16 l0 0.16 z M37.88 24.48 c0.04 0.2 0.04 -0.16 0 0 l0 0 z M37.64000000000001 25.52 c-0.08 0 0 0.04 0 0 l0.04 0 c0.08 -0.2 0.08 -0.48 0.12 -0.68 c-0.16 0.08 -0.2 0.48 -0.16 0.68 z M37.480000000000004 26.28 c-0.04 -0.24 0.2 -0.44 0.04 -0.64 c-0.04 0.16 -0.2 0.56 -0.04 0.64 z M37.64000000000001 26 c0 0 -0.04 -0.04 0 0 l0 0 z M37.32000000000001 26.72 c0 -0.16 0.2 -0.36 0 -0.4 c0 0.12 -0.08 0.24 0 0.4 z M36.32000000000001 29.6 c-0.04 0.04 0 0.12 -0.08 0.12 c-0.08 -0.24 -0.16 0.16 0 0 c0.08 0.32 -0.16 0.12 -0.2 0.2 c0.04 0.04 0.12 0.04 0.16 0.08 c-0.24 0.64 -0.48 1.2 -0.4 1.8 c-0.16 0.08 -0.12 0.24 -0.16 0.56 c-0.08 0.08 -0.16 0.4 -0.04 0.6 c-0.08 -0.08 -0.16 -0.04 -0.12 0.08 c0.04 0 0.12 0 0.12 0.04 c0 0.16 -0.2 0.2 -0.24 0.36 c0.04 0.04 0.16 0 0.16 0.08 c-0.16 0 -0.24 0.2 -0.04 0.24 c-0.12 0.08 -0.32 0.32 -0.12 0.44 c-0.08 -0.24 0.28 -0.28 0.12 -0.44 c0 -0.12 0.04 -0.04 0.08 -0.04 c0.28 -1.8 0.56 -2.8 0.76 -4.12 c0.24 -1.2 0.72 -2.08 0.68 -3.24 c-0.16 0.28 -0.16 0.88 -0.32 1.16 c0.2 0.2 -0.28 0.4 -0.08 0.68 c-0.08 0.04 -0.12 -0.16 -0.12 0.04 c0.2 0.28 -0.36 1.04 -0.28 1.36 l0.12 0 z M37.2 26.880000000000003 c0.04 0.04 -0.04 0 0 0 l0 0 z M37.080000000000005 27.52 c0.08 -0.24 0.2 -0.32 0.08 -0.52 c0.04 0.2 -0.2 0.36 -0.08 0.52 z M39.480000000000004 27.119999999999997 c0.04 -0.04 0.12 -0.08 0 -0.12 c0 0.04 -0.08 0.12 0 0.12 z M39.36000000000001 27.48 c-0.12 0.16 0.16 -0.12 0 0 l0 0 z M36.96000000000001 27.96 c0.12 0 0.08 -0.16 0.12 -0.24 c-0.12 -0.04 -0.12 0.08 -0.12 0.24 z M36.92 28.08 c0.2 0.08 0 -0.12 0 0 l0 0 z M36.720000000000006 29 l-0.04 0 c0 0.28 -0.2 0.36 -0.08 0.6 c-0.2 0.16 -0.12 0.6 -0.24 0.84 c0.28 -0.2 0.12 -0.56 0.24 -0.84 c0.16 -0.08 0.08 -0.32 0.12 -0.6 c0.16 -0.08 0.16 -0.52 0.12 -0.72 c-0.04 0.24 -0.12 0.6 -0.12 0.72 z M37.96000000000001 29.759999999999998 c0 -0.04 0.08 -0.08 0 -0.12 c0 0.04 -0.08 0.12 0 0.12 z M38.2 29.68 c0.04 0.04 0 0 0 0 l0 0 z M37.92 30.119999999999997 c0.04 0.2 0.04 -0.2 0 0 l0 0 z M36.36000000000001 30.6 c0.04 0.04 0 -0.04 0 0 l0 0 z M36.32000000000001 30.8 c0.08 0.16 0.08 -0.2 0 0 l0 0 z M36.120000000000005 31.92 c0 -0.2 0.28 -0.56 0.16 -0.84 c-0.04 0.24 -0.24 0.6 -0.16 0.84 z M35.96000000000001 32.88 c0.04 -0.28 0.28 -0.56 0.08 -0.8 c-0.04 0.32 -0.16 0.52 -0.08 0.8 z M34.84 37.04 l0 0 c0.2 0 -0.04 0.28 0 0 z M34.88 37.6 c0.04 -0.12 0.12 -0.2 -0.04 -0.24 c0.04 0.08 -0.04 0.24 0.04 0.24 z M35.24 37.6 c0.2 0.04 0 -0.16 0 0 l0 0 z M34.84 37.8 c0 -0.08 0.08 -0.12 0 -0.16 c0 0.08 -0.08 0.12 0 0.16 z M35.24 37.8 c0.12 0.2 0.04 -0.16 0 0 l0 0 z M35.160000000000004 38.12 c0.16 0.08 0.16 -0.2 0.08 -0.2 c0 0.12 -0.08 0.12 -0.08 0.2 z M34.800000000000004 38.28 c0.12 0 0.2 -0.08 0.2 -0.2 c-0.12 0 -0.2 0.08 -0.2 0.2 z M35.160000000000004 39.04 c-0.04 0.28 0.04 -0.2 0 0 l0 0 z M35.120000000000005 39.24 c0.08 0.16 0.12 -0.2 0 0 l0 0 z M34.800000000000004 39.6 c-0.04 -0.04 0.04 -0.24 -0.04 -0.24 c-0.04 0.12 -0.12 0.24 0.04 0.24 z M35.160000000000004 39.84 c0 -0.08 0.08 -0.32 -0.08 -0.28 c0.04 0.08 0 0.24 0.08 0.28 z M34.88 39.92 c-0.04 -0.2 0.12 -0.28 -0.04 -0.32 c0.04 0.16 -0.12 0.28 0.04 0.32 z M35.120000000000005 40.4 c0.04 -0.12 0.08 -0.32 0 -0.44 c-0.04 0.04 -0.08 0.36 0 0.44 z M34.84 40.04 c0.04 0.2 0.04 -0.2 0 0 l0 0 z M34.84 40.4 c-0.04 0.2 0.16 0 0 0 c-0.04 -0.12 0.16 -0.16 0 -0.2 c0 0.04 -0.08 0.04 -0.08 0.08 c0.04 0.04 0 0.12 0.08 0.12 z M35.120000000000005 41.2 c-0.04 -0.24 0.08 -0.56 -0.04 -0.72 c0.04 0.32 -0.12 0.52 0.04 0.72 z M34.88 40.8 c0 -0.04 0.08 -0.24 -0.04 -0.24 c-0.08 0.08 -0.08 0.24 0.04 0.24 z M34.800000000000004 41.04 c-0.04 0.32 0.04 -0.16 0 0 l0 0 z M35.080000000000005 41.28 c-0.08 0.48 0.16 0.52 0 0 l0 0 z M45.080000000000005 8.879999999999999 l0 0 c-0.04 0.32 0 -0.16 0 0 z M45.00000000000001 9.239999999999998 c0.08 -0.16 0.16 0.16 0 0 l0 0 z M44.400000000000006 10 c-0.08 0 -0.04 0.08 0 0.08 l0 -0.08 z M44.92 10.280000000000001 c-0.04 -0.36 0.16 -0.16 0 0 l0 0 z M44.92 10.280000000000001 c0 0.08 -0.08 0.04 0 0 l0 0 z M42.52 11.280000000000001 l0.04 0 c0 0.08 0.04 0.2 -0.04 0.2 l0 -0.2 z M44.68000000000001 12.120000000000001 c0 -0.08 0.08 -0.04 0 0 l0 0 z M43.720000000000006 12.36 c0.08 -0.16 0.16 0.16 0 0 l0 0 z M43.68000000000001 12.48 c0.16 0.2 -0.12 0.28 0 0 l0 0 z M43.56 12.8 c0.08 0 0.12 0.04 0.12 0.12 c-0.12 0.04 -0.08 -0.04 -0.12 -0.12 z M43.400000000000006 13.64 c0 -0.12 0.2 0.04 0 0 l0 0 z M43.28 14.079999999999998 c-0.04 -0.2 0.16 0 0 0 l0 0 z M43.28 14.079999999999998 c0.04 0.2 -0.12 0 0 0 l0 0 z M42.84 15.559999999999999 c0.08 -0.2 0.08 0.2 0 0 l0 0 z M42.60000000000001 16.08 l0.12 0 l0 0.2 l-0.12 0 l0 -0.2 z M42.480000000000004 16.68 l0 0 c0.04 0.04 -0.04 -0.04 0 0 z M42.24000000000001 17.64 l0 0 c0.04 0.04 -0.04 -0.04 0 0 z M42.080000000000005 18.8 l0.12 0 l0 0.08 c-0.04 0 -0.04 0.04 -0.08 0.04 l-0.08 0 l0 -0.08 c0.04 0 0.04 -0.04 0.04 -0.04 z M44.00000000000001 20.8 c-0.32 0.16 -0.24 -0.12 0 0 l0 0 z M44.92 21.2 c-0.12 -0.08 -0.16 -0.2 -0.2 -0.36 c0.12 0.08 0.16 0.2 0.2 0.36 z M46.2 20.88 c0.08 -0.16 0.16 0.16 0 0 l0 0 z M46.52 20.88 c0.2 0.04 0.32 0.08 0.36 0.24 c-0.2 0 -0.24 -0.24 -0.32 0 c-0.16 0.08 -0.08 -0.2 -0.04 -0.24 z M48.080000000000005 20.96 c0.16 -0.04 0.04 0.16 0.16 0.16 c-0.08 0.16 -0.12 -0.12 -0.16 -0.16 z M45.480000000000004 21.04 l0 0 c0.04 0.04 0 0 0 0 z M45.64000000000001 21 c0.08 0 0.12 0.04 0.2 0.04 c0 0.08 -0.28 0.08 -0.2 -0.04 z M48.68000000000001 21.04 c0 -0.04 0.08 -0.04 0.12 -0.04 l0 0.12 c-0.04 0 -0.08 -0.08 -0.12 -0.08 z M48.96000000000001 21 c0.12 0 0.12 0.16 0.04 0.24 c-0.12 0 0 -0.16 -0.04 -0.24 z M46.080000000000005 21.08 c0.08 -0.16 0.16 0.16 0 0 l0 0 z M46.28 21.08 c0.04 -0.2 0.04 0.2 0 0 l0 0 z M47.040000000000006 21.08 c0.04 -0.2 0.04 0.2 0 0 l0 0 z M48.36000000000001 21.04 c0.04 0.04 0.08 0.04 0.16 0.04 c0 0.08 -0.16 0.04 -0.16 0.16 c-0.12 -0.04 0.08 -0.12 0 -0.2 z M48.00000000000001 21.12 l0 0 c-0.04 -0.04 -0.08 0.04 0 0 z M48.00000000000001 21.12 l0 0 c0.04 0.08 0.04 0 0 0 z M49.480000000000004 21.2 c0.08 -0.16 0.12 0.16 0 0 l0 0 z M50.2 21.2 c0.08 0 0.12 0.08 0.08 0.16 c-0.08 0 -0.08 -0.08 -0.08 -0.16 z M50.400000000000006 21.2 c0.04 0 0.08 0.08 0.08 0.16 c-0.08 0 -0.08 -0.08 -0.08 -0.16 z M52.52000000000001 21.52 c0.04 -0.2 0.04 0.2 0 0 l0 0 z M51.36000000000001 21.72 c0.04 -0.2 0.04 0.2 0 0 l0 0 z M51.120000000000005 21.8 c0 -0.12 0.2 0.04 0 0 l0 0 z M40.60000000000001 23.68 c0.12 -0.12 0 0.44 0 0 l0 0 z M40.120000000000005 24.32 c0 -0.16 0.2 0.04 0 0 l0 0 z M40.28 25.2 c-0.08 0 -0.12 -0.08 -0.08 -0.08 s0.08 0.04 0.08 0.08 z M39.2 26.8 l0 0 c0.04 0.04 0 0 0 0 z M38.28000000000001 29.240000000000002 l0 0 c0.04 0.04 0 0 0 0 z M35.800000000000004 31.560000000000002 c0.04 -0.2 0.04 0.2 0 0 l0 0 z M35.760000000000005 32.04 l0 0 c0.04 0.04 -0.04 -0.04 0 0 z M35.64000000000001 32.36 c0.08 0 0.04 0.08 0 0 l0 0 z M34.800000000000004 36.84 l0 0 c0.04 0.04 -0.04 -0.04 0 0 z M34.760000000000005 42.36 l0 0.12 c-0.08 0 -0.12 -0.04 -0.12 -0.12 l0.12 0 z M51.08000000000001 38.96 c2.48 -2.08 4.92 -4.16 7.44 -6.16 c0.48 0.08 0.96 0.24 1.04 0.8 c-2.68 2.84 -5.92 5.12 -8.72 7.84 c0 1.32 -0.16 2.4 -0.16 3.64 c-0.68 5.76 -1.48 11.28 -3.36 16.12 c-0.4 1.84 -1.2 3.52 -2.04 4.88 c-1.48 2.56 -3.28 5.32 -7.16 5.2 c-0.28 -0.12 -0.68 -0.28 -0.96 -0.32 c-0.04 -0.08 -0.12 -0.12 -0.08 -0.28 c-1.64 -0.6 -2.28 -2.52 -2.84 -4.28 c-0.44 -2.84 0.68 -5.16 1.6 -7.36 c1.08 -2.56 2.32 -5.08 3.92 -7.08 c2.32 -3.92 5.4 -7.04 8.28 -10.36 c0.6 -0.4 1.04 -0.96 1.52 -1.44 c0.12 -2.04 0.2 -4.16 0.4 -6.16 c-1.8 1.4 -3.28 3.52 -5.52 4.6 c-3.28 -0.48 -1.04 -4.52 -0.56 -6.44 c2.16 0.6 0.52 3.36 0.16 4.68 c2.28 -1.36 4.24 -3.36 6.16 -5.24 c0.48 -0.36 1.04 -0.08 1.24 0.4 c0.04 2.08 -0.4 4.76 -0.36 6.96 z M57.88000000000001 33.76 c0.16 -0.12 0.6 -0.4 0.48 -0.52 c-0.16 0.2 -0.44 0.24 -0.48 0.52 z M58.64000000000001 33.84 c-0.04 -0.16 0.16 -0.08 0.12 -0.24 c-0.16 -0.12 -0.16 0.08 -0.28 0.16 c-2.48 1.92 -5 4.16 -7.48 6.24 c0 0.24 0 0.48 -0.04 0.68 c0.52 -0.36 1 -0.68 1.32 -1.2 c0.44 -0.12 0.88 -0.6 1.12 -1.08 c0.76 0.12 1.04 -1.28 1.84 -1.28 c0.96 -1.32 2.84 -2.4 3.88 -3.6 c-0.04 0.08 -0.08 0 -0.16 0 c-0.04 0.16 -0.12 0.28 -0.32 0.32 z M57.16000000000001 34.4 c0.16 -0.24 0.6 -0.4 0.56 -0.64 c-0.12 0.28 -0.56 0.24 -0.56 0.64 z M56.80000000000001 34.68 c0.08 0.16 0.12 -0.2 0 0 l0 0 z M56.20000000000001 35.36 c0.04 -0.12 0.28 -0.28 0.08 -0.36 c-0.04 0.08 -0.24 0.24 -0.08 0.36 z M56.44000000000001 35.04 c0 0.04 -0.04 0 0 0 l0 0 z M55.52000000000001 35.88 c0.12 -0.2 0.4 -0.24 0.48 -0.44 c-0.24 0.08 -0.44 0.16 -0.48 0.44 z M55.32000000000001 35.96 c0.16 0.08 0.16 -0.2 0 -0.12 l0 0.12 z M54.400000000000006 36.68 c0.28 -0.16 0.8 -0.36 0.76 -0.68 c-0.24 0.24 -0.52 0.44 -0.76 0.68 z M54.400000000000006 36.84 c-0.76 0.08 -1.48 1.36 -2.28 1.56 c-0.12 0.64 -1.08 0.68 -1.04 1.32 c0.48 -0.2 0.64 -0.92 1.12 -0.92 c0.04 -0.2 0.12 -0.4 0.32 -0.24 c0.52 -0.72 1.24 -1.16 1.88 -1.72 z M48.92000000000001 41.24 c0.12 0.32 -0.28 0.36 -0.32 0.64 c-0.12 0.04 -0.12 -0.08 -0.24 -0.04 c-0.32 0.28 -0.6 0.6 -0.96 0.88 c0.32 0.04 0.64 -0.36 0.88 -0.6 c0.04 0.04 0 0.16 0.12 0.12 c0.48 -0.16 0.6 -1.04 0.92 -0.96 c0.08 -0.08 0.28 -0.32 0.16 -0.48 c-0.2 0.16 -0.36 0.32 -0.56 0.44 z M41.24000000000001 51.8 c0 0.24 -0.16 0.24 -0.16 0.48 c-0.12 0.04 -0.36 0.24 -0.16 0.28 c0.04 -0.08 0.16 -0.12 0.16 -0.28 c0.24 -0.2 0.48 -0.44 0.56 -0.8 c-0.24 0 -0.2 0.28 -0.4 0.32 c0.2 -0.36 0.44 -0.68 0.68 -0.96 c0 0.24 -0.2 0.28 -0.24 0.48 c1.16 -1.12 1.88 -2.6 3.04 -3.68 c-0.16 -0.24 0.16 -0.24 0.04 -0.4 c-0.2 0.24 -0.4 0.52 -0.64 0.72 c0.48 -0.72 1 -1.4 1.6 -2 c0 0.12 -0.12 0.12 -0.08 0.28 c0.16 -0.04 0.4 -0.28 0.32 -0.44 c-0.04 0.08 -0.08 0.16 -0.24 0.16 c0.44 -0.6 1 -1.28 1.48 -1.64 c-0.04 0.2 -0.24 0.24 -0.28 0.44 c0.28 -0.12 0.36 -0.44 0.64 -0.4 c-0.36 -0.16 0.68 -0.72 0.28 -0.8 c0.2 -0.12 0.24 -0.36 0.48 -0.44 c-0.04 0.08 -0.16 0.08 -0.12 0.24 c0.4 -0.24 0.72 -0.52 0.92 -0.96 c-0.32 0.08 -0.4 0.6 -0.68 0.56 c0.16 -0.64 1.28 -0.84 0.92 -1.48 c-0.16 0.28 -0.6 0.48 -0.6 0.76 c-0.44 0.28 -1.16 0.92 -1.32 1.44 c-4.28 4.32 -7.64 9.32 -10.52 15 c-0.28 1 -0.56 1.4 -0.8 2.24 c1 -1.92 2 -4.2 3.16 -6.08 l0 0.2 c0.64 -0.68 0.92 -1.36 1.4 -2.16 c-0.44 0.2 -0.44 0.88 -0.88 1.08 c0.4 -0.72 0.88 -1.52 1.44 -2.16 z M48.64000000000001 41.72 c0 -0.08 0.08 -0.24 -0.08 -0.2 c0 0.12 0 0.2 0.08 0.2 z M48.20000000000001 42.36 c0.04 0.04 0 -0.04 0 0 l0 0 z M47.72000000000001 42.88 c0.24 -0.08 0.36 -0.24 0.44 -0.44 c-0.2 0.08 -0.28 0.28 -0.44 0.44 z M43.12000000000001 50.08 c0 0.16 -0.08 0.2 -0.08 0.4 c-1.56 1.68 -2.68 3.88 -3.96 5.76 c-1.4 3.28 -3.12 5.92 -3.4 10.24 c-0.2 0.08 -0.04 0.6 -0.24 0.84 c-0.08 -0.08 0.08 -0.44 -0.12 -0.44 c-0.12 0.6 0.12 1.16 0.28 1.68 c0.8 1.2 2.84 1.6 4.36 0.8 c3.96 -2.24 5.32 -6.72 6.88 -11.2 c1 -4.44 2.28 -9.56 2.52 -15.28 c0 -0.04 0 -0.04 -0.04 -0.04 c-2.12 2.32 -4.16 4.8 -6.2 7.24 z M46.88000000000001 43.4 c0.2 0 0.56 -0.32 0.32 -0.44 c-0.08 0.2 -0.32 0.2 -0.32 0.44 z M47.40000000000001 43.04 c0.04 0 0 -0.04 0 0 l0 0 z M47.32000000000001 43.44 c-0.08 -0.12 0.2 -0.16 0.04 -0.24 c0 0.08 -0.2 0.2 -0.04 0.24 z M48.08000000000001 43.6 c0 -0.08 0.2 -0.16 0.04 -0.2 c0 0.08 -0.2 0.16 -0.04 0.2 z M46.36000000000001 44 c0.2 0 0.12 -0.32 0.4 -0.2 c0.04 -0.12 0.2 -0.24 0 -0.28 c-0.04 0.2 -0.4 0.16 -0.4 0.48 z M47.00000000000001 43.6 c0.04 0.04 0 -0.04 0 0 l0 0 z M46.92000000000001 43.76 c0.2 0.04 0 -0.16 0 0 l0 0 z M47.92000000000001 43.88 c0.2 0.04 0.04 -0.12 0 0 l0 0 z M46.16000000000001 44.16 c0.16 0 0.2 0.12 0.24 -0.04 c-0.08 -0.08 -0.2 -0.04 -0.24 0.04 z M46.52000000000001 44.16 c0.12 0 0.16 -0.04 0.16 -0.08 c-0.08 0 -0.12 0.04 -0.16 0.08 z M46.40000000000001 44.28 l0 0.08 c0.12 0.08 0.12 -0.16 0.04 -0.12 c0 0 0 0.04 -0.04 0.04 z M45.80000000000001 44.519999999999996 c0.16 0 0.32 -0.04 0.32 -0.2 c-0.16 0.04 -0.24 0.08 -0.32 0.2 z M46.24000000000001 44.519999999999996 c-0.12 0.16 0.16 -0.12 0 0 l0 0 z M45.64000000000001 44.8 l-0.08 0 c-0.04 0.04 -0.04 0.24 0.08 0.24 l0 -0.24 c0.12 0 0.24 0 0.24 -0.08 c-0.12 -0.12 -0.24 -0.04 -0.24 0.08 z M46.040000000000006 44.72 c-0.04 0.28 0.04 -0.2 0 0 l0 0 z M46.88000000000001 45 l0 0.04 c0.12 0.04 0.2 -0.12 0.04 -0.08 l0 -0.16 c-0.12 0.08 -0.28 0.12 -0.28 0.32 c0.16 0.08 0.16 -0.08 0.24 -0.12 z M45.32000000000001 45.24 c-0.2 0 0 0.16 0 0 c0.04 0 0.08 0.04 0.12 0.04 c0 -0.12 0.12 -0.28 -0.04 -0.28 c-0.04 0.04 -0.08 0.12 -0.08 0.24 z M45.68000000000001 45.24 c0.08 0.04 0.2 -0.12 0.08 -0.16 c0 0.08 -0.12 0.04 -0.08 0.16 z M45.56000000000001 45.24 c0.08 0.16 0.08 -0.2 0 0 l0 0 z M46.040000000000006 45.76 c0.16 -0.12 0.56 -0.24 0.48 -0.4 c0 0.04 -0.04 0.08 -0.08 0.08 c0 -0.12 -0.04 -0.16 -0.08 -0.16 c-0.12 0.16 -0.2 0.32 -0.32 0.48 z M44.84000000000001 45.72 c-0.24 0.16 -0.6 0.52 -0.56 0.8 c0.32 -0.12 0.36 -0.52 0.64 -0.72 c-0.04 -0.04 -0.08 -0.04 -0.08 -0.08 l0.24 0 c0.08 -0.12 0.12 -0.2 0.12 -0.4 c-0.2 0.04 -0.2 0.12 -0.16 0.28 c-0.08 0.04 -0.24 -0.04 -0.2 0.12 z M45.16000000000001 45.84 c0.12 -0.08 0.4 -0.24 0.28 -0.4 c-0.04 0.16 -0.32 0.16 -0.28 0.4 z M44.96000000000001 46.04 c0.12 0.2 0.08 -0.16 0 0 l0 0 z M44.76000000000001 46.44 c0 -0.08 0.2 -0.28 0 -0.24 c0.04 0.08 -0.12 0.2 0 0.24 z M44.24000000000001 47.04 c0.08 -0.16 0.56 -0.44 0.32 -0.6 c0 0.28 -0.44 0.36 -0.32 0.6 z M45.32000000000001 46.519999999999996 c0.08 0.16 0.12 -0.2 0 0 l0 0 z M44.92000000000001 47.12 c-0.08 0 0 0.04 0 0 c0.16 -0.12 0.36 -0.24 0.4 -0.44 c-0.28 0 -0.28 0.28 -0.4 0.44 z M43.00000000000001 48 c0.48 -0.04 0.68 -0.84 1.08 -1.2 c-0.44 0.12 -0.8 0.8 -1.08 1.2 z M43.72000000000001 47.6 c0.12 0 0.28 -0.24 0.16 -0.32 c-0.04 0.12 -0.16 0.16 -0.16 0.32 z M42.64000000000001 48.44 c0.2 0.16 0.52 -0.28 0.2 -0.32 c-0.04 0.12 -0.16 0.2 -0.2 0.32 z M43.28000000000001 48.2 l-0.04 0 c-0.04 0.04 -0.08 0.08 -0.08 0.16 c-0.12 0 0.08 0.2 0 0 c0.08 -0.04 0.12 -0.08 0.12 -0.16 c0.2 0.04 0 -0.12 0 0 z M42.40000000000001 48.72 c0.16 0 0.28 0 0.28 -0.16 c-0.12 -0.12 -0.24 0.04 -0.28 0.16 z M43.040000000000006 48.56 c0.04 0.16 0.04 -0.2 0 0 l0 0 z M42.40000000000001 48.84 c-0.04 0 -0.04 -0.04 -0.08 -0.04 c-0.12 0.04 0.08 0.16 0.08 0.04 z M42.76000000000001 48.88 c0 0.04 -0.04 -0.04 0 0 l0 0 z M42.64000000000001 49.04 c0.2 0.04 0.04 -0.16 0 0 l0 0 z M39.56000000000001 52.88 l-0.04 0 c-0.44 0.72 -0.84 1.2 -1.2 2 c-0.2 0.24 -0.44 0.72 -0.44 1.04 c0.2 -0.32 0.32 -0.68 0.44 -1.04 c0.6 -0.4 0.68 -1.32 1.24 -1.72 l0 -0.28 c0.48 -0.24 0.36 -0.8 0.84 -1.04 c0 -0.08 0 -0.16 -0.04 -0.24 c0.76 -0.64 1.32 -1.64 1.96 -2.56 c-1.08 1.08 -2 2.4 -2.76 3.84 z M49.08000000000001 49.16 c0.04 0.04 0 0 0 0 l0 0 z M42.44000000000001 49.28 c0.04 0 0 -0.04 0 0 l0 0 z M49.32000000000001 50.04 c-0.04 0.28 0.04 -0.2 0 0 l0 0 z M48.92000000000001 50.08 c0.08 0.16 0.12 -0.2 0 0 l0 0 z M49.32000000000001 50.32 c-0.12 0.16 0.16 -0.12 0 0 l0 0 z M49.28000000000001 50.56 c0.04 0.04 -0.04 -0.04 0 0 l0 0 z M48.56000000000001 52.16 l0.2 0 c-0.08 -0.36 0.24 -0.8 0.04 -1.16 c-0.12 0.36 -0.08 0.8 -0.24 1.16 z M49.12000000000001 51.6 c0 -0.08 0.16 -0.28 0 -0.32 c0.08 0.16 -0.12 0.28 0 0.32 z M48.400000000000006 52 c0.08 0.2 0.08 -0.2 0 0 l0 0 z M48.360000000000014 52.16 c0.04 0 0 -0.04 0 0 l0 0 z M48.56000000000001 52.519999999999996 c0.16 0 0.2 -0.32 0.04 -0.32 c-0.08 0.12 0 0.16 -0.04 0.32 z M48.92000000000001 52.44 c0.16 0.08 0.16 -0.2 0.08 -0.2 c0 0.08 -0.08 0.12 -0.08 0.2 z M48.360000000000014 52.56 c0.04 0.04 0 0 0 0 l0 0 z M40.68000000000001 52.68 l0 0.08 c0.08 0.16 0.16 -0.08 0.2 -0.12 c-0.08 -0.04 -0.12 0.04 -0.2 0.04 z M48.28000000000001 52.68 c-0.04 0.28 0 -0.2 0 0 l0 0 z M47.92000000000001 55.68 l-0.04 0 c-0.04 0.32 -0.16 0.4 -0.28 0.48 c0 0.2 0.16 -0.08 0.12 0.08 c-0.36 1.44 -0.68 2.96 -1.2 4.24 l-0.16 0 c0.04 -0.2 -0.16 0 0 0 c0 0.16 -0.28 -0.04 -0.2 0.16 c0.04 0.16 0.28 0 0.32 0.08 c-0.16 0.32 -0.2 0.76 -0.44 1.04 c-0.08 -0.16 -0.08 0.2 -0.28 0.04 c0 0.08 -0.2 0.28 -0.08 0.36 c0.04 -0.28 0.24 -0.2 0.36 -0.36 c0.04 0.16 0 0.4 -0.16 0.28 c0.24 0.36 -0.24 0.52 -0.2 0.96 c-0.12 0 -0.16 0 -0.16 0.08 c-0.12 0.12 0 0.52 -0.24 0.64 c-0.12 -0.04 -0.16 -0.2 -0.28 -0.24 c0.08 0.2 -0.2 0.28 -0.04 0.4 c0.08 -0.28 0.12 0 0.32 -0.12 c-0.4 0.28 0 0.84 -0.6 1.12 c0 0.16 0.16 -0.12 0.12 0.04 c-0.72 0.48 -0.84 1.56 -1.44 2.2 c0.12 0.04 0.16 -0.12 0.2 0 c-0.08 0.12 -0.12 0.2 -0.28 0.12 c-0.28 0.44 -0.64 0.76 -0.92 1.2 c-0.24 0.08 -0.36 0.24 -0.44 0.52 c0.32 0.04 0.32 -0.24 0.52 -0.28 c0.04 -0.16 -0.12 -0.12 -0.08 -0.24 c0.12 -0.04 0.12 0 0.2 0.04 c-0.04 -0.16 0.16 -0.48 0.28 -0.44 c0 0.08 -0.12 0.04 -0.08 0.2 c-0.08 0 0 0.04 0 0 c0.16 -0.08 0.28 -0.2 0.32 -0.4 c-0.08 -0.04 -0.16 0.16 -0.2 0 c0.36 -0.04 0.68 -0.4 0.76 -0.84 l0.12 0 c0.08 -0.24 0.48 -0.56 0.24 -0.8 c0.16 0 0.08 -0.28 0.24 -0.32 c0.08 0.12 -0.12 0.24 0 0.28 c1.08 -1.84 1.76 -3.84 2.6 -6 c0 0.04 0.04 0.08 0.08 0.12 c0.12 -0.16 0.04 -0.16 0.16 -0.32 c-0.16 0 -0.16 0.16 -0.24 0.2 c0.28 -1.36 0.84 -3 1.08 -4.52 c0.32 -1 0.48 -1.92 0.68 -3.04 c-0.32 0.16 0 0.96 -0.44 1.04 c0.28 0.52 -0.24 1.28 -0.24 2 z M48.88000000000001 52.88 c0.16 0.04 0.16 -0.32 0 -0.24 l0 0.24 z M48.68000000000001 53.64 c0.2 0.04 0.04 -0.16 0 0 l0 0 z M48.64000000000001 53.92 c0.16 0 0.2 -0.2 0.04 -0.2 c0 0.08 -0.04 0.08 -0.04 0.2 z M38.56000000000001 53.92 c0.16 0.16 0.08 -0.16 0 0 l0 0 z M47.88000000000001 54.56 c0.12 0 0.16 -0.08 0.16 -0.2 c-0.12 -0.04 -0.16 0.04 -0.16 0.2 z M48.360000000000014 55.16 c0.16 0.04 0.12 -0.12 0.2 -0.2 c-0.08 0 -0.08 -0.04 -0.16 -0.04 c0.04 0.12 0 0.2 -0.04 0.24 z M47.80000000000001 55.28 l0.08 0 l0 -0.12 l-0.08 0 l0 0.12 z M48.20000000000001 55.2 c0.04 0.04 0 0 0 0 l0 0 z M47.68000000000001 55.28 c0.08 0.16 0.08 -0.2 0 0 l0 0 z M39.040000000000006 55.4 l0.16 0 c0 -0.08 -0.04 -0.12 -0.16 -0.08 l0 0.08 z M48.360000000000014 55.36 c0.04 0.2 0.04 -0.2 0 0 l0 0 z M47.64000000000001 55.4 c0.04 0.04 0 0 0 0 l0 0 z M38.92000000000001 55.88 c0 -0.12 0.32 -0.36 0.08 -0.44 c0 0.16 -0.2 0.32 -0.08 0.44 z M47.56000000000001 55.68 c0.12 0.08 0.12 -0.2 0.04 -0.16 c0 0.08 -0.04 0.08 -0.04 0.16 z M39.16000000000001 55.6 c0.04 0.2 0.04 -0.2 0 0 l0 0 z M37.60000000000001 56.16 c0.16 0.04 0.2 -0.08 0.2 -0.16 c-0.16 -0.04 -0.12 0.12 -0.2 0.16 z M38.68000000000001 56.28 c0 -0.08 0.2 -0.28 0 -0.28 c0.04 0.12 -0.16 0.2 0 0.28 z M48.20000000000001 56.04 c0.08 0.16 0.12 -0.2 0 0 l0 0 z M47.44000000000001 56.08 c0.08 0.2 0.08 -0.2 0 0 l0 0 z M48.16000000000001 56.28 c0.04 0.04 0 -0.04 0 0 l0 0 z M38.52000000000001 56.36 c0.04 0.2 0.04 -0.2 0 0 l0 0 z M47.48000000000001 56.519999999999996 c0.04 0.04 0 -0.04 0 0 l0 0 z M48.12000000000001 56.56 c0.04 0.2 0.04 -0.2 0 0 l0 0 z M38.28000000000001 56.8 c0.04 0 0.08 0.04 0.08 0.04 c0 -0.08 0.04 -0.16 -0.08 -0.12 l0 0.08 z M37.360000000000014 56.8 c0.04 0.04 0 -0.04 0 0 l0 0 z M47.88000000000001 56.8 c0.04 0.04 0 -0.04 0 0 l0 0 z M47.32000000000001 56.84 c0 0.04 -0.04 0 0 0 l0 0 z M47.20000000000001 56.96 l0 0.08 c0.12 0.08 0.16 -0.16 0.04 -0.16 c0 0.04 0 0.08 -0.04 0.08 z M37.08000000000001 57.44 c0 -0.12 0.24 -0.24 0.08 -0.32 c0 0.08 -0.24 0.2 -0.08 0.32 z M47.12000000000001 57.44 c0.16 0.04 0.08 -0.16 0.12 -0.2 c-0.12 -0.04 -0.12 0.08 -0.12 0.2 z M47.88000000000001 57.36 c0.04 0.2 0.04 -0.16 0 0 l0 0 z M47.84000000000001 57.6 c0.04 0.2 0.04 -0.16 0 0 l0 0 z M47.68000000000001 58.16 c0.08 0.16 0.08 -0.2 0 0 l0 0 z M46.92000000000001 58.2 l0 0.04 c-0.12 0.28 0.24 -0.28 0 -0.04 z M47.48000000000001 58.28 l-0.04 0 c0.04 0.04 0 0.04 -0.04 0.04 l0 0.12 c0.12 0 0.08 -0.08 0.08 -0.16 c0.08 -0.04 0 -0.04 0 0 z M46.88000000000001 58.480000000000004 l0.08 0 l0 -0.08 l-0.08 0 l0 0.08 z M47.60000000000001 58.44 c0.04 0.04 -0.04 -0.04 0 0 l0 0 z M47.36000000000001 58.92 c-0.04 -0.12 0.16 -0.2 -0.04 -0.2 c0 0.08 -0.04 0.16 0.04 0.2 z M47.48000000000001 58.760000000000005 c0.08 0.2 0.08 -0.2 0 0 l0 0 z M46.72000000000001 59.04 c0.16 0 0.2 -0.28 0.04 -0.28 c-0.04 0.08 -0.04 0.16 -0.04 0.28 z M47.40000000000001 59.04 c0.04 0.2 0.04 -0.16 0 0 l0 0 z M47.20000000000001 59.16 c-0.16 0.2 0.12 -0.16 0 0 l0 0 z M46.64000000000001 59.239999999999995 c-0.12 0.16 0.16 -0.12 0 0 l0 0 z M47.36000000000001 59.239999999999995 c0.04 0.04 -0.04 0 0 0 l0 0 z M46.60000000000001 59.480000000000004 c0.04 0.2 0.04 -0.2 0 0 l0 0 z M46.52000000000001 59.64 c-0.08 0.16 0.2 -0.12 0 0 l0 0 z M46.40000000000001 60.08 c0.04 0.16 0.04 -0.2 0 0 l0 0 z M46.84000000000001 60.64 c0 -0.04 0 -0.04 0.04 -0.04 c0 -0.08 0 -0.12 -0.12 -0.12 c0.04 0.08 0 0.16 0.08 0.16 z M46.64000000000001 61.04 c0.16 0.04 0.2 -0.28 0.08 -0.32 c-0.04 0.12 -0.08 0.2 -0.08 0.32 z M46.12000000000001 60.84 c0 0.04 -0.04 -0.04 0 0 l0 0 z M46.24000000000001 60.879999999999995 c0.04 0.04 0 -0.04 0 0 l0 0 z M46.20000000000001 61.120000000000005 c0.04 0.04 0 -0.04 0 0 l0 0 z M35.96000000000001 61.68 c0 -0.2 0.28 -0.48 0.08 -0.56 c-0.04 0.16 -0.2 0.4 -0.08 0.56 z M46.040000000000006 61.32 c0.04 0.04 0 -0.04 0 0 l0 0 z M46.68000000000001 61.36 l0.08 0 l0 -0.08 l-0.08 0 l0 0.08 z M46.44000000000001 61.68 c-0.08 0.08 -0.2 0.32 -0.08 0.4 c0.04 -0.12 0.12 -0.2 0.08 -0.4 l0.04 0 c0.04 0 0.12 -0.2 0 -0.24 c0.04 0.12 -0.08 0.12 -0.04 0.24 z M35.72000000000001 62.239999999999995 c-0.12 0 0.08 0.2 0 0 c0.12 -0.08 0.16 -0.24 0.16 -0.4 c-0.16 0 -0.12 0.2 -0.16 0.4 z M45.76000000000001 62.28 c0.04 0.04 0 -0.04 0 0 l0 0 z M45.44000000000001 62.6 c0.12 0.04 0.2 -0.28 0.08 -0.32 c0 0.12 -0.04 0.2 -0.08 0.32 z M45.72000000000001 62.519999999999996 c0 -0.04 0.12 -0.2 0 -0.2 c0.04 0.08 -0.16 0.16 0 0.2 z M46.16000000000001 62.4 c0.04 0.2 0.04 -0.16 0 0 l0 0 z M46.12000000000001 62.56 c-0.04 0.28 0 -0.2 0 0 l0 0 z M45.20000000000001 63.36 c0.08 -0.16 0.12 -0.32 0.2 -0.48 c-0.2 0.04 -0.4 0.4 -0.2 0.48 z M44.72000000000001 64.4 l-0.04 0 c-0.04 0 -0.12 0.16 0 0.16 c0.04 -0.04 0.04 -0.08 0.04 -0.16 c0.08 -0.12 0.36 -0.32 0.12 -0.4 c0.08 0.24 -0.16 0.16 -0.12 0.4 z M44.44000000000001 64.88 c0.08 0 0.2 -0.2 0.08 -0.2 c-0.04 0.08 -0.08 0.12 -0.08 0.2 z M44.12000000000001 65.48 c0.04 -0.04 0.2 -0.16 0.08 -0.24 c0.04 0.12 -0.2 0.16 -0.08 0.24 z M44.00000000000001 65.76 c0.08 0.04 0.2 -0.12 0.08 -0.12 c0 0.04 -0.08 0.08 -0.08 0.12 z M43.72000000000001 66.24 c0.12 0.04 0.28 -0.24 0.08 -0.24 c0 0.12 -0.08 0.16 -0.08 0.24 z M43.56000000000001 66.44 l0.08 0 l0 -0.08 l-0.08 0 l0 0.08 z M43.48000000000001 66.84 c0 -0.12 0.04 -0.12 0.08 -0.28 c-0.16 -0.04 -0.28 0.24 -0.08 0.28 z M43.28000000000001 66.92 c0.08 0.16 0.12 -0.2 0 0 l0 0 z M43.040000000000006 67.44 c0.04 -0.12 0.12 -0.16 0.2 -0.28 c-0.08 0 -0.12 -0.08 -0.2 -0.04 c0.04 0.16 -0.24 0.24 0 0.32 z M43.84000000000001 67.2 c0.04 0.04 0 0 0 0 l0 0 z M42.52000000000001 68.03999999999999 c0.08 -0.2 0.44 -0.32 0.32 -0.52 c-0.08 0.16 -0.44 0.32 -0.32 0.52 z M43.08000000000001 68.24 c0.08 0.16 0.12 -0.2 0 0 l0 0 z M40.88000000000001 69.52 l-0.12 0 l0 0.08 c0.12 0.04 0.12 -0.04 0.12 -0.08 c0.32 -0.16 0.6 -0.36 0.72 -0.72 c-0.28 0.2 -0.48 0.48 -0.72 0.72 z M39.28000000000001 69.84 c-1.04 0.44 -1.84 0.08 -2.76 -0.12 c0.44 0.6 2 0.68 2.76 0.12 z M58.60000000000001 33.92 c-0.04 0.16 -0.28 0.12 -0.36 0.28 c-0.08 -0.12 0.08 -0.36 0.36 -0.28 z M57.68000000000001 34.64 c0.12 -0.16 0.36 -0.44 0.48 -0.4 c-0.12 0.2 -0.28 0.32 -0.48 0.4 z M57.68000000000001 34.64 c-0.04 0.12 -0.16 0.2 -0.28 0.24 c0.08 -0.12 0.08 -0.24 0.28 -0.24 z M53.60000000000001 38.24 l0.08 0 l0 0.08 c-0.04 0 -0.04 0 -0.04 0.04 l-0.08 0 l0 -0.08 c0.04 0 0.04 -0.04 0.04 -0.04 z M48.400000000000006 42 c0.04 -0.12 0.2 0.08 0 0 l0 0 z M48.32000000000001 43.12 c0 -0.08 0 -0.16 0.08 -0.16 c0 0.08 -0.04 0.12 -0.08 0.16 z M47.72000000000001 43.68 c0.12 -0.16 0.08 0.16 0 0 l0 0 z M47.64000000000001 43.8 c0 0.24 -0.24 0.2 -0.28 0.44 c-0.12 -0.16 0.12 -0.4 0.28 -0.44 z M46.88000000000001 45 c0.04 0 0.04 0 0.04 -0.04 c-0.04 -0.04 -0.04 0 -0.04 0.04 z M44.12000000000001 47.96 c0.04 0.12 -0.04 0.16 -0.12 0.2 c0 -0.12 0.08 -0.16 0.12 -0.2 z M43.96000000000001 48.2 c0 -0.04 0 -0.04 0.04 -0.04 c0 0.04 0 0.04 -0.04 0.04 z M43.96000000000001 48.2 c0 0.08 -0.08 0.04 0 0 l0 0 z M43.80000000000001 48.32 c0.04 0.2 -0.24 0.48 -0.44 0.6 c0.12 -0.24 0.32 -0.4 0.44 -0.6 z M41.92000000000001 50.84 c0.4 -0.6 0.92 -1.36 1.36 -1.76 c-0.4 0.64 -0.8 1.28 -1.36 1.76 z M40.76000000000001 52.24 l0 0 c0.04 0.04 0 -0.04 0 0 z M39.76000000000001 54 c0.24 0.08 0 0.24 -0.04 0.36 c-0.16 -0.12 0.04 -0.24 0.04 -0.36 z M39.52000000000001 54.36 c0.16 0.12 -0.08 0.24 -0.08 0.36 c-0.24 -0.08 0.04 -0.24 0.08 -0.36 z M45.52000000000001 63.120000000000005 c0.08 0 0.04 0.08 0 0 l0 0 z M44.28000000000001 65.68 c0.12 -0.2 0.08 0.16 0 0 l0 0 z M43.64000000000001 67.03999999999999 c-0.08 0 -0.08 -0.04 -0.04 -0.12 c0.04 0 0.08 0.04 0.04 0.12 z M43.16000000000001 67.64 l0 0 c0.08 -0.04 0 -0.04 0 0 z M43.16000000000001 67.64 c0 0.2 -0.2 0 0 0 l0 0 z M63.040000000000006 38.92 c-0.04 -0.08 -0.12 -0.04 -0.12 0 c-0.08 -0.04 -0.08 0.04 -0.12 0.04 c0 0.12 0.16 0 0.12 -0.04 l0.12 0 c-0.2 0.24 -0.64 0.28 -0.84 0.56 c0.32 -0.04 0.72 -0.4 1.08 -0.52 c-0.56 0.68 -1.88 1.24 -2.8 0.96 c-0.36 -0.36 -0.8 -0.72 -1.2 -1.04 c-0.24 -0.52 -0.44 -1.08 -0.4 -1.68 c0.2 -3.04 2.92 -7.2 6.12 -6.68 c0.32 0.16 0.68 0.36 0.84 0.68 c0.12 0.76 -0.4 1 -0.12 1.56 c-0.08 0.04 -0.12 0.08 -0.16 0.16 c-0.72 -0.04 -0.6 -0.96 -1.04 -1.24 c-2.04 1.48 -4.2 3.4 -4.2 6.52 c0.08 0.16 0.24 0.28 0.36 0.36 c2.44 -0.48 3.6 -2.24 5.36 -3.36 c0.36 0.76 -0.88 1.64 -1.16 2.24 c-0.12 -0.04 -0.8 0.4 -0.76 0.76 c-0.4 -0.2 -0.56 0.68 -1.08 0.72 z M65.36000000000001 36.72 c0.04 -0.08 0.08 -0.08 0.12 -0.16 c-0.12 -0.04 -0.24 0.12 -0.12 0.16 z M65.12 36.8 l0 0.08 c0.12 0.08 0.16 -0.16 0.08 -0.12 c0 0 -0.04 0.04 -0.08 0.04 z M64.76 37.28 c0 -0.08 0.16 -0.04 0.12 -0.16 c-0.12 -0.04 -0.24 0.12 -0.12 0.16 z M64.32000000000001 37.52 c0.12 -0.04 0.24 -0.04 0.24 -0.2 c-0.08 0.04 -0.2 0.08 -0.24 0.2 z M63.400000000000006 38.56 c-0.12 0 -0.16 0.08 -0.2 0.16 c0.12 0 0.16 -0.08 0.2 -0.16 c0.24 0.04 0.04 -0.16 0 0 z M61.040000000000006 39.76 l0.12 0 l0 -0.08 l-0.12 0 l0 0.08 z M61.60000000000001 39.72 c0.16 0.16 0.12 -0.16 0 0 l0 0 z M61.84000000000001 39.76 c0.04 0.2 0.04 -0.16 0 0 l0 0 z M64.72000000000001 37.6 c0.04 -0.16 0.04 0.2 0 0 l0 0 z M64.56 37.76 l0 0 c0.04 0.04 0 -0.04 0 0 z M63.80000000000001 38.44 l0 0 c0.04 0.04 -0.04 -0.04 0 0 z M64.00000000000001 38.44 c0.12 -0.2 0.04 0.16 0 0 l0 0 z M63.84000000000001 38.56 c-0.12 0.16 -0.24 0.32 -0.48 0.36 c0.12 -0.16 0.28 -0.28 0.48 -0.36 z M75.04000000000002 34.88 c2.08 -0.4 4.2 -1.16 5.96 -2 c0.16 0.04 0.36 -0.04 0.48 0.08 c-0.08 0.28 0.04 0.4 0.12 0.56 c-0.56 0.32 -1.08 0.68 -1.68 0.96 c-0.04 -0.12 0 -0.12 -0.04 -0.28 c-0.08 0.12 -0.2 0.2 -0.28 0 c-0.12 0.04 -0.12 0.2 -0.2 0.28 c0 0.04 0.08 0.04 0.08 0.08 c0.16 0.08 0.12 -0.08 0.12 -0.16 c0.4 0.2 -0.2 0.24 -0.24 0.48 c-0.16 0 -0.08 -0.16 -0.24 -0.12 c-0.24 0.04 0 0.36 -0.12 0.4 c-0.16 0.04 -0.08 -0.28 -0.04 -0.28 c-0.24 0.08 -0.32 0.28 -0.52 0.4 c-0.16 0.04 -0.08 -0.12 -0.2 -0.12 c-0.08 0 -0.08 0.12 -0.08 0.24 c-0.16 0.04 -0.08 -0.16 -0.16 -0.2 c-0.12 0 -0.2 0.2 -0.32 0.04 c-0.16 0.08 0.12 0.12 0.08 0.24 c-0.2 -0.12 -0.28 0.08 -0.52 -0.08 c-0.04 0.2 0.28 0.04 0.24 0.24 c-0.16 0 -0.2 0.04 -0.32 0 l0 -0.2 c-0.24 0.04 -0.24 0.04 -0.44 0.04 c-0.04 0.16 -0.04 0.2 -0.2 0.04 c-0.12 0.12 0.12 0.12 0.04 0.32 c-0.68 0.2 -2.4 0.12 -2.44 1.08 c-0.92 1.24 -1.48 3 -3.4 3.04 c-2.68 -0.56 -2.28 -4.76 -0.64 -6.12 c0 -0.2 0.04 -0.36 -0.04 -0.52 c0.28 -2.88 3.84 -2.52 5.08 -0.76 c0.36 0.76 0.32 1.6 -0.08 2.32 z M73.40000000000002 32.08 c-0.72 0.52 -1.96 0.8 -1.64 2 c-0.24 0.2 -0.52 0.48 -0.52 0.8 c0.52 0.28 1.44 0.36 2.08 0.28 c0.36 -0.96 1.04 -2.32 0.08 -3.08 z M74.52000000000001 33.32 c0 0.04 -0.04 0 0 0 l0 0 z M80.52000000000001 33.92 c0.04 0.16 0.04 -0.2 0 0 l0 0 z M79.96000000000001 34.2 c0.2 0.04 0.04 -0.16 0 0 l0 0 z M79.24000000000001 34.519999999999996 c-0.04 -0.12 0.08 -0.12 0.08 -0.24 c-0.28 -0.04 -0.24 0.24 -0.08 0.24 z M78.96000000000001 34.68 c0.12 0 0.2 0 0.2 -0.12 c-0.08 0 -0.08 -0.08 -0.16 -0.08 c0 0.08 -0.04 0.08 -0.04 0.2 z M78.68000000000002 34.64 l0.16 0 c0 -0.12 -0.08 -0.12 -0.16 -0.12 l0 0.12 z M77.52000000000001 34.92 c0.4 -0.08 0.8 0.04 1.2 -0.16 c-0.28 -0.04 -0.56 0 -0.8 -0.12 c0.04 0.24 -0.36 0.08 -0.4 0.28 z M74.32000000000002 35 c0.04 0.04 -0.04 0 0 0 l0 0 z M76.52000000000001 35.04 c0 0.36 0.6 0.2 0.72 0.08 c-0.28 -0.2 -0.44 0 -0.72 -0.08 z M76.28000000000002 35.24 c-0.24 -0.04 0.04 0.24 0.04 0.04 l0.16 0 c0 -0.12 -0.08 -0.16 -0.2 -0.12 l0 0.08 z M75.84000000000002 35.36 c-0.08 -0.04 -0.08 -0.16 -0.24 -0.12 c-0.08 0.2 0.24 0.28 0.24 0.12 z M70.60000000000001 35.4 c-0.36 0.88 -1.08 2.08 -0.56 3.36 c1.44 -0.24 1.96 -1.36 2.6 -2.4 c-0.88 -0.12 -1.44 -0.56 -2.04 -0.96 z M75.48000000000002 35.44 c0 0.04 -0.04 -0.04 0 0 l0 0 z M76.24000000000001 35.68 c0.16 0.16 0.08 -0.16 0 0 l0 0 z M75.80000000000001 35.76 c-0.04 0 -0.24 -0.08 -0.24 0 c0.08 0.08 0.2 0.2 0.24 0 z M75.84000000000002 35.76 c0.2 0.08 0.04 -0.12 0 0 l0 0 z M76.08000000000001 35.76 c0.04 0.08 0.08 0 0 0 c0 -0.04 -0.04 0.04 0 0 z M75.48000000000002 35.84 c0.12 0.16 0.04 -0.16 0 0 l0 0 z M75.16000000000001 35.92 c-0.04 0 -0.04 -0.08 -0.12 -0.04 c-0.08 0.12 0.16 0.12 0.12 0.04 z M76.28000000000002 35.24 c0.04 0 0.04 0 0.04 0.04 c0 0 -0.04 0 -0.04 -0.04 z M87.68000000000002 34.88 c2.08 -0.4 4.2 -1.16 5.96 -2 c0.16 0.04 0.36 -0.04 0.48 0.08 c-0.08 0.28 0.04 0.4 0.12 0.56 c-0.56 0.32 -1.08 0.68 -1.68 0.96 c-0.04 -0.12 0 -0.12 -0.04 -0.28 c-0.08 0.12 -0.2 0.2 -0.28 0 c-0.12 0.04 -0.12 0.2 -0.2 0.28 c0 0.04 0.08 0.04 0.08 0.08 c0.16 0.08 0.12 -0.08 0.12 -0.16 c0.4 0.2 -0.2 0.24 -0.24 0.48 c-0.16 0 -0.08 -0.16 -0.24 -0.12 c-0.24 0.04 0 0.36 -0.12 0.4 c-0.16 0.04 -0.08 -0.28 -0.04 -0.28 c-0.24 0.08 -0.32 0.28 -0.52 0.4 c-0.16 0.04 -0.08 -0.12 -0.2 -0.12 c-0.08 0 -0.08 0.12 -0.08 0.24 c-0.16 0.04 -0.08 -0.16 -0.16 -0.2 c-0.12 0 -0.2 0.2 -0.32 0.04 c-0.16 0.08 0.12 0.12 0.08 0.24 c-0.2 -0.12 -0.28 0.08 -0.52 -0.08 c-0.04 0.2 0.28 0.04 0.24 0.24 c-0.16 0 -0.2 0.04 -0.32 0 l0 -0.2 c-0.24 0.04 -0.24 0.04 -0.44 0.04 c-0.04 0.16 -0.04 0.2 -0.2 0.04 c-0.12 0.12 0.12 0.12 0.04 0.32 c-0.68 0.2 -2.4 0.12 -2.44 1.08 c-0.92 1.24 -1.48 3 -3.4 3.04 c-2.68 -0.56 -2.28 -4.76 -0.64 -6.12 c0 -0.2 0.04 -0.36 -0.04 -0.52 c0.28 -2.88 3.84 -2.52 5.08 -0.76 c0.36 0.76 0.32 1.6 -0.08 2.32 z M86.04000000000002 32.08 c-0.72 0.52 -1.96 0.8 -1.64 2 c-0.24 0.2 -0.52 0.48 -0.52 0.8 c0.52 0.28 1.44 0.36 2.08 0.28 c0.36 -0.96 1.04 -2.32 0.08 -3.08 z M87.16000000000001 33.32 c0 0.04 -0.04 0 0 0 l0 0 z M93.16000000000001 33.92 c0.04 0.16 0.04 -0.2 0 0 l0 0 z M92.60000000000002 34.2 c0.2 0.04 0.04 -0.16 0 0 l0 0 z M91.88000000000002 34.519999999999996 c-0.04 -0.12 0.08 -0.12 0.08 -0.24 c-0.28 -0.04 -0.24 0.24 -0.08 0.24 z M91.60000000000002 34.68 c0.12 0 0.2 0 0.2 -0.12 c-0.08 0 -0.08 -0.08 -0.16 -0.08 c0 0.08 -0.04 0.08 -0.04 0.2 z M91.32000000000002 34.64 l0.16 0 c0 -0.12 -0.08 -0.12 -0.16 -0.12 l0 0.12 z M90.16000000000001 34.92 c0.4 -0.08 0.8 0.04 1.2 -0.16 c-0.28 -0.04 -0.56 0 -0.8 -0.12 c0.04 0.24 -0.36 0.08 -0.4 0.28 z M86.96000000000002 35 c0.04 0.04 -0.04 0 0 0 l0 0 z M89.16000000000001 35.04 c0 0.36 0.6 0.2 0.72 0.08 c-0.28 -0.2 -0.44 0 -0.72 -0.08 z M88.92000000000002 35.24 c-0.24 -0.04 0.04 0.24 0.04 0.04 l0.16 0 c0 -0.12 -0.08 -0.16 -0.2 -0.12 l0 0.08 z M88.48000000000002 35.36 c-0.08 -0.04 -0.08 -0.16 -0.24 -0.12 c-0.08 0.2 0.24 0.28 0.24 0.12 z M83.24000000000001 35.4 c-0.36 0.88 -1.08 2.08 -0.56 3.36 c1.44 -0.24 1.96 -1.36 2.6 -2.4 c-0.88 -0.12 -1.44 -0.56 -2.04 -0.96 z M88.12000000000002 35.44 c0 0.04 -0.04 -0.04 0 0 l0 0 z M88.88000000000001 35.68 c0.16 0.16 0.08 -0.16 0 0 l0 0 z M88.44000000000001 35.76 c-0.04 0 -0.24 -0.08 -0.24 0 c0.08 0.08 0.2 0.2 0.24 0 z M88.48000000000002 35.76 c0.2 0.08 0.04 -0.12 0 0 l0 0 z M88.72000000000001 35.76 c0.04 0.08 0.08 0 0 0 c0 -0.04 -0.04 0.04 0 0 z M88.12000000000002 35.84 c0.12 0.16 0.04 -0.16 0 0 l0 0 z M87.80000000000001 35.92 c-0.04 0 -0.04 -0.08 -0.12 -0.04 c-0.08 0.12 0.16 0.12 0.12 0.04 z M88.92000000000002 35.24 c0.04 0 0.04 0 0.04 0.04 c0 0 -0.04 0 -0.04 -0.04 z M104.92000000000002 35.68 l-0.04 0 c0 0.08 0.04 0.04 0.04 0 c0.08 0.04 0.16 -0.04 0.08 -0.08 c0.2 -0.24 1.28 -0.44 1.68 -0.96 c0.04 0.08 0.12 0.2 0.24 0.04 c0.88 -0.64 2 -1.08 3 -1.72 c0.32 -0.04 0.64 -0.32 0.92 -0.52 c-0.16 -0.04 -0.4 0.24 -0.68 0.28 c0.24 -0.28 0.64 -0.4 1 -0.6 c0 0.64 -0.8 0.92 -1.12 1.4 c-2.04 0.84 -3.64 2.12 -5.68 2.92 c-0.04 0.04 -0.04 0.08 -0.04 0.16 c-0.68 0.08 -1.88 0.36 -2.68 0.68 c0.4 -0.04 0.84 0.04 1.24 -0.16 c0.08 0.24 -0.56 0.2 -0.64 0.44 c0.28 -0.08 0.56 -0.16 0.76 -0.28 c0 0.2 -0.64 0.36 -0.8 0.44 c0.28 0.16 0.56 -0.28 0.76 -0.16 c-0.04 0.08 -0.12 0.08 -0.04 0.2 c0.44 0 0.64 -0.4 0.96 -0.36 c0.28 -0.4 1.68 -0.52 1.96 -1.12 c0.48 -0.08 0.76 -0.44 1.24 -0.6 c0 -0.04 -0.04 -0.04 -0.12 -0.04 c0.84 -0.48 1.68 -1 2.64 -1.4 c-0.4 0.32 -0.88 0.56 -1.32 0.88 c0.04 0.04 0.04 0.12 0.12 0.08 c-0.04 0.08 -0.28 0.16 -0.16 0 c-1.72 1.4 -3.92 2.24 -6.04 3.36 c-1.48 0.44 -3.76 1.24 -5.24 0.2 c-0.28 -0.28 -0.4 -0.76 -0.68 -1.04 c-0.56 2.76 -0.52 6 -1.04 8.56 c-0.4 0.28 -0.36 0.96 -0.92 1.08 c-0.28 -0.16 -0.56 -0.12 -0.84 -0.36 c-0.28 -1.84 0.48 -3.76 0.36 -5.56 c0.32 -1.72 0.56 -3.56 0.76 -5.52 c-0.24 0.12 -0.44 0 -0.8 -0.04 c0.08 -0.8 0.72 -1 1.04 -1.52 c0.2 -1.92 0.56 -3.6 0.88 -5.24 c0.08 -0.08 0.24 -0.04 0.28 -0.12 c0.04 -0.2 0.08 -0.36 0.12 -0.56 c0.2 -0.44 0.16 -0.92 0.32 -1.6 c-0.24 0.36 -0.36 1.2 -0.32 1.6 c-0.16 0.08 -0.2 0.28 -0.2 0.48 c-0.24 -0.12 -0.04 -0.64 0.08 -0.8 c0.16 -1.2 0.36 -2.4 0.84 -3.36 c-0.04 0.28 -0.2 0.64 -0.2 1 c0.48 -1.52 0.76 -3 1.28 -4.52 c-0.4 0.56 -0.44 1.28 -0.72 2 c0 -0.8 0.4 -2.04 0.88 -2.76 c-0.04 0.24 -0.12 0.4 -0.16 0.68 c0.24 -0.36 0.32 -1.08 0.48 -1.64 c-0.24 0.12 -0.04 0.68 -0.36 0.76 c0.16 -0.36 0.12 -0.96 0.48 -1.16 c0 0.04 -0.04 0.08 -0.08 0.12 c0.32 -0.36 0.48 -0.84 0.6 -1.36 c-0.16 0.12 -0.2 0.32 -0.24 0.52 c-0.16 -0.36 0.12 -0.72 0.32 -0.92 c0.04 0.16 -0.12 0.12 -0.08 0.32 c0.36 -0.52 0.44 -1.28 0.8 -1.8 c0 -0.08 -0.08 -0.08 -0.12 -0.04 c-0.08 -0.16 0.4 -0.24 0.12 -0.32 c0.24 -0.12 0.28 -0.44 0.44 -0.64 c-0.2 -0.04 -0.08 0.24 -0.28 0.24 c0.08 -0.28 0.2 -0.56 0.44 -0.72 c-0.04 0.12 -0.12 0.2 -0.12 0.32 c0.64 -1.24 1.68 -3 2.6 -4.2 c0.6 -0.8 1.6 -1.48 2.72 -0.92 c0 0.24 0.36 0.16 0.48 0.24 c0.6 0.8 0.64 2.64 0.4 3.6 c0 0.36 0.2 1.12 -0.2 1.28 c0.24 0.44 -0.16 0.96 -0.28 1.52 c0 0.08 0.12 0 0.16 0.08 c-0.48 2 -0.72 4.2 -1.8 5.48 c-0.08 0.28 0.08 0.36 0.04 0.52 c0 0.16 -0.08 0.28 -0.28 0.28 c-0.04 1.08 -0.44 1.84 -0.96 2.52 c0.12 0.2 0 0.36 0 0.6 c-0.16 0.36 -0.76 0.76 -0.6 1.12 c-0.6 1 -1.12 1.84 -1.76 2.76 c-0.04 0.12 0 0.32 -0.08 0.4 c-0.12 0.04 -0.12 -0.08 -0.24 -0.04 c0.04 0.12 0.04 0.2 0 0.32 c-0.2 0 -0.28 0.24 -0.4 0.16 c-0.44 1.28 -1.64 1.96 -2.32 3.2 c-0.56 0.16 -0.76 0.68 -1.12 1.08 c0.56 0.12 0.96 -0.68 1.52 -0.84 c0.48 -0.36 1.04 -0.68 1.56 -1 c1 -0.68 1.92 -1.48 3.32 -1.76 c0.24 0.08 0.36 0.28 0.4 0.56 c-0.12 0.24 -0.28 0.44 -0.32 0.76 c-2.32 1.16 -4.2 2.76 -6.28 4.12 c-0.08 0.44 0.32 0.4 0.36 0.68 c2.32 0.68 4.76 -0.48 6.8 -1.4 c0.08 0 0.08 0.04 0.04 0.12 c0.28 -0.36 0.6 -0.16 0.8 -0.48 c0.04 0 0.08 0.04 0.04 0.08 z M102.52000000000001 22.88 c1.32 -3.96 2.92 -7.68 2.6 -12.36 c-0.04 0 -0.04 -0.04 -0.12 -0.04 c-2.08 2 -3.24 5 -4.56 7.6 c-0.84 2.64 -1.68 5.48 -2.48 8.28 c-0.24 1.44 -0.56 3.68 -0.88 5.48 c2.32 -2.36 3.96 -5.6 5.44 -8.96 z M105.40000000000002 13.760000000000002 c0.16 0.16 0.08 -0.16 0 0 l0 0 z M105.40000000000002 13.879999999999999 c0.08 0.2 0.08 -0.16 0 0 l0 0 z M105.64000000000001 14.2 c0 -0.08 -0.04 -0.12 -0.08 -0.16 c0 0.08 0 0.16 0.08 0.16 z M104.88000000000002 18.12 c0.08 -0.56 0.44 -1.32 0.36 -1.92 c0 0.08 -0.04 0.16 0.08 0.16 c-0.16 -0.32 0.04 -0.24 0.08 -0.56 c-0.12 -0.04 -0.16 0.24 -0.24 0.08 c0.16 -0.56 0.24 -1.16 0.44 -1.56 c-0.64 1.12 -0.68 2.6 -0.72 3.8 z M105.36000000000001 15.48 c0.16 -0.04 0.16 -0.28 0.04 -0.32 c0.04 0.16 -0.04 0.16 -0.04 0.32 z M100.60000000000002 15.399999999999999 c0.08 0.16 0.08 -0.2 0 0 l0 0 z M100.52000000000001 16.28 c0.04 0.04 0 0 0 0 l0 0 z M96.96000000000002 32.56 c0.04 0.2 -0.12 0.24 -0.08 0.44 c3.76 -3.68 6.2 -9.4 7.56 -14.92 c-1.76 5.52 -3.8 10.56 -7.48 14.48 z M104.76000000000002 18.64 c0 -0.12 0.16 -0.32 0.04 -0.44 c0.04 0.2 -0.2 0.32 -0.04 0.44 z M98.92000000000002 20 c0.16 0.08 0.16 -0.2 0.08 -0.2 c-0.04 0.08 -0.08 0.08 -0.08 0.2 z M98.88000000000001 20.32 c0.04 -0.04 0.12 -0.16 0 -0.2 c0 0.04 -0.12 0.2 0 0.2 z M98.76000000000002 20.52 c0.12 0.2 0.04 -0.16 0 0 l0 0 z M98.64000000000001 20.8 c0.12 0 0.16 -0.04 0.16 -0.12 c-0.12 -0.04 -0.12 0.08 -0.16 0.12 z M98.68000000000002 21.2 c0 -0.08 -0.04 -0.12 -0.08 -0.16 c0 0.08 0 0.16 0.08 0.16 z M98.44000000000001 21.32 c0.08 0.2 0.08 -0.16 0 0 l0 0 z M103.00000000000001 23.72 c0.08 0.2 0.08 -0.16 0 0 l0 0 z M97.88000000000001 23.92 c0 -0.08 -0.04 -0.12 -0.08 -0.12 c0 0.04 -0.04 0.16 0.08 0.12 z M97.60000000000002 24.68 c-0.04 -0.16 0.2 -0.36 0.04 -0.52 c-0.04 0.24 -0.2 0.4 -0.04 0.52 z M102.52000000000001 24.68 c0.04 0.04 0 0 0 0 l0 0 z M102.40000000000002 25.08 c0.16 0.16 0.08 -0.16 0 0 l0 0 z M102.28000000000002 25.560000000000002 c0.2 -0.04 0.2 -0.36 -0.04 -0.32 c0.04 0.16 0.16 0.16 0.04 0.32 z M96.52000000000001 26 c0.16 0.04 0.12 -0.12 0.16 -0.16 c-0.12 0 -0.16 0.04 -0.16 0.16 z M102.12000000000002 26.08 c0 0.04 -0.04 0 0 0 l0 0 z M96.48000000000002 26.72 c0 -0.2 0.2 -0.48 0.04 -0.64 c0 0.2 -0.2 0.56 -0.04 0.64 z M101.96000000000002 26.119999999999997 c0.04 0.2 0.04 -0.16 0 0 l0 0 z M97.16000000000001 26.84 c0.04 0 0.12 -0.2 -0.04 -0.16 c0 0.04 -0.04 0.16 0.04 0.16 z M101.48000000000002 27.2 c0.16 0.08 0.16 -0.24 0 -0.16 l0 0.16 z M96.84000000000002 27.92 c0.2 -0.08 0.28 -0.6 0.12 -0.64 c0 0.2 -0.08 0.4 -0.12 0.64 z M101.24000000000001 27.64 c-0.08 0.2 0.12 -0.24 0 0 l0 0 z M101.08000000000001 27.92 c0.16 0.08 0.16 -0.24 0 -0.16 l0 0.16 z M100.60000000000002 28.72 c0.12 -0.04 0.2 -0.12 0.24 -0.24 c-0.2 -0.04 -0.32 0.12 -0.24 0.24 z M100.24000000000001 29.6 c0.16 -0.12 -0.16 -0.2 0 -0.36 c-0.24 0 -0.12 0.32 0 0.36 z M100.28000000000002 29.36 c0.04 0.04 0 -0.04 0 0 l0 0 z M99.96000000000002 29.96 c0 0 0 -0.04 0.04 -0.04 c0 -0.04 -0.04 -0.12 -0.12 -0.08 c0.04 0.04 0 0.12 0.08 0.12 z M95.52000000000001 31 c0.12 0.24 0.12 -0.2 0 0 l0 0 z M98.88000000000001 31.28 c0.04 -0.16 0.08 -0.08 0.2 -0.04 c-0.04 -0.16 0.08 -0.16 0.04 -0.24 c-0.12 0 -0.32 0.2 -0.24 0.28 z M95.52000000000001 31.28 c0.08 0.2 0.08 -0.2 0 0 l0 0 z M110.88000000000002 32.44 c0.08 0 0.12 -0.04 0.16 -0.12 c-0.08 0 -0.12 0.04 -0.16 0.12 z M97.00000000000001 33.44 c0.12 0 0.16 -0.08 0.24 0 c-0.04 -0.2 0.16 -0.16 0.16 -0.36 c-0.2 0.08 -0.32 0.16 -0.4 0.36 z M110.08000000000001 33.32 c0 -0.04 0.12 -0.04 0.08 -0.12 c-0.08 -0.04 -0.2 0.12 -0.08 0.12 z M109.88000000000002 33.480000000000004 c0 -0.04 0.08 -0.12 0 -0.16 c0 0.08 -0.08 0.12 0 0.16 z M109.48000000000002 33.64 c0.08 0 0.12 -0.04 0.16 -0.12 c-0.08 0 -0.12 0.04 -0.16 0.12 z M94.48000000000002 35.480000000000004 l0.2 0 l0 -0.12 c-0.12 0 -0.16 0.08 -0.2 0.12 z M102.00000000000001 37.64 c0.08 0 0.12 -0.04 0.16 -0.08 c-0.08 0 -0.16 0 -0.16 0.08 z M101.88000000000002 37.64 c0.04 0.2 0.04 -0.16 0 0 l0 0 z M102.16000000000001 38.04 c0.2 -0.16 0.72 0 0.68 -0.4 c-0.24 0.16 -0.6 0.16 -0.68 0.4 z M101.64000000000001 38.24 c0.24 -0.04 0.36 0 0.4 -0.24 c-0.16 0.04 -0.4 0.04 -0.4 0.24 z M101.56000000000002 38.28 c0 -0.08 -0.04 -0.12 -0.08 -0.16 c-0.08 0.08 -0.08 0.2 0.08 0.16 z M101.04000000000002 38.32 c-0.12 0.16 0.16 -0.12 0 0 l0 0 z M99.72000000000001 15.96 c-0.04 0.08 0 0.16 -0.12 0.16 l0 -0.12 c0.04 0 0.08 0 0.04 -0.04 l0.08 0 z M97.08000000000001 23.44 c0.08 0.24 -0.08 0.6 -0.16 0.76 c-0.08 -0.28 0.08 -0.52 0.16 -0.76 z M109.92000000000002 32.96 c-0.12 -0.04 0.04 -0.16 0.04 -0.2 c0.16 0.04 -0.04 0.12 -0.04 0.2 z M108.28000000000002 33.8 c0.04 -0.12 0.2 0.08 0 0 l0 0 z M109.64000000000001 33.8 c-0.08 0.16 -0.28 0.24 -0.48 0.32 c0.12 -0.16 0.28 -0.24 0.48 -0.32 z M107.68000000000002 34.16 l0 0 c0.04 0.04 -0.04 -0.04 0 0 z M109.60000000000002 34.24 l0 0 c0.08 -0.04 0 -0.04 0 0 z M108.76000000000002 34.28 c0.12 -0.16 0.08 0.16 0 0 l0 0 z M108.52000000000001 34.36 l0.12 0 l0 0.08 l-0.12 0 l0 -0.08 z M108.40000000000002 34.44 c0.16 -0.04 0.04 0.16 0.2 0.16 c-0.04 0.08 -0.28 0 -0.2 -0.16 z M106.92000000000002 34.68 c-0.12 0 -0.08 -0.2 0.04 -0.16 c0 0.08 -0.08 0.08 -0.04 0.16 z M108.12000000000002 34.72 l0 0 c0 0.04 -0.04 0 0 0 z M108.92000000000002 34.76 l0.08 0 l0 0.12 l-0.08 0 l0 -0.12 z M106.32000000000002 34.88 c0 -0.16 0.2 0.04 0 0 l0 0 z M108.48000000000002 35.12 c0.04 -0.08 0.08 -0.12 0.2 -0.12 c0 0.12 -0.08 0.12 -0.2 0.12 z M107.56000000000002 35.16 c0.12 -0.2 0.08 0.16 0 0 l0 0 z M108.44000000000001 35.16 c0 -0.04 0 -0.04 0.04 -0.04 c0 0.04 0 0.04 -0.04 0.04 z M107.48000000000002 35.2 c0.04 -0.2 0.04 0.2 0 0 l0 0 z M108.40000000000002 35.2 c0 -0.04 0 -0.04 0.04 -0.04 c0 0.04 0 0.04 -0.04 0.04 z M106.76000000000002 35.56 c0 0.08 -0.12 0.04 -0.16 0.12 c-0.12 -0.04 0.08 -0.16 0.16 -0.12 z M106.96000000000002 35.64 c0 0.16 -0.2 -0.04 0 0 l0 0 z M106.72000000000001 35.8 l0 0 c0.04 0 -0.04 -0.04 0 0 z M106.28000000000002 35.84 l0 0 c0.04 0.04 0 -0.04 0 0 z M105.88000000000002 36.04 c0.04 -0.16 0.2 0.04 0 0 l0 0 z M105.80000000000001 36.08 l0 0 c0.04 0.04 0 -0.04 0 0 z M105.56000000000002 36.12 l0.08 0 l0 0.08 l-0.08 0 l0 -0.08 z M105.84000000000002 36.28 c-0.12 -0.04 0.04 -0.2 0 0 l0 0 z M105.40000000000002 36.28 l0 0 c0.04 0 0 -0.04 0 0 z M105.28000000000002 36.32 c0.04 -0.2 0.04 0.2 0 0 l0 0 z M105.12000000000002 36.36 c0.08 -0.2 0.08 0.2 0 0 l0 0 z M104.92000000000002 36.52 c0.08 -0.2 0.08 0.16 0 0 l0 0 z M104.80000000000001 36.56 l0 0 c0.04 0.04 -0.04 -0.04 0 0 z M104.40000000000002 36.76 c0 0.04 -0.04 0.08 -0.12 0.08 c-0.04 -0.12 0.04 -0.08 0.12 -0.08 z M103.24000000000001 36.8 c0.16 0.04 -0.04 0.08 -0.04 0.12 c-0.16 -0.04 0.08 -0.08 0.04 -0.12 z M103.40000000000002 37 c-0.04 0.04 -0.12 0.08 -0.2 0.08 c0.04 -0.08 0.12 -0.2 0.2 -0.08 z M103.72000000000001 37.04 c0.12 -0.2 0.08 0.16 0 0 l0 0 z M102.48000000000002 37.12 c0.12 -0.16 0.08 0.16 0 0 l0 0 z M103.00000000000001 37.08 l0.12 0 l0 0.08 l-0.12 0 l0 -0.08 z M103.40000000000002 37.16 c0.04 0.16 -0.12 0.12 -0.2 0.12 c0.04 -0.08 0.12 -0.08 0.2 -0.12 z M103.44000000000001 37.36 c0.04 -0.08 0.16 -0.12 0.28 -0.12 c-0.04 0.08 -0.16 0.12 -0.28 0.12 z M103.80000000000001 37.36 l0 0 c0 0.04 -0.04 0 0 0 z M103.44000000000001 37.36 c-0.12 0.08 -0.24 0.16 -0.36 0.2 c0 -0.16 0.2 -0.2 0.36 -0.2 z">
		</path>
	</g>
</svg>
