<svg id="3h2CRn1if" viewBox="0 0 369.9130434782609 109.0580097143201" height="109.0580097143201" width="369.9130434782609" style="width: 369.913px; height: 109.058px; position: absolute; top: 50%; left: 50%; z-index: 0; cursor: pointer; transform: translate(-50%, -50%) scale(0.566079);">
	<defs id="SvgjsDefs1427">
		<linearGradient id="SvgjsLinearGradient1432">
			<stop id="SvgjsStop1433" stop-color="#8f5e25" offset="0">
			</stop>
			<stop id="SvgjsStop1434" stop-color="#fbf4a1" offset="0.5">
			</stop>
			<stop id="SvgjsStop1435" stop-color="#8f5e25" offset="1">
			</stop>
		</linearGradient>
		<linearGradient id="SvgjsLinearGradient1436">
			<stop id="SvgjsStop1437" stop-color="#8f5e25" offset="0">
			</stop>
			<stop id="SvgjsStop1438" stop-color="#fbf4a1" offset="0.5">
			</stop>
			<stop id="SvgjsStop1439" stop-color="#8f5e25" offset="1">
			</stop>
		</linearGradient>
	</defs>
	<g id="SvgjsG1428" featurekey="symbolFeature-0" transform="matrix(1.2681159420289856,0,0,1.2681159420289856,-25.36231884057971,-8.876811594202898)" fill="url(#SvgjsLinearGradient1432)">
		<path xmlns="http://www.w3.org/2000/svg" style="font-size:medium;font-style:normal;font-variant:normal;font-weight:normal;font-stretch:normal;text-indent:0;text-align:start;text-decoration:none;line-height:normal;letter-spacing:normal;word-spacing:normal;text-transform:none;direction:ltr;block-progression:tb;writing-mode:lr-tb;text-anchor:start;baseline-shift:baseline;opacity:1;color:;fill:url(#SvgjsLinearGradient1432);fill-opacity:1;stroke:none;stroke-width:2;marker:none;visibility:visible;display:inline;overflow:visible;enable-background:accumulate;font-family:Sans;-inkscape-font-specification:Sans" d="M 27 7 C 25.355297 7 24 8.3552972 24 10 L 24 18 C 21.801297 18 20 19.801297 20 22 C 20 24.198703 21.801297 26 24 26 L 24.0625 26 L 33 92.125 A 1.0001 1.0001 0 0 0 34 93 L 66 93 A 1.0001 1.0001 0 0 0 67 92.125 L 75.25 31.125 A 1.0077822 1.0077822 0 0 0 73.25 30.875 L 65.125 91 L 34.875 91 L 26.09375 26 L 49 26 L 49 40 L 43 40 A 1.0001 1.0001 0 0 0 42.90625 40 A 1.0001 1.0001 0 0 0 42 41 L 42 55 A 1.0001 1.0001 0 0 0 43 56 L 57 56 A 1.0001 1.0001 0 0 0 58 55 L 58 41 A 1.0001 1.0001 0 0 0 57 40 L 51 40 L 51 26 L 76 26 C 78.198703 26 80 24.198703 80 22 C 80 19.801297 78.198703 18 76 18 L 76 15 C 76 13.355297 74.644703 12 73 12 L 46.28125 12 L 38.53125 7.15625 A 1.0001 1.0001 0 0 0 38 7 L 27 7 z M 27 9 L 37.71875 9 L 45.46875 13.84375 A 1.0001 1.0001 0 0 0 46 14 L 73 14 C 73.571297 14 74 14.428703 74 15 L 74 18 L 26 18 L 26 10 C 26 9.4287028 26.428703 9 27 9 z M 24 20 L 76 20 C 77.125297 20 78 20.874703 78 22 C 78 23.125297 77.125297 24 76 24 L 24 24 C 22.874703 24 22 23.125297 22 22 C 22 20.874703 22.874703 20 24 20 z M 44 42 L 56 42 L 56 54 L 44 54 L 44 42 z ">
		</path>
	</g>
	<g id="SvgjsG1429" featurekey="nameFeature-0" transform="matrix(1.4585358840636986,0,0,1.4585358840636986,95.0665393153871,11.772881809496363)" fill="url(#SvgjsLinearGradient1436)">
		<path d="M0.64 13.52 l0 -2.32 l20.96 0 l0 2.32 l-9.12 0 l0 26.48 l-2.72 0 l0 -26.48 l-9.12 0 z M38.68000000000001 32.36 l0 -3.24 c-2.04 0.84 -4.12 1 -6.2 1.16 c-3.64 0.28 -5.84 1.6 -5.84 4.4 c0 2.52 2.2 3.72 4.48 3.72 c3.8 0 7.56 -1.84 7.56 -6.04 z M31.32 28.36 l3.32 -0.44 c0.88 -0.08 2.36 -0.32 3.16 -0.68 s0.88 -1.44 0.88 -2.16 c0 -2.44 -1.44 -4.2 -5.16 -4.2 c-3.32 0 -5.6 1.08 -6.04 4.68 l-2.44 0 c0.36 -4.88 4 -6.84 8.52 -6.84 c4.2 0 7.52 1.64 7.52 6.44 l0 11.28 c0 1.88 0.48 2.32 2.52 1.6 l0 1.88 c-0.36 0.12 -1.2 0.4 -1.88 0.4 c-0.4 0 -0.72 -0.04 -1.08 -0.12 c-1.6 -0.24 -1.88 -1.64 -1.92 -3.08 c-2 2.24 -4.72 3.44 -7.72 3.44 c-3.64 0 -6.92 -1.96 -6.92 -5.96 c0 -3.48 2.4 -5.6 7.24 -6.24 z M46.32000000000001 33.519999999999996 l2.44 0 c0.76 3.56 2.6 4.88 6.2 4.88 c3.48 0 5.12 -1.84 5.12 -3.84 c0 -6 -13.28 -1.76 -13.28 -9.92 c0 -3.44 2.68 -5.92 7.28 -5.92 c4.48 0 7.4 1.84 8 6.52 l-2.44 0 c-0.44 -3.2 -2.6 -4.36 -5.6 -4.36 c-3.04 0 -4.68 1.44 -4.68 3.56 c0 5.64 13.28 2.12 13.28 10.08 c0 3.96 -3.56 6.04 -8.44 6.04 s-7.68 -3.12 -7.88 -7.04 z M74.64 38.12 l0 1.96 c-0.56 0.12 -1.6 0.48 -2.76 0.48 c-2.36 0 -3.68 -1.04 -3.68 -4.12 l0 -15.16 l-2.92 0 l0 -2 l2.92 0 l0 -5.76 l2.4 0 l0 5.76 l3.88 0 l0 2 l-3.88 0 l0 14.2 c0 2.04 0.08 2.92 2.08 2.92 c0.64 0 1.32 -0.12 1.96 -0.28 z M78.32000000000001 47.88 l0 -2.24 c0.64 0.12 1.32 0.24 2 0.24 c2.72 0 3.12 -3.92 4.04 -5.72 l-8.04 -20.88 l2.68 0 l6.64 17.8 l6.64 -17.8 l2.6 0 l-7.72 20.44 c-1.96 5.2 -3.24 8.44 -6.56 8.44 c-0.84 0 -1.64 -0.12 -2.28 -0.28 z M122.08000000000001 19.56 l-2.8 0 c-1.12 -4.92 -4.16 -6.8 -9.08 -6.8 c-6.96 0 -9.96 5.96 -9.96 12.76 c0 6.44 2.36 12.92 10.2 12.92 c4.96 0 8.04 -3.36 9.12 -7.92 l2.84 0 c-1.28 5.56 -4.76 10.24 -12.48 10.24 c-8.88 0 -12.4 -7 -12.4 -15.16 c0 -11 5.76 -15.16 13.4 -15.16 c5.92 0 10.24 3.16 11.16 9.12 z M135.6 40.56 c-5.28 -0.08 -9.6 -3.68 -9.6 -10.92 c0 -6.04 3.2 -10.92 9.6 -10.92 c6.48 0 9.6 4.84 9.6 10.92 c0 6.56 -3.8 10.92 -9.6 10.92 z M142.64000000000001 29.64 c-0.04 -4.88 -1.96 -8.76 -7.04 -8.76 c-5.04 0 -7.04 4.28 -7.04 8.76 c0 5.16 2.44 8.76 7.04 8.76 c5.04 0 7.04 -4.32 7.04 -8.76 z M157.84 40.56 c-5.28 -0.08 -9.6 -3.68 -9.6 -10.92 c0 -6.04 3.2 -10.92 9.6 -10.92 c6.48 0 9.6 4.84 9.6 10.92 c0 6.56 -3.8 10.92 -9.6 10.92 z M164.88 29.64 c-0.04 -4.88 -1.96 -8.76 -7.04 -8.76 c-5.04 0 -7.04 4.28 -7.04 8.76 c0 5.16 2.44 8.76 7.04 8.76 c5.04 0 7.04 -4.32 7.04 -8.76 z M174.08 40 l-2.4 0 l0 -28.8 l2.4 0 l0 17.92 l10.16 -9.84 l3.28 0 l-7.76 7.48 l8.68 13.24 l-2.68 0 l-7.76 -11.56 l-3.92 3.72 l0 7.84 z">
		</path>
	</g>
</svg>
