<svg id="M0Uy0a8sp" viewBox="0 -5 350 211.75684056961734" height="211.75684056961734" width="350" style="width: 350px; height: 211.757px; position: absolute; top: 50%; left: 50%; z-index: 0; cursor: pointer; transform: translate(-50%, -50%) scale(0.598286);">
	<defs id="SvgjsDefs1290">
	</defs>
	<g id="SvgjsG1291" featurekey="symbolFeature-0" transform="matrix(1.5555236446192426,0,0,1.5555236446192426,97.22330894124656,-21.09467104505811)" fill="#000000">
		<path xmlns="http://www.w3.org/2000/svg" d="M65.369,18.946c-7.581,7.581-8.215,15.848-5.816,21.288c0.223,0.502,0.184,1.118-0.309,1.554L19.353,77.234  c-3.376,3-3.221,6.57,0.082,9.873c3.303,3.304,6.872,3.457,9.871,0.082l35.448-39.893c0.438-0.491,1.051-0.529,1.555-0.308  c5.439,2.397,13.705,1.763,21.287-5.817c8.01-8.009,9.946-19.702,3.711-25.938C85.07,8.998,73.379,10.937,65.369,18.946z">
		</path>
		<path xmlns="http://www.w3.org/2000/svg" d="M34.412,46.546c0.46-0.299,1.037-0.321,1.474,0.171l5.617,6.313l6.57-5.837l-6.695-5.957  c-0.491-0.438-0.47-1.015-0.17-1.474c3.543-5.437,1.646-11.108-3.436-15.376L21.471,11.021c-1.066-0.867-2.132-0.93-3.061-0.001  c-0.932,0.932-0.93,2.134-0.001,3.063l13.49,13.487c0.982,0.984,0.982,2.25,0,3.232l-0.074,0.075c-0.982,0.981-2.25,0.981-3.233,0  L15.104,17.388c-0.93-0.929-2.132-0.93-3.063,0.001c-0.931,0.931-0.93,2.133,0.001,3.061l13.487,13.49  c0.984,0.983,0.984,2.25,0,3.231l-0.072,0.075c-0.982,0.981-2.25,0.981-3.233-0.001L8.735,23.756c-0.93-0.929-2.132-0.931-3.062,0  c-0.93,0.93-0.866,1.995,0.001,3.061l13.365,16.301C23.308,48.201,28.975,50.09,34.412,46.546z">
		</path>
		<path xmlns="http://www.w3.org/2000/svg" d="M81.844,77.241L59.965,57.773l-7.117,8.009l19.047,21.407c2.998,3.375,6.565,3.217,9.866-0.084  C85.063,83.809,85.217,80.24,81.844,77.241z">
		</path>
	</g>
	<g id="SvgjsG1292" featurekey="nameFeature-0" transform="matrix(2.203894229295663,0,0,2.203894229295663,-4.406261765561155,117.54913865223051)" fill="#000000">
		<path d="M14.44 16.892 c-1.0321 0.067228 -2.0658 0.090428 -3.255 0.13902 c0 1.8896 -0.0097264 3.6661 0.0020312 5.4432 c0.035234 5.3408 0.078592 10.681 0.1191 16.022 c0.0016016 0.19442 0.01293 0.38926 0.00039062 0.58248 c-0.063984 0.9604 -0.4832 1.3436 -1.4286 1.2759 c-0.58004 -0.04172 -1.1609 -0.10449 -1.7353 -0.19524 c-0.48528 -0.076952 -0.82956 -0.30703 -0.84256 -0.88384 c-0.018633 -0.83848 -0.11016 -1.6753 -0.1223 -2.5134 c-0.079804 -5.566 -0.15109 -11.132 -0.21387 -16.698 c-0.009336 -0.84092 0.046172 -1.6826 0.056288 -2.5239 c0.0028516 -0.2175 -0.053048 -0.43584 -0.093164 -0.74044 c-1.1479 -0.093984 -2.2683 -0.20133 -3.3908 -0.27383 c-1.1771 -0.075744 -1.4201 -0.2475 -1.5104 -1.4222 c-0.054296 -0.70316 -0.022695 -1.425 0.072072 -2.1245 c0.10816 -0.8008 0.50392 -1.1224 1.31 -1.1516 c0.58044 -0.021055 1.1637 0.031602 1.7458 0.053868 c2.3275 0.089924 4.6556 0.16363 6.982 0.27988 c0.90004 0.04496 1.811 0.11504 2.6884 0.30543 c0.9604 0.20859 1.1483 0.52696 1.1439 1.5023 c-0.0024219 0.54844 -0.0097264 1.1046 -0.10004 1.6425 c-0.15473 0.91988 -0.49864 1.2192 -1.4278 1.2796 z M29.732 34.0848 c-0.034414 -0.15109 -0.086288 -0.29836 -0.14059 -0.48428 c-1.6178 -0.067656 -3.1918 -0.12965 -4.8304 0.29039 c-0.11219 0.58932 -0.22316 1.184 -0.33859 1.7782 c-0.20942 1.0791 -0.39371 2.1642 -0.64 3.2352 c-0.28476 1.237 -0.69264 1.536 -1.9641 1.5659 c-1.8175 0.042928 -1.9758 -0.053088 -1.8061 -1.8997 c0.16242 -1.768 0.47428 -3.524 0.76148 -5.2784 c0.61608 -3.7666 1.2354 -7.5332 1.9022 -11.291 c0.25965 -1.4623 0.63956 -2.9034 0.98628 -4.3492 c0.32406 -1.3509 0.69592 -2.6908 1.0082 -4.0444 c0.1693 -0.73476 0.48524 -1.218 1.3196 -1.2646 c1.0296 -0.057108 2.0544 -0.24141 3.0833 -0.26004 c1.0803 -0.019453 1.3934 0.35359 1.5923 1.4144 c0.42896 2.2865 0.947 4.5576 1.3306 6.8516 c0.5598 3.3494 1.0208 6.7152 1.5481 10.07 c0.4018 2.5559 0.84372 5.1056 1.2617 7.6592 c0.072928 0.44676 0.14059 0.8972 0.16609 1.348 c0.033203 0.58208 -0.13652 0.7688 -0.69756 0.81616 c-0.41884 0.035625 -0.83968 0.049804 -1.2601 0.063984 c-1.2002 0.0409 -1.9612 -0.51364 -2.2428 -1.6834 c-0.36293 -1.5088 -0.69304 -3.0254 -1.0398 -4.5384 z M29.054000000000002 29.427 c-0.36578 -3.2988 -0.72388 -6.4692 -1.406 -9.616 c-0.63592 3.4312 -1.6712 6.766 -2.2209 10.305 c1.2905 -0.24504 2.4453 -0.46456 3.6269 -0.689 z M42.2112 32.5068 c0.28394 0.0048436 0.56796 0.034922 0.70972 0.044648 c0.43708 0.92072 0.721 1.6761 1.1346 2.3514 c0.512 0.836 1.3679 1.1827 2.3198 1.1799 c0.32039 -0.00082032 0.69832 -0.18188 0.94944 -0.39738 c0.9944 -0.85388 1.3537 -1.9455 1.0292 -3.2304 c-0.3852 -1.5242 -1.2783 -2.7491 -2.3444 -3.8574 c-0.69628 -0.72344 -1.4307 -1.41 -2.1484 -2.1124 c-1.2322 -1.2058 -2.3335 -2.5215 -3.2477 -3.9833 c-1.0888 -1.7401 -1.5643 -3.6216 -1.1074 -5.6608 c0.11828 -0.5274 0.3034 -1.0778 0.60152 -1.5206 c1.1758 -1.7458 2.7442 -3.0108 4.8036 -3.5758 c2.9342 -0.80484 6.2464 0.94012 7.2004 3.8116 c0.23211 0.69872 0.3743 1.4408 0.448 2.174 c0.061564 0.61648 -0.13164 0.83724 -0.74448 0.93324 c-0.89356 0.14016 -1.7989 0.21062 -2.7009 0.28555 c-0.47592 0.039297 -0.80244 -0.20211 -0.96568 -0.65332 c-0.098828 -0.27383 -0.16973 -0.56064 -0.29531 -0.82108 c-0.18188 -0.3775 -0.36617 -0.76312 -0.61444 -1.0969 c-0.40344 -0.54196 -0.93 -0.91908 -1.6562 -0.81376 c-0.7522 0.10938 -1.0868 0.67364 -1.2597 1.3217 c-0.39453 1.478 -0.39613 2.9597 0.26492 4.3636 c0.22562 0.47916 0.61488 0.90572 1.0033 1.2796 c1.2601 1.2115 2.6114 2.3327 3.8212 3.5912 c1.431 1.4886 2.4409 3.2579 2.9808 5.2712 c0.2398 0.89436 0.28598 1.8155 0.012969 2.6859 c-0.36578 1.1658 -0.73276 2.3627 -1.3258 3.4187 c-1.3942 2.483 -3.895 3.4413 -6.642 2.7106 c-2.9196 -0.77648 -5.2636 -3.6184 -5.4688 -6.63 c-0.061992 -0.91176 0.17617 -1.1342 1.109 -1.0973 c0.71008 0.02793 1.4222 0.01375 2.133 0.027109 z M69.04 16.892 c-1.0321 0.067228 -2.0658 0.090428 -3.255 0.13902 c0 1.8896 -0.0097264 3.6661 0.0020312 5.4432 c0.035234 5.3408 0.078592 10.681 0.1191 16.022 c0.0016016 0.19442 0.01293 0.38926 0.00039062 0.58248 c-0.063984 0.9604 -0.4832 1.3436 -1.4286 1.2759 c-0.58004 -0.04172 -1.1609 -0.10449 -1.7353 -0.19524 c-0.48528 -0.076952 -0.82956 -0.30703 -0.84256 -0.88384 c-0.018633 -0.83848 -0.11016 -1.6753 -0.1223 -2.5134 c-0.079804 -5.566 -0.15109 -11.132 -0.21387 -16.698 c-0.009336 -0.84092 0.046172 -1.6826 0.056288 -2.5239 c0.0028516 -0.2175 -0.053048 -0.43584 -0.093164 -0.74044 c-1.1479 -0.093984 -2.2683 -0.20133 -3.3908 -0.27383 c-1.1771 -0.075744 -1.4201 -0.2475 -1.5104 -1.4222 c-0.054296 -0.70316 -0.022695 -1.425 0.072072 -2.1245 c0.10816 -0.8008 0.50392 -1.1224 1.31 -1.1516 c0.58044 -0.021055 1.1637 0.031602 1.7458 0.053868 c2.3275 0.089924 4.6556 0.16363 6.982 0.27988 c0.90004 0.04496 1.811 0.11504 2.6884 0.30543 c0.9604 0.20859 1.1483 0.52696 1.1439 1.5023 c-0.0024219 0.54844 -0.0097264 1.1046 -0.10004 1.6425 c-0.15473 0.91988 -0.49864 1.2192 -1.4278 1.2796 z M81.9008 19.596 c0.068436 0.20496 0.17734 0.3975 0.29238 0.64984 c1.0799 -2.7778 2.131 -5.4832 3.153 -8.1116 c1.1763 -0.079804 2.2068 -0.1584 3.2388 -0.21633 c0.81376 -0.04578 1.0868 0.22965 0.9644 1.0215 c-0.063204 0.41076 -0.20699 0.81456 -0.35688 1.2054 c-1.4716 3.835 -2.9606 7.6632 -4.4188 11.503 c-0.19039 0.50188 -0.30543 1.0552 -0.33539 1.5915 c-0.20254 3.6224 -0.23777 7.2472 -0.066836 10.873 c0.022695 0.48324 0.0085156 0.97456 -0.052656 1.4541 c-0.088712 0.69424 -0.34672 0.89884 -1.041 0.85952 c-0.90084 -0.050624 -1.8021 -0.11262 -2.6993 -0.20539 c-0.80484 -0.083048 -1.0256 -0.28438 -1.0272 -1.1119 c-0.0028516 -1.877 0.049412 -3.7541 0.089532 -5.6312 c0.039297 -1.8442 0.10856 -3.6884 0.13125 -5.5328 c0.012969 -1.0454 -0.21102 -2.0366 -0.67888 -2.9974 c-0.49456 -1.0146 -0.87816 -2.0856 -1.2755 -3.1452 c-0.99888 -2.6648 -1.975 -5.3384 -2.9662 -8.006 c-0.52656 -1.4177 -0.42976 -1.5582 1.0426 -1.6202 c0.51404 -0.021484 1.026 -0.12356 1.5364 -0.20215 c0.90328 -0.13973 1.6044 0.11262 1.973 1.0062 c0.57884 1.4031 1.1702 2.8014 1.7158 4.2176 c0.30176 0.78336 0.51644 1.6 0.78136 2.3979 z M105.88300000000001 21.361 c-1.0208 -0.050624 -2.0336 -0.26058 -2.9692 -0.60572 c-0.1134 -1.0665 -0.22723 -2.0573 -0.3216 -3.0501 c-0.063204 -0.66512 -0.31148 -1.18 -0.9924 -1.4036 c-0.70196 -0.23047 -1.3958 -0.18188 -1.8896 0.36777 c-0.39656 0.44108 -0.76032 0.99116 -0.91384 1.5542 c-0.2791 1.0244 -0.43384 2.0892 -0.56424 3.1464 c-0.3293 2.6726 -0.4022 5.3584 -0.27258 8.0476 c0.054256 1.1305 0.10082 2.2663 0.25594 3.3846 c0.091524 0.6594 0.28879 1.3476 0.61484 1.9224 c0.7226 1.2735 1.8426 1.2192 2.4955 -0.081444 c0.58812 -1.1706 0.87572 -2.4299 0.96116 -3.7354 c0.068048 -1.0394 0.13285 -1.1609 1.1799 -1.2658 c0.79956 -0.080196 1.6129 -0.042108 2.4194 -0.021055 c0.46864 0.012148 0.70356 0.34024 0.70272 0.77528 c-0.0020312 0.93608 -0.0020312 1.8762 -0.089924 2.8062 c-0.060352 0.6388 -0.2418 1.2707 -0.41236 1.8936 c-0.79512 2.9071 -3.0059 4.2004 -5.7112 4.7432 c-1.8264 0.36656 -3.266 -0.55416 -4.364 -1.9722 c-0.35199 -0.45444 -0.66512 -0.9786 -0.84132 -1.5214 c-0.5286 -1.6295 -0.99644 -3.2716 -1.0722 -5.012 c-0.077384 -1.7774 -0.29367 -3.5479 -0.42652 -5.3232 c-0.23289 -3.1116 -0.10328 -6.2116 0.41964 -9.2872 c0.72828 -4.282 5.4368 -5.76 8.2864 -4.4292 c0.40908 0.19117 0.8668 0.28719 1.2581 0.50552 c0.4156 0.23211 0.86196 0.49132 1.1508 0.85388 c1.4728 1.8487 2.2436 3.9906 2.4457 6.3336 c0.075352 0.87168 -0.42328 1.4206 -1.3492 1.3744 z  M124.74100000000001 19.54 c0.01418 1.2622 0.0035547 2.5242 0.0035547 3.1565 c-0.24262 4.1248 -0.38558 7.6204 -0.67156 11.104 c-0.2475 3.014 -2.2396 4.8772 -4.9752 5.6588 c-0.50712 0.14461 -1.1224 0.17418 -1.623 0.031211 c-2.0318 -0.58044 -3.8464 -1.5291 -5.0464 -3.3781 c-0.59544 -0.91744 -0.91868 -1.9155 -1.0029 -3.0043 c-0.38156 -4.9308 -0.16606 -9.8372 0.58128 -14.722 c0.058752 -0.38316 0.15312 -0.76068 0.22078 -1.143 c0.42004 -2.3825 1.8786 -3.8318 4.1144 -4.5824 c0.24547 -0.082228 0.50392 -0.13328 0.73844 -0.2382 c1.0308 -0.46176 2.097 -0.33012 3.1343 -0.11746 c2.4457 0.50068 4.1648 2.423 4.4328 4.9104 c0.083048 0.7696 0.085076 1.5497 0.093592 2.325 z M119.39200000000001 31.942 c0.12394 -2.391 0.20168 -4.784 0.29726 -7.176 l-0.047344 -0.0036328 c0 -1.0361 0.0048436 -2.0719 -0.00125 -3.108 c-0.0068752 -1.1321 0.023086 -2.2679 -0.060744 -3.3948 c-0.033633 -0.45084 -0.29812 -0.89756 -0.5144 -1.3172 c-0.19238 -0.37348 -0.54112 -0.38117 -0.92756 -0.28316 c-0.77324 0.19644 -1.1248 0.785 -1.2536 1.4642 c-0.30742 1.6178 -0.7218 3.2469 -0.75544 4.8784 c-0.066444 3.2331 0.077344 6.4712 0.17859 9.706 c0.019024 0.60272 0.22074 1.2055 0.3852 1.7952 c0.12312 0.44108 0.45488 0.70724 0.92192 0.74488 c0.49252 0.039688 0.89756 -0.14867 1.1394 -0.58652 c0.13894 -0.25152 0.25156 -0.5302 0.31109 -0.81008 c0.13406 -0.63148 0.29324 -1.2686 0.32688 -1.9094 z M142.261 19.54 c0.01418 1.2622 0.0035547 2.5242 0.0035547 3.1565 c-0.24262 4.1248 -0.38558 7.6204 -0.67156 11.104 c-0.2475 3.014 -2.2396 4.8772 -4.9752 5.6588 c-0.50712 0.14461 -1.1224 0.17418 -1.623 0.031211 c-2.0318 -0.58044 -3.8464 -1.5291 -5.0464 -3.3781 c-0.59544 -0.91744 -0.91868 -1.9155 -1.0029 -3.0043 c-0.38156 -4.9308 -0.16606 -9.8372 0.58128 -14.722 c0.058752 -0.38316 0.15312 -0.76068 0.22078 -1.143 c0.42004 -2.3825 1.8786 -3.8318 4.1144 -4.5824 c0.24547 -0.082228 0.50392 -0.13328 0.73844 -0.2382 c1.0308 -0.46176 2.097 -0.33012 3.1343 -0.11746 c2.4457 0.50068 4.1648 2.423 4.4328 4.9104 c0.083048 0.7696 0.085076 1.5497 0.093592 2.325 z M136.912 31.942 c0.12394 -2.391 0.20168 -4.784 0.29726 -7.176 l-0.047344 -0.0036328 c0 -1.0361 0.0048436 -2.0719 -0.00125 -3.108 c-0.0068752 -1.1321 0.023086 -2.2679 -0.060744 -3.3948 c-0.033633 -0.45084 -0.29812 -0.89756 -0.5144 -1.3172 c-0.19238 -0.37348 -0.54112 -0.38117 -0.92756 -0.28316 c-0.77324 0.19644 -1.1248 0.785 -1.2536 1.4642 c-0.30742 1.6178 -0.7218 3.2469 -0.75544 4.8784 c-0.066444 3.2331 0.077344 6.4712 0.17859 9.706 c0.019024 0.60272 0.22074 1.2055 0.3852 1.7952 c0.12312 0.44108 0.45488 0.70724 0.92192 0.74488 c0.49252 0.039688 0.89756 -0.14867 1.1394 -0.58652 c0.13894 -0.25152 0.25156 -0.5302 0.31109 -0.81008 c0.13406 -0.63148 0.29324 -1.2686 0.32688 -1.9094 z M150.82920000000001 20.038 c-0.0040624 0.11828 0.046016 0.23867 0.10191 0.51048 c1.6275 -2.5425 3.1813 -4.9264 4.6792 -7.3444 c0.33336 -0.53792 0.69304 -0.93732 1.3176 -1.0054 c0.73476 -0.080196 1.476 -0.14824 2.2136 -0.14258 c0.50752 0.0036328 0.70156 0.26976 0.5452 0.78012 c-0.16808 0.54844 -0.42532 1.0839 -0.72548 1.5748 c-0.82712 1.3525 -1.7263 2.6616 -2.5421 4.0204 c-0.73192 1.2196 -1.3675 2.4963 -2.0909 3.7212 c-0.36777 0.6226 -0.36816 1.1516 -0.031562 1.8033 c1.1722 2.2699 2.3214 4.5532 3.4081 6.8648 c0.89396 1.9017 1.6976 3.8464 2.5186 5.7812 c0.22644 0.53348 0.42936 1.09 0.54116 1.6559 c0.21062 1.0641 -0.33539 1.7284 -1.4116 1.6846 c-0.7052 -0.02875 -1.4104 -0.17942 -2.1034 -0.33133 c-0.54564 -0.11949 -0.866 -0.52536 -1.0637 -1.0406 c-1.1107 -2.8986 -2.2213 -5.7976 -3.345 -8.6912 c-0.34914 -0.89884 -0.7384 -1.7818 -1.171 -2.8204 c-0.54276 0.78744 -0.92636 1.44 -0.87612 2.2898 c0.0709 1.1953 0.1025 2.393 0.16043 3.5892 c0.081408 1.6854 0.071288 3.368 -0.25558 5.0292 c-0.2641 1.3432 -0.79308 1.7158 -2.1763 1.6158 c-0.25762 -0.018633 -0.5144 -0.053048 -0.7708 -0.08746 c-0.62176 -0.083436 -0.9908 -0.45972 -1.1273 -1.0491 c-0.094376 -0.40788 -0.17133 -0.82876 -0.18308 -1.2459 c-0.070468 -2.4911 -0.16891 -4.9832 -0.16082 -7.4744 c0.0068752 -2.1675 0.17578 -4.3336 0.20942 -6.5016 c0.027539 -1.779 -0.08586 -3.5604 -0.048984 -5.3392 c0.029961 -1.4538 0.19156 -2.9042 0.29 -4.3568 c0.04254 -0.62908 0.33984 -0.98632 0.98228 -1.133 c0.79472 -0.18144 1.5741 -0.39047 2.3886 -0.15512 c0.91948 0.26531 1.2212 0.67404 1.1783 1.6146 c-0.013359 0.28961 -0.04172 0.58368 -0.10774 0.8652 c-0.41196 1.7543 -0.26938 3.5426 -0.34308 5.3176 z">
		</path>
	</g>
</svg>
