<svg id="pz3nrAFrxv" viewBox="0 0 350 310" height="310" width="350" style="width: 350px; height: 310px; position: absolute; top: 50%; left: 50%; z-index: 0; cursor: pointer; transform: translate(-50%, -50%) scale(0.464516);">
	<defs id="SvgjsDefs1163">
	</defs>
	<g id="SvgjsG1164" featurekey="rootContainer" transform="matrix(1,0,0,1,0,0)" fill="#fff4e1">
		<rect y="0" height="1" width="1" opacity="0">
		</rect>
		<rect y="305" width="350" height="5">
		</rect>
	</g>
	<g id="SvgjsG1165" featurekey="symbolFeature-0" transform="matrix(1.5825218596197979,0,0,1.5825218596197979,95.87203786186447,13.177554189926116)" fill="#ffebb7">
		<title xmlns="http://www.w3.org/2000/svg">
			Artboard 25
		</title>
		<path xmlns="http://www.w3.org/2000/svg" d="M46.92,76.9,36.27,93.09a8.57,8.57,0,0,1-5.45,3.67,8.28,8.28,0,0,1-1.61.16,7.85,7.85,0,0,1-4.42-1.35,8,8,0,0,1-3.46-5.43,8.16,8.16,0,0,1,1.57-6.24l14.65-19a2,2,0,1,1,3.17,2.45l-14.65,19a4.12,4.12,0,0,0,1,5.92,3.94,3.94,0,0,0,3,.58,4.54,4.54,0,0,0,2.89-1.94L43.57,74.7a2,2,0,0,1,3.34,2.2ZM89,5.22c-3.73-2.66-8.8-2.86-14.26-.55A34.06,34.06,0,0,0,60.79,16.41c-5.06,7.1-7.43,15.23-6.33,21.75a9.26,9.26,0,0,1-.39,4.5,2,2,0,1,0,3.79,1.29,13.28,13.28,0,0,0,.55-6.45c-.91-5.42,1.25-12.61,5.64-18.77A30,30,0,0,1,76.27,8.36c4.14-1.74,7.82-1.7,10.38.13s3.81,5.29,3.51,9.77A30,30,0,0,1,84.35,33.2C80,39.37,73.86,43.76,68.44,44.66a13.3,13.3,0,0,0-5.82,2.54,14.51,14.51,0,0,0-1.33,1.15,2,2,0,0,0,2.79,2.86,10.36,10.36,0,0,1,1-.83,9.28,9.28,0,0,1,4.05-1.78c6.53-1.09,13.44-6,18.51-13.08a34.07,34.07,0,0,0,6.55-17C94.55,12.61,92.71,7.88,89,5.22ZM45.35,41.59a.54.54,0,0,1,0-.53,12.41,12.41,0,0,0-1.24-12.22L26.25,3.92A2,2,0,1,0,23,6.25L40.84,31.17a8.39,8.39,0,0,1,.84,8.27,4.52,4.52,0,0,0,.51,4.6l33,42.68a3.85,3.85,0,1,1-6.25,4.48L39,46.3a4.54,4.54,0,0,0-4.2-2,8.39,8.39,0,0,1-7.57-3.44L9.42,16a2,2,0,1,0-3.25,2.33L24,43.24a12.39,12.39,0,0,0,11.2,5.09.54.54,0,0,1,.5.19L65.6,93.41a7.79,7.79,0,0,0,5.12,3.38,7.94,7.94,0,0,0,1.43.13,7.85,7.85,0,0,0,6.19-12.65ZM32.57,36.21a2,2,0,0,0,1.64-3.15L17.91,9.78a2,2,0,1,0-3.28,2.29l16.3,23.28A2,2,0,0,0,32.57,36.21Z">
		</path>
	</g>
	<g id="SvgjsG1166" featurekey="nameFeature-0" transform="matrix(3.012670366176912,0,0,3.012670366176912,0.0000021548297640158498,152.77606854765492)" fill="#fff4e1">
		<path d="M9.24 21.2 l-2.72 0 l0 12.76 c0 1.2 1 2.16 2.2 2.16 l0 3.84 c-3.32 0 -6 -2.68 -6 -6 l0 -12.76 l-2.72 0 l0 -3.84 l2.72 0 l0 -6 l3.8 0 l0 6 l2.72 0 l0 3.84 z M21.067 32.76 l0 7.2 l-3.68 0 l0 -0.12 c-0.36 0.08 -0.72 0.12 -1.12 0.12 c-2.8 0 -5.04 -2.24 -5.04 -5.04 l0 -4.28 c0 -1.12 0.44 -2.16 1.24 -2.96 c0.76 -0.76 1.8 -1.2 2.92 -1.2 l1.92 0 l0 -4.32 c0 -0.6 -0.52 -1.12 -1.12 -1.12 l-0.2 0 c-0.64 0 -1.12 0.52 -1.12 1.12 l0 3.04 l-3.72 0 l0 -3.04 c0 -2.68 2.16 -4.84 4.84 -4.84 l0.2 0 c2.68 0 4.84 2.16 4.84 4.84 z M16.267 36.24 c0.6 0 1.12 -0.48 1.12 -1.08 l-0.04 -4.92 l-1.96 -0.04 c-0.16 0 -0.24 0.08 -0.32 0.12 c-0.04 0.08 -0.12 0.16 -0.12 0.32 l0 4.28 c0 0.72 0.6 1.32 1.32 1.32 z M28.933999999999997 39.96 c-2.96 0 -5.36 -2.4 -5.36 -5.36 l0 -3.12 l3.8 0 l0 3.12 c0 0.88 0.72 1.56 1.56 1.56 c0.88 0 1.56 -0.68 1.56 -1.56 l0 -1.72 l-6.92 -7.16 l0 -3.16 c0 -2.96 2.4 -5.4 5.36 -5.4 s5.36 2.44 5.36 5.4 l0 2.48 l-3.8 0 l0 -2.48 c0 -0.88 -0.68 -1.56 -1.56 -1.56 c-0.84 0 -1.56 0.68 -1.56 1.56 l0 1.6 l6.92 7.2 l0 3.24 c0 2.96 -2.4 5.36 -5.36 5.36 z M45.601000000000006 21.2 l-2.72 0 l0 12.76 c0 1.2 1 2.16 2.2 2.16 l0 3.84 c-3.32 0 -6 -2.68 -6 -6 l0 -12.76 l-2.72 0 l0 -3.84 l2.72 0 l0 -6 l3.8 0 l0 6 l2.72 0 l0 3.84 z M57.98800000000001 17.36 l3.96 0 l-5.64 23.4 s-0.88 5.6 -6.2 5.72 l-0.16 0 l0 0 l0 0 l0 0 l0 -3.88 c0.4 0 0.84 -0.12 1.24 -0.32 c0 0 1.92 -0.56 1.52 -4 l-5.04 -20.92 l4 0 l3.16 13.08 z M70.13500000000002 40 l-0.8 0 c-2.68 0 -4.88 -2.16 -4.88 -4.84 l0.08 -13.12 c0 -2.68 2.2 -4.84 4.88 -4.84 l0.8 0 c2.68 0 4.88 2.16 4.88 4.84 l0 3.2 l-3.76 0 l0 -3.2 c0 -0.6 -0.48 -1.08 -1.12 -1.08 l-0.8 0 c-0.64 0 -1.12 0.48 -1.12 1.08 l-0.08 13.12 c0 0.6 0.48 1.08 1.12 1.08 l0.8 0 c0.64 0 1.12 -0.48 1.12 -1.08 l0 -3.76 l3.76 0 l0 3.76 c0 2.68 -2.16 4.84 -4.88 4.84 z M83.00200000000002 40.04 c-3 0 -5.4 -2.44 -5.4 -5.4 l0 -11.88 c0 -2.96 2.4 -5.4 5.4 -5.4 c2.96 0 5.36 2.44 5.36 5.4 l0 11.88 c0 2.96 -2.4 5.4 -5.36 5.4 z M83.00200000000002 21.2 c-0.88 0 -1.56 0.72 -1.56 1.56 l0 11.88 c0 0.88 0.68 1.56 1.56 1.56 c0.84 0 1.56 -0.68 1.56 -1.56 l0 -11.88 c0 -0.84 -0.72 -1.56 -1.56 -1.56 z M96.26900000000002 40.04 c-3 0 -5.4 -2.44 -5.4 -5.4 l0 -11.88 c0 -2.96 2.4 -5.4 5.4 -5.4 c2.96 0 5.36 2.44 5.36 5.4 l0 11.88 c0 2.96 -2.4 5.4 -5.36 5.4 z M96.26900000000002 21.2 c-0.88 0 -1.56 0.72 -1.56 1.56 l0 11.88 c0 0.88 0.68 1.56 1.56 1.56 c0.84 0 1.56 -0.68 1.56 -1.56 l0 -11.88 c0 -0.84 -0.72 -1.56 -1.56 -1.56 z M111.13600000000001 22.96 l5.04 17 l-3.92 0 l-3.96 -14.12 l-0.36 0.48 l0 13.6 l-0.2 0.08 l-3.6 0 l0 -28.56 l3.8 0 l0 9.56 l2.64 -3.68 l4.36 0 z">
		</path>
	</g>
</svg>
